<svg width="344" height="638" viewBox="0 0 344 638" fill="none" xmlns="http://www.w3.org/2000/svg">
<path d="M181.228 637C181.78 636.995 182.224 636.543 182.219 635.991L182.136 626.991C182.13 626.439 181.679 625.995 181.126 626C180.574 626.005 180.131 626.457 180.136 627.01L180.21 635.009L172.21 635.083C171.658 635.088 171.214 635.54 171.219 636.092C171.224 636.645 171.676 637.088 172.228 637.083L181.228 637ZM181.919 635.286C180.457 633.851 179.005 632.418 177.563 630.988L176.155 632.408C177.599 633.84 179.054 635.276 180.518 636.714L181.919 635.286ZM169.033 622.437C166.23 619.598 163.467 616.768 160.743 613.949L159.305 615.339C162.033 618.163 164.801 620.997 167.609 623.842L169.033 622.437ZM152.693 605.523C149.983 602.654 147.314 599.797 144.687 596.95L143.217 598.306C145.85 601.159 148.524 604.022 151.239 606.896L152.693 605.523ZM136.532 588.004C133.859 585.034 131.232 582.076 128.648 579.13L127.145 580.449C129.734 583.401 132.367 586.366 135.046 589.342L136.532 588.004ZM121.031 570.328C118.449 567.303 115.914 564.291 113.426 561.292L111.886 562.569C114.381 565.576 116.922 568.595 119.51 571.627L121.031 570.328ZM105.797 551.955C103.304 548.857 100.862 545.772 98.4693 542.702L96.8916 543.931C99.2907 547.01 101.739 550.103 104.238 553.209L105.797 551.955ZM91.4401 533.532C88.9912 530.283 86.5984 527.05 84.2608 523.833L82.6428 525.008C84.9874 528.235 87.3872 531.477 89.843 534.735L91.4401 533.532ZM77.3407 514.124C75.09 510.903 72.8952 507.699 70.7555 504.511L69.0948 505.625C71.2417 508.824 73.4436 512.039 75.7014 515.269L77.3407 514.124ZM64.2496 494.603C62.0642 491.199 59.9422 487.814 57.8826 484.448L56.1766 485.492C58.2439 488.871 60.3736 492.268 62.5666 495.684L64.2496 494.603ZM51.8903 474.405C49.8889 470.962 47.9532 467.54 46.0824 464.137L44.3298 465.1C46.2085 468.517 48.1519 471.954 50.1613 475.41L51.8903 474.405ZM40.4445 453.564C38.6348 450.061 36.8944 446.58 35.2222 443.12L33.4215 443.991C35.1016 447.467 36.8499 450.964 38.6677 454.482L40.4445 453.564ZM30.2109 432.364C28.5652 428.694 26.9969 425.048 25.5047 421.427L23.6555 422.189C25.1557 425.83 26.7321 429.494 28.3859 433.183L30.2109 432.364ZM21.2544 410.638C19.8265 406.837 18.4832 403.063 17.2227 399.317L15.3271 399.955C16.5952 403.723 17.9463 407.519 19.3821 411.341L21.2544 410.638ZM13.6686 388.098C12.5366 384.285 11.4911 380.502 10.5305 376.748L8.59295 377.243C9.55995 381.022 10.6121 384.83 11.7513 388.667L13.6686 388.098ZM7.81508 365.171C6.99575 361.325 6.26631 357.511 5.62467 353.729L3.65284 354.063C4.2992 357.873 5.03391 361.715 5.85898 365.587L7.81508 365.171ZM3.88866 341.895C3.40558 337.986 3.01727 334.112 2.72133 330.272L0.727247 330.425C1.02556 334.296 1.41695 338.201 1.90376 342.141L3.88866 341.895ZM2.09437 318.382C1.9832 314.432 1.97077 310.521 2.05431 306.648L0.0547765 306.605C-0.0294818 310.512 -0.0169339 314.456 0.0951571 318.438L2.09437 318.382ZM2.61422 294.809C2.90306 290.868 3.29231 286.968 3.77889 283.108L1.7946 282.858C1.30365 286.752 0.910952 290.687 0.619574 294.663L2.61422 294.809ZM5.56953 271.416C6.27081 267.532 7.07168 263.69 7.96883 259.891L6.02236 259.431C5.11709 263.265 4.30897 267.141 3.60135 271.06L5.56953 271.416ZM10.9909 248.465C12.0998 244.683 13.3051 240.945 14.6033 237.25L12.7164 236.587C11.4067 240.315 10.1906 244.086 9.07169 247.902L10.9909 248.465ZM18.8076 226.21C20.3036 222.568 21.8907 218.97 23.5654 215.416L21.7561 214.563C20.0673 218.148 18.4666 221.777 16.9576 225.451L18.8076 226.21ZM28.8595 204.863C30.7101 201.388 32.645 197.957 34.6607 194.57L32.942 193.547C30.9105 196.961 28.96 200.419 27.0942 203.922L28.8595 204.863ZM40.9253 184.572C43.0904 181.283 45.332 178.038 47.6465 174.837L46.0257 173.665C43.6944 176.89 41.4363 180.159 39.2549 183.472L40.9253 184.572ZM54.7555 165.423C57.1923 162.331 59.6975 159.281 62.2674 156.274L60.7468 154.975C58.1601 158.002 55.6382 161.072 53.1847 164.186L54.7555 165.423ZM70.1007 147.45C72.7691 144.555 75.4976 141.7 78.2828 138.887L76.8616 137.48C74.06 140.31 71.315 143.181 68.63 146.095L70.1007 147.45ZM86.7301 130.642C89.5943 127.938 92.5108 125.274 95.4762 122.651L94.151 121.153C91.1699 123.79 88.2375 126.468 85.3572 129.187L86.7301 130.642ZM104.441 114.962C107.471 112.442 110.545 109.962 113.661 107.52L112.427 105.946C109.296 108.399 106.207 110.892 103.162 113.424L104.441 114.962ZM123.062 100.361C126.231 98.0154 129.438 95.7082 132.679 93.439L131.532 91.8006C128.277 94.0797 125.056 96.3972 121.872 98.7533L123.062 100.361ZM142.449 86.7814C145.736 84.6009 149.055 82.4579 152.401 80.3523L151.335 78.6596C147.976 80.7735 144.645 82.9252 141.344 85.1147L142.449 86.7814ZM162.486 74.1674C165.873 72.143 169.285 70.1555 172.719 68.205L171.731 66.466C168.285 68.4237 164.86 70.4185 161.46 72.4507L162.486 74.1674ZM183.075 62.4667C186.548 60.5903 190.039 58.7506 193.545 56.9475L192.631 55.1689C189.112 56.9781 185.609 58.8241 182.124 60.7071L183.075 62.4667ZM204.139 51.6329C207.684 49.8977 211.242 48.1991 214.81 46.5371L213.965 44.7242C210.386 46.3915 206.817 48.0956 203.26 49.8366L204.139 51.6329ZM225.612 41.6276C229.221 40.0276 232.836 38.4646 236.455 36.9385L235.678 35.0957C232.048 36.6265 228.422 38.1942 224.801 39.7992L225.612 41.6276ZM247.442 32.4204C251.107 30.9512 254.773 29.5196 258.435 28.1254L257.723 26.2563C254.05 27.6545 250.374 29.0904 246.698 30.564L247.442 32.4204ZM269.586 23.9909C273.303 22.6491 277.014 21.346 280.714 20.0814L280.067 18.1889C276.357 19.4571 272.635 20.764 268.907 22.1097L269.586 23.9909ZM292.008 16.3298C295.776 15.1137 299.53 13.938 303.265 12.8026L302.683 10.889C298.937 12.0278 295.173 13.2069 291.393 14.4264L292.008 16.3298ZM314.676 9.4414C318.497 8.35166 322.295 7.30479 326.065 6.3006L325.55 4.36799C321.769 5.37517 317.96 6.42514 314.127 7.51807L314.676 9.4414ZM337.559 3.34845C339.458 2.87879 341.349 2.42027 343.231 1.97289L342.769 0.0271114C340.881 0.475889 338.984 0.935818 337.079 1.40692L337.559 3.34845Z" fill="#CC0000"/>
</svg>
