<svg width="360" height="592" viewBox="0 0 360 592" fill="none" xmlns="http://www.w3.org/2000/svg">
<path d="M170.281 590.998C169.73 590.959 169.314 590.482 169.352 589.931L169.977 580.952C170.016 580.401 170.493 579.986 171.044 580.024C171.595 580.062 172.011 580.54 171.972 581.091L171.417 589.072L179.398 589.627C179.949 589.666 180.364 590.143 180.326 590.694C180.288 591.245 179.81 591.661 179.259 591.622L170.281 590.998ZM169.694 589.246C171.254 587.888 172.803 586.533 174.342 585.181L175.662 586.683C174.121 588.038 172.569 589.395 171.006 590.755L169.694 589.246ZM183.44 577.097C186.429 574.412 189.374 571.737 192.276 569.073L193.628 570.546C190.721 573.216 187.77 575.895 184.776 578.585L183.44 577.097ZM200.851 561.108C203.762 558.374 206.627 555.651 209.447 552.938L210.833 554.379C208.008 557.098 205.137 559.827 202.221 562.566L200.851 561.108ZM218.169 544.437C221.026 541.615 223.834 538.805 226.594 536.006L228.018 537.411C225.252 540.216 222.438 543.032 219.574 545.86L218.169 544.437ZM234.725 527.646C237.529 524.723 240.278 521.812 242.975 518.915L244.439 520.278C241.736 523.182 238.979 526.1 236.168 529.03L234.725 527.646ZM251.146 509.996C253.814 507.036 256.426 504.091 258.982 501.159L260.49 502.473C257.926 505.413 255.307 508.367 252.632 511.335L251.146 509.996ZM266.575 492.298C269.233 489.141 271.826 486.001 274.356 482.877L275.91 484.135C273.373 487.27 270.771 490.42 268.105 493.586L266.575 492.298ZM281.754 473.552C284.157 470.46 286.498 467.384 288.776 464.324L290.38 465.518C288.093 468.589 285.745 471.676 283.333 474.779L281.754 473.552ZM295.951 454.452C298.282 451.164 300.542 447.895 302.73 444.644L304.389 445.761C302.191 449.025 299.923 452.308 297.582 455.609L295.951 454.452ZM309.082 434.949C311.303 431.463 313.442 428 315.499 424.559L317.216 425.585C315.148 429.043 313 432.523 310.769 436.024L309.082 434.949ZM321.434 414.293C323.375 410.815 325.233 407.36 327.009 403.929L328.785 404.848C327 408.298 325.132 411.772 323.18 415.267L321.434 414.293ZM332.375 393.106C334.073 389.525 335.681 385.969 337.199 382.439L339.037 383.23C337.508 386.782 335.891 390.36 334.183 393.963L332.375 393.106ZM341.735 371.297C343.172 367.55 344.509 363.832 345.746 360.144L347.642 360.781C346.395 364.496 345.049 368.24 343.602 372.014L341.735 371.297ZM349.266 348.824C350.376 344.939 351.376 341.088 352.268 337.271L354.215 337.727C353.316 341.575 352.308 345.458 351.189 349.373L349.266 348.824ZM354.657 325.73C355.374 321.75 355.972 317.809 356.455 313.906L358.44 314.151C357.953 318.092 357.349 322.069 356.626 326.084L354.657 325.73ZM357.569 302.174C357.834 298.155 357.976 294.178 357.997 290.242L359.997 290.253C359.975 294.23 359.833 298.247 359.565 302.306L357.569 302.174ZM357.698 278.434C357.472 274.438 357.122 270.486 356.65 266.579L358.636 266.339C359.112 270.289 359.467 274.283 359.695 278.321L357.698 278.434ZM354.855 254.873C354.125 250.962 353.274 247.098 352.304 243.278L354.242 242.786C355.222 246.647 356.084 250.553 356.821 254.507L354.855 254.873ZM349.018 231.881C347.8 228.11 346.466 224.385 345.02 220.707L346.881 219.975C348.342 223.691 349.691 227.455 350.921 231.266L349.018 231.881ZM340.344 209.801C338.676 206.211 336.901 202.667 335.021 199.169L336.783 198.222C338.68 201.754 340.474 205.332 342.158 208.958L340.344 209.801ZM329.123 188.884C327.062 185.508 324.904 182.177 322.654 178.891L324.304 177.761C326.574 181.075 328.75 184.436 330.83 187.842L329.123 188.884ZM315.711 169.273C313.321 166.127 310.846 163.024 308.289 159.964L309.824 158.682C312.4 161.765 314.895 164.892 317.304 168.064L315.711 169.273ZM300.475 151.016C297.815 148.099 295.08 145.222 292.276 142.387L293.698 140.981C296.521 143.835 299.274 146.731 301.953 149.669L300.475 151.016ZM283.749 134.091C280.868 131.392 277.923 128.732 274.919 126.111L276.234 124.604C279.255 127.24 282.217 129.916 285.116 132.632L283.749 134.091ZM265.814 118.434C262.752 115.938 259.637 113.48 256.471 111.059L257.686 109.47C260.868 111.903 264 114.374 267.077 116.884L265.814 118.434ZM246.899 103.961C243.689 101.653 240.434 99.3809 237.137 97.1448L238.259 95.4895C241.571 97.7357 244.842 100.018 248.067 102.338L246.899 103.961ZM227.185 90.585C223.852 88.4491 220.482 86.3481 217.077 84.2821L218.114 82.5722C221.533 84.6465 224.917 86.7561 228.264 88.9011L227.185 90.585ZM206.815 78.2197C203.379 76.2428 199.912 74.3 196.417 72.3912L197.376 70.636C200.883 72.5517 204.363 74.5017 207.812 76.4861L206.815 78.2197ZM185.898 66.7889C182.375 64.9596 178.828 63.1636 175.26 61.4011L176.146 59.6079C179.726 61.3763 183.285 63.1783 186.82 65.014L185.898 66.7889ZM164.524 56.2261C160.927 54.5347 157.313 52.8764 153.684 51.251L154.502 49.4257C158.142 51.056 161.767 52.7195 165.375 54.4163L164.524 56.2261ZM142.761 46.4753C139.102 44.914 135.432 43.3857 131.753 41.8901L132.506 40.0373C136.195 41.5371 139.876 43.0699 143.546 44.6357L142.761 46.4753ZM120.666 37.4908C116.954 36.0534 113.236 34.6491 109.517 33.2776L110.208 31.4011C113.938 32.7762 117.666 34.1844 121.388 35.6258L120.666 37.4908ZM98.2839 29.2375C94.5256 27.9191 90.7682 26.6343 87.0148 25.3827L87.6475 23.4854C91.4105 24.7402 95.1777 26.0284 98.9459 27.3502L98.2839 29.2375ZM75.6522 21.6904C71.8521 20.4876 68.0596 19.3191 64.2781 18.1846L64.8528 16.269C68.6439 17.4063 72.446 18.5778 76.2557 19.7837L75.6522 21.6904ZM52.8009 14.8356C48.9608 13.7464 45.1358 12.6927 41.3294 11.6744L41.8463 9.74233C45.6623 10.7632 49.4969 11.8196 53.3467 12.9115L52.8009 14.8356ZM29.7562 8.67172C25.8744 7.69593 22.0164 6.75763 18.1862 5.85667L18.6442 3.90981C22.4843 4.81309 26.3521 5.7538 30.2437 6.73207L29.7562 8.67172ZM6.54282 3.21308C4.61804 2.79187 2.70154 2.38036 0.793884 1.97853L1.20615 0.0214733C3.1189 0.424387 5.0405 0.836994 6.97037 1.25931L6.54282 3.21308Z" fill="#CC0000"/>
</svg>
