<svg width="84" height="84" viewBox="0 0 84 84" fill="none" xmlns="http://www.w3.org/2000/svg">
<rect width="84" height="84" rx="4" fill="#CC0000"/>
<path d="M56.4375 43.5577C56.5869 42.9145 56.6041 42.2473 56.488 41.5971C56.3719 40.947 56.125 40.3277 55.7625 39.7774C55.3964 39.2001 54.9102 38.7099 54.3375 38.3409L34.5 24.5052C33.9184 24.0582 33.2533 23.7341 32.5445 23.5522C31.8357 23.3703 31.0978 23.3345 30.375 23.4468C29.6324 23.5267 28.9147 23.7632 28.2686 24.1409C27.6226 24.5187 27.0626 25.0292 26.625 25.6393C25.991 26.5007 25.602 27.5202 25.5 28.5879V56.6751C25.5811 57.4149 25.8087 58.1307 26.1695 58.78C26.5302 59.4294 27.0167 59.9991 27.6 60.4553C28.5831 61.2368 29.798 61.6628 31.05 61.665H31.7625C32.7118 61.54 33.6146 61.176 34.3875 60.6065L54.3375 46.5818C54.8724 46.2473 55.3343 45.8067 55.6953 45.2869C56.0562 44.7671 56.3087 44.1788 56.4375 43.5577ZM53.0625 42.8394C52.9737 43.2233 52.7465 43.5601 52.425 43.7845L32.5875 57.6958C32.2808 57.9267 31.9181 58.0703 31.5375 58.1116C31.2581 58.1507 30.9737 58.1306 30.7025 58.0525C30.4312 57.9744 30.1792 57.84 29.9625 57.658C29.5552 57.3484 29.2643 56.9086 29.1375 56.4105V28.7391C29.1449 28.366 29.2483 28.0013 29.4375 27.6806C29.5945 27.4449 29.7993 27.2454 30.0385 27.0956C30.2777 26.9457 30.5458 26.8487 30.825 26.8112H31.1625C31.6369 26.8166 32.0971 26.9756 32.475 27.2648L52.425 41.2895C52.6719 41.4456 52.8654 41.6742 52.9794 41.9446C53.0934 42.215 53.1224 42.5141 53.0625 42.8016V42.8394Z" fill="white"/>
<path d="M66.7873 40.1184C66.4662 39.5776 66.0463 39.103 65.5498 38.7197L49.3873 25.9803C49.0279 25.7034 48.5749 25.5799 48.1259 25.6365C47.677 25.693 47.2681 25.9251 46.9873 26.2827C46.8465 26.4602 46.7424 26.6644 46.6811 26.8831C46.6199 27.1018 46.6027 27.3307 46.6307 27.5563C46.6587 27.7818 46.7312 27.9994 46.844 28.1962C46.9567 28.393 47.1075 28.565 47.2873 28.7021L63.5248 41.5171C63.6314 41.5994 63.7206 41.7022 63.7873 41.8195C63.946 42.1057 64.0027 42.438 63.9481 42.7612C63.8936 43.0844 63.731 43.3791 63.4873 43.5962L47.3623 56.2979C47.0076 56.5809 46.7774 56.9931 46.7213 57.4457C46.6651 57.8982 46.7876 58.3549 47.0623 58.7172C47.2195 58.9285 47.4233 59.1 47.6577 59.2181C47.892 59.3362 48.1504 59.3977 48.4123 59.3977C48.8071 59.4008 49.1909 59.2674 49.4998 59.0196L65.5498 46.3558C66.469 45.6424 67.1007 44.6176 67.3282 43.4709C67.5557 42.3243 67.3636 41.1333 66.7873 40.1184Z" fill="white"/>
</svg>
