<svg width="84" height="84" viewBox="0 0 84 84" fill="none" xmlns="http://www.w3.org/2000/svg">
<rect width="84" height="84" rx="4" fill="#CC0000"/>
<g clip-path="url(#clip0_586_3)">
<path d="M61 38C61 36.896 60.104 36 59 36C57.896 36 57 36.896 57 38C57 38.476 57 52.524 57 53C57 54.104 57.896 55 59 55C60.104 55 61 54.104 61 53C61 52.524 61 38.476 61 38Z" stroke="white" stroke-width="2" stroke-miterlimit="10"/>
<path d="M45 65C46.104 65 47 64.104 47 63C47 61.896 46.104 61 45 61C44.524 61 40.476 61 40 61C38.896 61 38 61.896 38 63C38 64.104 38.896 65 40 65C40.476 65 44.524 65 45 65Z" stroke="white" stroke-width="2" stroke-miterlimit="10"/>
<path d="M25 37C25 27.611 32.611 20 42 20C51.389 20 59 27.611 59 37" stroke="white" stroke-width="2" stroke-miterlimit="10"/>
<path d="M61 38C63.762 38 66 41.357 66 45.5C66 49.641 63.762 53 61 53" stroke="white" stroke-width="2" stroke-miterlimit="10"/>
<path d="M23 38C23 36.896 23.896 36 25 36C26.104 36 27 36.896 27 38C27 38.476 27 52.524 27 53C27 54.104 26.104 55 25 55C23.896 55 23 54.104 23 53C23 52.524 23 38.476 23 38Z" stroke="white" stroke-width="2" stroke-miterlimit="10"/>
<path d="M23 38C20.239 38 18 41.357 18 45.5C18 49.641 20.239 53 23 53" stroke="white" stroke-width="2" stroke-miterlimit="10"/>
<path d="M59 55C59 60 56 63 51 63H47" stroke="white" stroke-width="2" stroke-miterlimit="10"/>
</g>
<defs>
<clipPath id="clip0_586_3">
<rect width="50" height="50" fill="white" transform="translate(17 18)"/>
</clipPath>
</defs>
</svg>
