<svg width="84" height="84" viewBox="0 0 84 84" fill="none" xmlns="http://www.w3.org/2000/svg">
<rect width="84" height="84" rx="4" fill="#CC0000"/>
<path d="M40.8064 38.6575C40.7586 38.4958 40.6598 38.354 40.5248 38.2531C40.3898 38.1522 40.2257 38.0977 40.0572 38.0977C39.8886 38.0977 39.7246 38.1522 39.5895 38.2531C39.4545 38.354 39.3557 38.4958 39.308 38.6575L37.0173 46.0091V46.0184L36.1267 48.8762C36.0958 48.9746 36.0847 49.0781 36.094 49.1808C36.1033 49.2835 36.1329 49.3834 36.1809 49.4746C36.229 49.5658 36.2947 49.6466 36.3741 49.7123C36.4536 49.778 36.5453 49.8274 36.6439 49.8575C36.7191 49.8816 36.7977 49.8937 36.8767 49.8934C37.0441 49.8938 37.2072 49.8404 37.3419 49.7411C37.4766 49.6418 37.5759 49.5019 37.6251 49.3419L38.3455 47.0309H41.7736L42.4939 49.3419C42.5247 49.4402 42.5745 49.5314 42.6406 49.6104C42.7066 49.6895 42.7876 49.7547 42.8788 49.8024C42.9701 49.8502 43.0699 49.8795 43.1725 49.8887C43.275 49.8978 43.3784 49.8867 43.4767 49.8559C43.575 49.8252 43.6663 49.7753 43.7453 49.7093C43.8243 49.6432 43.8896 49.5623 43.9373 49.471C43.985 49.3797 44.0143 49.28 44.0235 49.1774C44.0327 49.0748 44.0215 48.9714 43.9908 48.8731L40.8064 38.6575ZM38.8314 45.4622L40.0564 41.5294L41.2814 45.4622H38.8314Z" fill="white"/>
<path d="M47.1265 38.1055C46.9193 38.1055 46.7206 38.1878 46.574 38.3343C46.4275 38.4808 46.3452 38.6795 46.3452 38.8867V49.1055C46.3452 49.3127 46.4275 49.5114 46.574 49.6579C46.7206 49.8044 46.9193 49.8867 47.1265 49.8867C47.3337 49.8867 47.5324 49.8044 47.6789 49.6579C47.8254 49.5114 47.9077 49.3127 47.9077 49.1055V38.8898C47.9081 38.787 47.8882 38.6851 47.8491 38.5899C47.8101 38.4948 47.7526 38.4083 47.68 38.3354C47.6074 38.2625 47.5212 38.2047 47.4262 38.1652C47.3312 38.1258 47.2293 38.1055 47.1265 38.1055Z" fill="white"/>
<path d="M39.7482 28.8106C39.541 28.8106 39.3423 28.8929 39.1958 29.0394C39.0493 29.1859 38.967 29.3846 38.967 29.5918V33.2184H36.0279V29.5965C36.0279 29.3893 35.9456 29.1906 35.7991 29.0441C35.6526 28.8976 35.4539 28.8152 35.2467 28.8152C35.0395 28.8152 34.8408 28.8976 34.6943 29.0441C34.5477 29.1906 34.4654 29.3893 34.4654 29.5965V33.2184H33.8404C33.146 33.2204 32.4805 33.4971 31.9893 33.988C31.4981 34.4789 31.221 35.1442 31.2186 35.8387V36.4637H27.5967C27.3884 36.4637 27.1887 36.5464 27.0415 36.6936C26.8942 36.8409 26.8115 37.0406 26.8115 37.2488C26.8115 37.4571 26.8942 37.6568 27.0415 37.804C27.1887 37.9513 27.3884 38.034 27.5967 38.034H31.2186V40.9684H27.5967C27.3884 40.9684 27.1887 41.0511 27.0415 41.1983C26.8942 41.3456 26.8115 41.5453 26.8115 41.7535C26.8115 41.9618 26.8942 42.1615 27.0415 42.3087C27.1887 42.456 27.3884 42.5387 27.5967 42.5387H31.2186V45.4731H27.5967C27.3884 45.4731 27.1887 45.5558 27.0415 45.703C26.8942 45.8503 26.8115 46.05 26.8115 46.2582C26.8115 46.4664 26.8942 46.6662 27.0415 46.8134C27.1887 46.9606 27.3884 47.0434 27.5967 47.0434H31.2186V49.9777H27.5967C27.3895 49.9777 27.1908 50.0601 27.0443 50.2066C26.8977 50.3531 26.8154 50.5518 26.8154 50.759C26.8154 50.9662 26.8977 51.1649 27.0443 51.3114C27.1908 51.4579 27.3895 51.5402 27.5967 51.5402H31.2186V52.1652C31.2223 52.8586 31.4997 53.5225 31.9904 54.0123C32.4811 54.5022 33.1455 54.7784 33.8389 54.7809H34.4639V58.3965C34.4639 58.6037 34.5462 58.8024 34.6927 58.9489C34.8392 59.0954 35.0379 59.1777 35.2451 59.1777C35.4523 59.1777 35.651 59.0954 35.7975 58.9489C35.9441 58.8024 36.0264 58.6037 36.0264 58.3965V54.7809H38.9623V58.3965C38.9623 58.6037 39.0446 58.8024 39.1911 58.9489C39.3376 59.0954 39.5364 59.1777 39.7436 59.1777C39.9508 59.1777 40.1495 59.0954 40.296 58.9489C40.4425 58.8024 40.5248 58.6037 40.5248 58.3965V54.7809H43.4686V58.3965C43.4686 58.6037 43.5509 58.8024 43.6974 58.9489C43.8439 59.0954 44.0426 59.1777 44.2498 59.1777C44.457 59.1777 44.6557 59.0954 44.8022 58.9489C44.9487 58.8024 45.0311 58.6037 45.0311 58.3965V54.7809H47.967V58.3965C47.967 58.6037 48.0493 58.8024 48.1958 58.9489C48.3423 59.0954 48.541 59.1777 48.7482 59.1777C48.9554 59.1777 49.1542 59.0954 49.3007 58.9489C49.4472 58.8024 49.5295 58.6037 49.5295 58.3965V54.7809H50.1545C50.8498 54.78 51.5164 54.5039 52.0086 54.0129C52.5009 53.5218 52.7786 52.8558 52.7811 52.1606V51.5356H56.3967C56.6039 51.5356 56.8026 51.4532 56.9491 51.3067C57.0956 51.1602 57.1779 50.9615 57.1779 50.7543C57.1779 50.5471 57.0956 50.3484 56.9491 50.2019C56.8026 50.0554 56.6039 49.9731 56.3967 49.9731H52.7811V47.0371H56.3967C56.6049 47.0371 56.8046 46.9544 56.9519 46.8071C57.0991 46.6599 57.1818 46.4602 57.1818 46.252C57.1818 46.0437 57.0991 45.844 56.9519 45.6968C56.8046 45.5495 56.6049 45.4668 56.3967 45.4668H52.7811V42.5324H56.3967C56.6049 42.5324 56.8046 42.4497 56.9519 42.3025C57.0991 42.1552 57.1818 41.9555 57.1818 41.7473C57.1818 41.539 57.0991 41.3393 56.9519 41.1921C56.8046 41.0448 56.6049 40.9621 56.3967 40.9621H52.7811V38.0277H56.3967C56.6049 38.0277 56.8046 37.945 56.9519 37.7978C57.0991 37.6505 57.1818 37.4508 57.1818 37.2426C57.1818 37.0344 57.0991 36.8346 56.9519 36.6874C56.8046 36.5402 56.6049 36.4574 56.3967 36.4574H52.7811V35.8324C52.7769 35.1393 52.4994 34.4759 52.0087 33.9863C51.518 33.4968 50.8539 33.2208 50.1607 33.2184H49.5357V29.5965C49.5357 29.3893 49.4534 29.1906 49.3069 29.0441C49.1604 28.8976 48.9617 28.8152 48.7545 28.8152C48.5473 28.8152 48.3486 28.8976 48.2021 29.0441C48.0556 29.1906 47.9732 29.3893 47.9732 29.5965V33.2184H45.0373V29.5965C45.0373 29.3893 44.955 29.1906 44.8085 29.0441C44.662 28.8976 44.4633 28.8152 44.2561 28.8152C44.0489 28.8152 43.8501 28.8976 43.7036 29.0441C43.5571 29.1906 43.4748 29.3893 43.4748 29.5965V33.2184H40.5326V29.5965C40.5332 29.4932 40.5134 29.3909 40.4742 29.2954C40.435 29.1998 40.3773 29.113 40.3044 29.0399C40.2314 28.9668 40.1447 28.9089 40.0493 28.8696C39.9538 28.8302 39.8515 28.8101 39.7482 28.8106ZM51.217 35.8418V52.1606C51.217 52.4408 51.1058 52.7097 50.9077 52.908C50.7097 53.1063 50.441 53.218 50.1607 53.2184H33.8389C33.5586 53.218 33.2899 53.1063 33.0919 52.908C32.8939 52.7097 32.7826 52.4408 32.7826 52.1606V35.8387C32.7826 35.5584 32.8939 35.2896 33.0919 35.0912C33.2899 34.8929 33.5586 34.7813 33.8389 34.7809H50.1607C50.2997 34.7809 50.4372 34.8082 50.5655 34.8614C50.6939 34.9145 50.8105 34.9925 50.9087 35.0907C51.007 35.1889 51.0849 35.3055 51.138 35.4339C51.1912 35.5622 51.2186 35.6998 51.2186 35.8387L51.217 35.8418Z" fill="white"/>
<path d="M36.5311 64.125H28.5624C26.8927 64.1233 25.2919 63.4594 24.1111 62.279C22.9303 61.0985 22.266 59.4978 22.2639 57.8281V30.1719C22.266 28.5022 22.9303 26.9015 24.1111 25.721C25.2919 24.5406 26.8927 23.8767 28.5624 23.875H36.5311C36.7383 23.875 36.937 23.7927 37.0835 23.6462C37.2301 23.4997 37.3124 23.301 37.3124 23.0938C37.3124 22.8865 37.2301 22.6878 37.0835 22.5413C36.937 22.3948 36.7383 22.3125 36.5311 22.3125H28.5624C26.4766 22.315 24.477 23.1446 23.0022 24.6195C21.5273 26.0943 20.6977 28.0939 20.6952 30.1797V43.2188H14.3077L16.5764 40.95C16.6493 40.8772 16.7071 40.7907 16.7465 40.6955C16.7859 40.6003 16.8062 40.4983 16.8062 40.3953C16.8062 40.2923 16.7859 40.1903 16.7465 40.0951C16.7071 39.9999 16.6493 39.9135 16.5764 39.8406C16.5036 39.7678 16.4171 39.71 16.3219 39.6706C16.2268 39.6312 16.1248 39.6109 16.0217 39.6109C15.9187 39.6109 15.8167 39.6312 15.7216 39.6706C15.6264 39.71 15.5399 39.7678 15.4671 39.8406L11.8592 43.4453C11.8408 43.4634 11.8236 43.4828 11.8077 43.5031L11.7858 43.5312L11.7608 43.5641L11.7405 43.6L11.7217 43.6313C11.7217 43.6422 11.7108 43.6547 11.7046 43.6672L11.6889 43.7C11.6841 43.7117 11.6799 43.7237 11.6764 43.7359L11.6624 43.7734C11.6589 43.7852 11.6563 43.7972 11.6546 43.8094C11.65 43.8215 11.6468 43.8341 11.6452 43.8469C11.6452 43.8609 11.6452 43.875 11.6452 43.8891V43.9234C11.6404 43.9754 11.6404 44.0277 11.6452 44.0797V44.1141C11.6452 44.1281 11.6452 44.1422 11.6452 44.1547C11.6466 44.1681 11.6498 44.1812 11.6546 44.1937C11.6564 44.2059 11.659 44.2179 11.6624 44.2297L11.6764 44.2672C11.6799 44.2789 11.6841 44.2904 11.6889 44.3016C11.6889 44.3141 11.6999 44.325 11.7046 44.3359L11.7217 44.3719L11.7405 44.4031L11.7608 44.4375L11.7858 44.4703L11.8077 44.5C11.8236 44.5199 11.8408 44.5387 11.8592 44.5562L15.4671 48.1641C15.6142 48.3112 15.8137 48.3938 16.0217 48.3938C16.2298 48.3938 16.4293 48.3112 16.5764 48.1641C16.7235 48.017 16.8062 47.8174 16.8062 47.6094C16.8062 47.4013 16.7235 47.2018 16.5764 47.0547L14.3077 44.7812H20.6889V57.8281C20.6914 59.915 21.5219 61.9155 22.9981 63.3905C24.4743 64.8656 26.4755 65.6945 28.5624 65.6953H36.5311C36.7394 65.6953 36.9391 65.6126 37.0863 65.4653C37.2336 65.3181 37.3163 65.1184 37.3163 64.9102C37.3163 64.7019 37.2336 64.5022 37.0863 64.355C36.9391 64.2077 36.7394 64.125 36.5311 64.125Z" fill="white"/>
<path d="M62.9157 48C62.7085 48 62.5098 48.0823 62.3633 48.2288C62.2168 48.3753 62.1344 48.574 62.1344 48.7812V58.1094C62.1324 59.7788 61.4683 61.3792 60.2878 62.5597C59.1074 63.7401 57.507 64.4042 55.8376 64.4062H42.3891C42.1819 64.4062 41.9832 64.4886 41.8367 64.6351C41.6902 64.7816 41.6079 64.9803 41.6079 65.1875V72.3531L39.3391 70.0859C39.192 69.9388 38.9925 69.8562 38.7844 69.8562C38.5764 69.8562 38.3769 69.9388 38.2298 70.0859C38.0826 70.2331 38 70.4326 38 70.6406C38 70.8487 38.0826 71.0482 38.2298 71.1953L41.8376 74.8031L41.8954 74.8547L41.9251 74.8781L41.9563 74.9L41.9954 74.9234L42.0219 74.9391L42.0626 74.9594L42.0907 74.9719L42.1313 74.9875L42.1641 74.9984L42.2048 75.0094L42.2376 75.0172H42.2844H42.3141C42.366 75.0234 42.4185 75.0234 42.4704 75.0172H42.5001H42.5469L42.5798 75.0094L42.6204 74.9984L42.6516 74.9875L42.6938 74.9719L42.7219 74.9594L42.7626 74.9391L42.7891 74.9234L42.8282 74.9L42.8594 74.8781L42.8891 74.8547L42.9469 74.8031L46.5548 71.1953C46.7019 71.0482 46.7845 70.8487 46.7845 70.6406C46.7845 70.4326 46.7019 70.2331 46.5548 70.0859C46.4076 69.9388 46.2081 69.8562 46.0001 69.8562C45.792 69.8562 45.5925 69.9388 45.4454 70.0859L43.1704 72.3563V65.9766H55.8266C57.9121 65.9737 59.9113 65.1438 61.3858 63.669C62.8603 62.1942 63.6898 60.1949 63.6923 58.1094V48.7859C63.6929 48.6833 63.6733 48.5816 63.6346 48.4866C63.5959 48.3916 63.5389 48.3051 63.4667 48.2321C63.3946 48.1592 63.3089 48.1011 63.2143 48.0613C63.1198 48.0214 63.0183 48.0006 62.9157 48Z" fill="white"/>
<path d="M72.2142 44.4684L72.2392 44.4356L72.2595 44.4012L72.2783 44.3699L72.2955 44.334C72.2955 44.3231 72.3064 44.3121 72.3111 44.2996C72.3159 44.2884 72.3201 44.2769 72.3236 44.2652C72.3285 44.253 72.3326 44.2405 72.3361 44.2277C72.3406 44.2162 72.3438 44.2041 72.3455 44.1918C72.3503 44.1792 72.3534 44.1661 72.3549 44.1527C72.3549 44.1402 72.3549 44.1262 72.3627 44.1121V44.0777C72.3675 44.0258 72.3675 43.9735 72.3627 43.9215V43.8871C72.3627 43.873 72.3627 43.859 72.3549 43.8449C72.3525 43.8322 72.3493 43.8197 72.3455 43.8074C72.3431 43.7948 72.34 43.7822 72.3361 43.7699C72.3361 43.759 72.3361 43.7465 72.3236 43.734C72.3201 43.7218 72.316 43.7098 72.3111 43.698L72.2955 43.6652C72.2955 43.6527 72.2845 43.6402 72.2783 43.6293L72.2595 43.598C72.2595 43.5855 72.2455 43.5746 72.2392 43.5637C72.233 43.5527 72.222 43.5402 72.2142 43.5293L72.1924 43.5012C72.1764 43.4808 72.1592 43.4615 72.1408 43.4434L68.533 39.8355C68.3859 39.6884 68.1863 39.6058 67.9783 39.6058C67.7702 39.6058 67.5707 39.6884 67.4236 39.8355C67.2765 39.9827 67.1938 40.1822 67.1938 40.3902C67.1938 40.5983 67.2765 40.7978 67.4236 40.9449L69.6924 43.2184H63.3111V30.1715C63.3086 28.086 62.4792 26.0866 61.0047 24.6118C59.5302 23.137 57.531 22.3072 55.4455 22.3043H42.7814V15.9246L45.0502 18.1918C45.1228 18.265 45.2092 18.3231 45.3044 18.3628C45.3996 18.4025 45.5017 18.4229 45.6049 18.4229C45.708 18.4229 45.8101 18.4025 45.9053 18.3628C46.0005 18.3231 46.0869 18.265 46.1595 18.1918C46.2328 18.1192 46.2909 18.0328 46.3306 17.9376C46.3702 17.8424 46.3906 17.7402 46.3906 17.6371C46.3906 17.534 46.3702 17.4319 46.3306 17.3367C46.2909 17.2415 46.2328 17.1551 46.1595 17.0824L42.5549 13.4746L42.497 13.423L42.4689 13.4027L42.4361 13.3777L42.4017 13.3559L42.3705 13.3387L42.3345 13.3199L42.3002 13.3059C42.2886 13.3002 42.2766 13.2955 42.2642 13.2918L42.2283 13.2793L42.1924 13.2699L42.1533 13.2605H42.1111H42.0783C42.0264 13.2543 41.9739 13.2543 41.922 13.2605H41.8892H41.847L41.808 13.2699L41.772 13.2793L41.7361 13.2918C41.7238 13.2955 41.7118 13.3002 41.7002 13.3059L41.6658 13.3199L41.6299 13.3387L41.5986 13.3559L41.5642 13.3777L41.5314 13.4027L41.5033 13.423L41.4455 13.4746L37.8377 17.0824C37.7648 17.1553 37.707 17.2417 37.6676 17.3369C37.6282 17.4321 37.6079 17.5341 37.6079 17.6371C37.6079 17.7401 37.6282 17.8421 37.6676 17.9373C37.707 18.0325 37.7648 18.119 37.8377 18.1918C37.9105 18.2646 37.997 18.3224 38.0922 18.3618C38.1873 18.4013 38.2893 18.4216 38.3924 18.4216C38.4954 18.4216 38.5974 18.4013 38.6926 18.3618C38.7877 18.3224 38.8742 18.2646 38.947 18.1918L41.2189 15.9246V23.0902C41.2189 23.2974 41.3012 23.4962 41.4477 23.6427C41.5943 23.7892 41.793 23.8715 42.0002 23.8715H55.4455C57.1149 23.8736 58.7153 24.5376 59.8958 25.7181C61.0762 26.8985 61.7403 28.499 61.7424 30.1684V43.9996C61.7424 44.2068 61.8247 44.4055 61.9712 44.552C62.1177 44.6985 62.3164 44.7809 62.5236 44.7809H69.6892L67.4205 47.0496C67.2734 47.1967 67.1907 47.3963 67.1907 47.6043C67.1907 47.8123 67.2734 48.0119 67.4205 48.159C67.5676 48.3061 67.7671 48.3887 67.9752 48.3887C68.1832 48.3887 68.3827 48.3061 68.5299 48.159L72.1377 44.5512C72.1561 44.5336 72.1733 44.5148 72.1892 44.4949L72.2142 44.4684Z" fill="white"/>
</svg>
