<svg width="84" height="84" viewBox="0 0 84 84" fill="none" xmlns="http://www.w3.org/2000/svg">
<rect width="84" height="84" rx="4" fill="#CC0000"/>
<path d="M31.1039 37.6504V18.9633C31.1039 18.5176 30.7425 18.1562 30.2968 18.1562H27.6067C25.5469 18.1562 23.8711 19.8321 23.8711 21.8921V38.39C23.8711 40.4501 25.5469 42.1259 27.6067 42.1259H28.0693C28.515 42.1259 28.8763 41.7644 28.8763 41.3189C28.8763 40.8733 28.515 40.5118 28.0693 40.5118H27.6067C26.4369 40.5118 25.4852 39.5599 25.4852 38.39V21.8921C25.4852 20.7223 26.4369 19.7704 27.6067 19.7704H29.4898V37.6505C29.4898 38.0961 29.8511 38.4576 30.2968 38.4576C30.7425 38.4576 31.1039 38.0961 31.1039 37.6504Z" fill="white"/>
<path d="M33.6165 20.9959L48.0066 26.0914V29.6171C48.0066 30.0627 48.3679 30.4242 48.8135 30.4242C49.2593 30.4242 49.6207 30.0627 49.6207 29.6171V26.3283H51.807C52.5627 26.3283 53.1775 26.943 53.1775 27.6987V30.5395C53.1775 30.9852 53.5389 31.3466 53.9846 31.3466C54.4303 31.3466 54.7916 30.9851 54.7916 30.5395V27.6986C54.7916 26.0529 53.4527 24.7139 51.8069 24.7139H48.9518L34.1553 19.4745C33.7351 19.3252 33.2738 19.5455 33.1251 19.9659C32.9764 20.386 33.1964 20.8472 33.6165 20.9959Z" fill="white"/>
<path d="M46.1079 65.4703C37.9162 64.6437 31.7389 57.8024 31.7389 49.5568C31.7389 40.7371 38.9143 33.5616 47.7341 33.5616C56.5538 33.5616 63.7293 40.7371 63.7293 49.5568C63.7293 50.2315 63.687 50.9104 63.6031 51.575C63.5475 52.0173 63.861 52.4211 64.3032 52.4766C64.7455 52.5313 65.1492 52.219 65.2048 51.7767C65.2966 51.0453 65.3434 50.2986 65.3434 49.5567C65.3434 39.8468 57.4438 31.9473 47.734 31.9473C38.024 31.9473 30.1245 39.8468 30.1245 49.5567C30.1245 58.6344 36.9261 66.1661 45.9456 67.0764C45.9732 67.079 46.0005 67.0804 46.0276 67.0804C46.437 67.0804 46.7876 66.7702 46.8296 66.3544C46.8745 65.9108 46.5513 65.515 46.1079 65.4703Z" fill="white"/>
<path d="M58.3678 49.5567C58.3678 50.0023 58.729 50.3638 59.1747 50.3638C59.6205 50.3638 59.9817 50.0023 59.9817 49.5567C59.9817 42.803 54.4873 37.3086 47.7337 37.3086C40.9801 37.3086 35.4858 42.8031 35.4858 49.5567C35.4858 55.5155 39.7389 60.5884 45.5985 61.619C45.6458 61.6273 45.693 61.6314 45.7393 61.6314C46.1239 61.6314 46.4644 61.3556 46.5334 60.9638C46.6105 60.5247 46.3174 60.1064 45.8782 60.0291C40.7918 59.1346 37.1001 54.7301 37.1001 49.5566C37.1001 43.6931 41.8705 38.9227 47.7339 38.9227C53.5972 38.9227 58.3678 43.6932 58.3678 49.5567Z" fill="white"/>
<path d="M47.7341 44.3407C50.6103 44.3407 52.9501 46.6807 52.9501 49.5568C52.9501 50.0024 53.3114 50.3638 53.7571 50.3638C54.2029 50.3638 54.5641 50.0024 54.5641 49.5568C54.5641 45.7905 51.5002 42.7266 47.734 42.7266C43.9679 42.7266 40.9038 45.7905 40.9038 49.5568C40.9038 52.3552 42.5799 54.8413 45.1739 55.8905C45.2731 55.9308 45.3754 55.9496 45.4762 55.9496C45.7954 55.9496 46.0977 55.7591 46.2246 55.4451C46.3918 55.0319 46.1923 54.5614 45.7792 54.3944C43.798 53.5929 42.5179 51.6942 42.5179 49.5568C42.5182 46.6807 44.8581 44.3407 47.7341 44.3407Z" fill="white"/>
<path d="M65.8961 61.1725L62.297 54.6553C61.3875 53.0087 59.5253 52.0846 57.6645 52.3575L53.5255 52.9625L50.3129 48.4068C49.8982 47.8184 49.278 47.4322 48.5669 47.3201C47.8556 47.2079 47.1471 47.3839 46.5712 47.816C45.4816 48.6337 45.1954 50.1776 45.9208 51.3335L51.2647 59.7899C51.5026 60.1666 52.0013 60.2788 52.3781 60.0409C52.755 59.8026 52.8673 59.3042 52.6291 58.9273L47.2865 50.4732C47.0053 50.0249 47.1165 49.425 47.5398 49.1071C47.7636 48.9391 48.0388 48.8707 48.3151 48.9145C48.5914 48.9582 48.8324 49.1081 48.9936 49.3367L52.492 54.298C52.6675 54.5465 52.9676 54.6765 53.2684 54.6314L57.8981 53.9545C59.0986 53.7783 60.2976 54.3744 60.8838 55.4359L64.4829 61.953C64.8715 62.6565 64.6989 63.5325 64.0727 64.0363L60.5515 66.8671C59.9341 67.3634 59.0491 67.3504 58.4467 66.8361L55.6337 64.4347C54.9193 63.8248 53.975 63.5402 53.0394 63.6536C52.4113 63.7302 51.788 63.4595 51.414 62.9479C51.142 62.5756 51.0286 62.1192 51.0948 61.6628L51.1415 61.3407C51.2055 60.8995 50.8999 60.4899 50.4587 60.426C50.0186 60.3629 49.6082 60.6675 49.5441 61.1086L49.4972 61.4307C49.37 62.3077 49.5878 63.1848 50.1108 63.9003C50.8289 64.8829 52.0249 65.4026 53.2373 65.2556C53.7223 65.1961 54.2139 65.3449 54.5855 65.6623L57.3987 68.0637C58.0075 68.5834 58.7622 68.8444 59.518 68.8444C60.2413 68.8442 60.9655 68.605 61.5627 68.1249L65.0839 65.294C66.3231 64.2977 66.6648 62.5644 65.8961 61.1725Z" fill="white"/>
<path d="M20.6105 29.334H17.5019C17.0562 29.334 16.6948 29.6955 16.6948 30.141C16.6948 30.5866 17.0562 30.9481 17.5019 30.9481H20.6105C21.0563 30.9481 21.4176 30.5867 21.4176 30.141C21.4176 29.6953 21.0563 29.334 20.6105 29.334Z" fill="white"/>
<path d="M20.2661 39.1182L17.3245 40.1239C16.9028 40.268 16.6778 40.727 16.8219 41.1485C16.9366 41.4838 17.2499 41.6948 17.5856 41.6948C17.6722 41.6948 17.7603 41.6808 17.8467 41.6512L20.7883 40.6455C21.2101 40.5013 21.435 40.0424 21.2908 39.6209C21.1466 39.199 20.6875 38.973 20.2661 39.1182Z" fill="white"/>
<path d="M17.3245 20.157L20.2661 21.1626C20.3527 21.1924 20.4406 21.2064 20.5273 21.2064C20.8628 21.2064 21.1762 20.9954 21.2908 20.6601C21.435 20.2386 21.2101 19.7795 20.7883 19.6355L17.8467 18.6298C17.4252 18.4849 16.9663 18.7106 16.8219 19.1324C16.6778 19.5539 16.9028 20.0128 17.3245 20.157Z" fill="white"/>
</svg>
