<svg width="42" height="18" viewBox="0 0 42 18" fill="none" xmlns="http://www.w3.org/2000/svg">
<g clip-path="url(#clip0_378_415)">
<path d="M10.1008 14.523L10.2156 14.4598L18.7742 9.67852C19.0641 9.5168 19.2445 9.27422 19.2445 9.00352C19.2445 8.73281 19.0586 8.49023 18.7742 8.32852L10.232 3.55078L10.0898 3.46992C9.95312 3.41016 9.78906 3.375 9.61406 3.375C9.13828 3.375 8.75 3.63516 8.75 3.9586L8.75 14.0414C8.75 14.3648 9.13828 14.625 9.61406 14.625C9.79453 14.625 9.96406 14.5863 10.1008 14.523Z" fill="#CC0000"/>
</g>
<g clip-path="url(#clip1_378_415)">
<path d="M24.1008 14.523L24.2156 14.4598L32.7742 9.67852C33.0641 9.5168 33.2445 9.27422 33.2445 9.00352C33.2445 8.73281 33.0586 8.49023 32.7742 8.32852L24.232 3.55078L24.0898 3.46992C23.9531 3.41016 23.7891 3.375 23.6141 3.375C23.1383 3.375 22.75 3.63516 22.75 3.9586L22.75 14.0414C22.75 14.3648 23.1383 14.625 23.6141 14.625C23.7945 14.625 23.9641 14.5863 24.1008 14.523Z" fill="#CC0000"/>
</g>
<defs>
<clipPath id="clip0_378_415">
<rect width="18" height="28" fill="white" transform="translate(0 18) rotate(-90)"/>
</clipPath>
<clipPath id="clip1_378_415">
<rect width="18" height="28" fill="white" transform="translate(14 18) rotate(-90)"/>
</clipPath>
</defs>
</svg>
