<svg width="84" height="84" viewBox="0 0 84 84" fill="none" xmlns="http://www.w3.org/2000/svg">
<rect width="84" height="84" rx="4" fill="#CC0000"/>
<path d="M41.4077 12.543C24.9289 12.543 11.522 25.9492 11.522 42.4287C11.522 58.9081 24.9282 72.3144 41.4077 72.3144C57.8871 72.3144 71.2934 58.9081 71.2934 42.4287C71.2934 25.9492 57.8865 12.543 41.4077 12.543ZM41.4077 71.0137C25.6452 71.0137 12.822 58.1905 12.822 42.428C12.822 26.6655 25.6458 13.843 41.4077 13.843C57.1695 13.843 69.9934 26.6662 69.9934 42.4287C69.9934 58.1912 57.1702 71.0137 41.4077 71.0137Z" fill="white"/>
<path d="M54.9868 49.4925C55.354 47.1141 54.5812 44.728 52.8554 43.0009L52.6799 42.8248C52.5909 42.8683 52.496 42.8982 52.3952 42.8982C52.2223 42.8982 52.0572 42.83 51.935 42.7078L48.8573 39.6268C48.6545 39.424 48.6213 39.123 48.7435 38.8793L46.319 36.4489C46.2092 36.3384 46.0616 36.2793 45.9069 36.2676L42.1395 40.0376C42.1512 40.1858 42.2058 40.332 42.3189 40.4451L44.837 42.9691C44.8533 42.9678 44.8689 42.9593 44.8851 42.9593C45.058 42.9593 45.2238 43.0276 45.3453 43.1504L48.4205 46.2327C48.5596 46.3725 48.6148 46.559 48.6005 46.7417L48.8579 46.9991C49.6028 47.7446 49.6054 48.9562 48.8625 49.6992C48.1423 50.4194 46.8845 50.4194 46.1637 49.6985C46.1136 49.6485 46.0525 49.616 45.9901 49.5867L42.0557 53.5303C42.0856 53.5894 42.1174 53.6486 42.1668 53.698C43.5942 55.128 45.4935 55.9151 47.515 55.9151C48.0487 55.9151 48.5784 55.8592 49.0978 55.7487C49.7725 57.6402 51.586 58.9532 53.6419 58.9532C56.2998 58.9532 58.4623 56.7881 58.4623 54.1276C58.4617 51.967 57.0089 50.0827 54.9868 49.4925ZM53.6419 57.6545C51.9708 57.6545 50.5187 56.4676 50.1891 54.8329C50.1527 54.6528 50.0416 54.4968 49.8843 54.4026C49.7829 54.3421 49.6678 54.3109 49.5521 54.3109C49.4878 54.3109 49.4234 54.3207 49.361 54.3395C48.7643 54.5235 48.1429 54.6164 47.5163 54.6164C46.061 54.6164 44.6823 54.1237 43.5702 53.217L45.7509 51.033C46.2696 51.3755 46.878 51.5601 47.5144 51.5601C48.3717 51.5601 49.1777 51.226 49.7829 50.6196C51.0315 49.3696 51.0289 47.3338 49.7783 46.0826L43.6989 39.9882L45.8588 37.8289L51.9357 43.9207C53.497 45.4826 54.1164 47.6952 53.5945 49.8389C53.5509 50.017 53.5847 50.2055 53.6881 50.3576C53.7914 50.5097 53.9539 50.6111 54.1359 50.6365C55.861 50.8789 57.1623 52.3798 57.1623 54.1289C57.1617 56.0724 55.5828 57.6545 53.6419 57.6545Z" fill="white"/>
<path d="M32.1063 42.9957L35.1827 46.0773C35.3855 46.2808 35.4187 46.5811 35.2965 46.8242L37.7346 49.263C37.8445 49.3728 37.9914 49.4313 38.1454 49.4437L41.9102 45.6711C41.8985 45.5222 41.8433 45.3753 41.7295 45.2616L39.2036 42.7344C39.0197 42.7467 38.8325 42.6928 38.6992 42.5595L35.6208 39.4785C35.4811 39.3388 35.4258 39.1522 35.4401 38.9689L35.1827 38.7115C34.8233 38.3521 34.6257 37.8724 34.6257 37.3608C34.6257 36.848 34.8259 36.367 35.1886 36.0043C35.9088 35.2828 37.1659 35.2821 37.8874 36.0036C37.9374 36.0536 37.9979 36.0881 38.0603 36.1193L41.9999 32.1777C41.9694 32.116 41.9356 32.0549 41.8842 32.0029C40.4562 30.5735 38.5575 29.7864 36.5393 29.7864C36.1733 29.7864 35.8074 29.813 35.4453 29.8657C34.8337 27.863 32.9909 26.4694 30.8401 26.4688C28.1816 26.4688 26.019 28.6345 26.019 31.2956C26.019 33.3418 27.2709 35.1164 29.1345 35.8151C28.6158 38.3046 29.3743 40.8981 31.1885 42.7142L31.3588 42.8845C31.6006 42.7688 31.9119 42.8007 32.1063 42.9957ZM30.5378 35.5584C30.5898 35.3861 30.5671 35.1996 30.4761 35.0442C30.3851 34.8889 30.2343 34.7777 30.0588 34.7381C28.4448 34.3721 27.3171 32.9564 27.3171 31.2956C27.3171 29.3508 28.8966 27.7688 30.8381 27.7688C32.5743 27.7694 34.0348 29.0122 34.3117 30.7236C34.3403 30.9017 34.4424 31.0597 34.5919 31.1598C34.7414 31.2599 34.9253 31.2924 35.1021 31.2528C35.5721 31.1423 36.055 31.0864 36.538 31.0864C37.9907 31.0864 39.3687 31.5791 40.4809 32.4858L38.2995 34.6705C37.7808 34.3279 37.173 34.1439 36.5373 34.1439C35.68 34.1439 34.8733 34.4787 34.2682 35.0852C33.6604 35.6923 33.3257 36.5002 33.325 37.3595C33.3244 38.2188 33.6572 39.0248 34.263 39.63L40.3509 45.7205L38.1935 47.883L32.1063 41.7945C30.4774 40.1649 29.8761 37.7749 30.5378 35.5584Z" fill="white"/>
<path d="M35.6209 38.5587C35.5071 38.6725 35.4519 38.8194 35.4402 38.9683C35.4259 39.1509 35.4811 39.3374 35.6209 39.4778L38.6993 42.5588C38.8325 42.6914 39.0197 42.7454 39.2037 42.7337C39.3571 42.7239 39.5085 42.67 39.619 42.5588L42.1397 40.0368L45.9071 36.2668L46.1632 36.0107C46.888 35.286 48.1399 35.2853 48.8588 36.0049C49.6037 36.7498 49.603 37.9627 48.8581 38.7076C48.8074 38.7583 48.7749 38.8181 48.7444 38.8792C48.6222 39.1229 48.6547 39.4232 48.8581 39.6267L51.9359 42.7077C52.0581 42.8299 52.2232 42.8981 52.3961 42.8981C52.4968 42.8981 52.5917 42.8689 52.6808 42.8247C52.7438 42.7935 52.8056 42.7577 52.8563 42.707C54.634 40.9254 55.401 38.3839 54.9382 35.936C56.9675 35.3517 58.4235 33.4686 58.4235 31.2957C58.4235 28.6339 56.2603 26.4688 53.6025 26.4688C51.449 26.4688 49.5718 27.915 48.9764 29.9307C48.498 29.8371 48.0105 29.7896 47.5198 29.7896C45.4996 29.7896 43.599 30.5781 42.1683 32.0093L42 32.1777L38.0603 36.1193L35.6209 38.5587ZM43.0868 32.9278C44.2717 31.7415 45.8454 31.0889 47.5185 31.0889C48.1178 31.0889 48.7119 31.1741 49.2852 31.3424C49.4652 31.3964 49.6622 31.3678 49.8214 31.2644C49.9807 31.1611 50.0866 30.9947 50.1126 30.8075C50.3518 29.0746 51.8514 27.7681 53.6012 27.7681C55.5427 27.7681 57.1222 29.3502 57.1222 31.295C57.1222 33.0604 55.8086 34.5638 54.0672 34.792C53.8794 34.8167 53.7123 34.922 53.6083 35.0799C53.5043 35.2379 53.4744 35.4335 53.5271 35.6155C54.0945 37.5993 53.6506 39.7222 52.3714 41.3037L50.19 39.1203C51.009 37.8749 50.8718 36.1804 49.7785 35.0858C49.174 34.4806 48.3706 34.1479 47.5165 34.1479C46.6598 34.1479 45.8532 34.4826 45.2441 35.091L39.1595 41.1802L36.9995 39.0189L43.0868 32.9278Z" fill="white"/>
<path d="M48.4207 47.1496C48.5345 47.0359 48.5891 46.8896 48.6008 46.7408C48.6151 46.5581 48.5605 46.3716 48.4207 46.2318L45.3456 43.1502C45.2234 43.028 45.0583 42.9591 44.8854 42.9591C44.8691 42.9591 44.8535 42.9675 44.8373 42.9688C44.6832 42.9805 44.5357 43.0397 44.4252 43.1502L41.9103 45.6702L38.1455 49.4428L37.8862 49.7028C37.1673 50.4237 35.9069 50.423 35.1841 49.6989C34.4392 48.9534 34.4392 47.7398 35.1835 46.9949C35.2342 46.9442 35.2667 46.8844 35.2966 46.8233C35.4188 46.5802 35.3856 46.2799 35.1828 46.0765L32.1064 42.9948C31.912 42.7998 31.6007 42.7673 31.3576 42.8843C31.2965 42.9136 31.236 42.9461 31.1866 42.9948C29.4557 44.7284 28.6757 47.2179 29.078 49.6151C27.2242 50.3177 25.9775 52.0929 25.9775 54.1274C25.9775 56.7885 28.1407 58.953 30.7992 58.953C32.8461 58.9523 34.6232 57.6913 35.3174 55.8187C35.721 55.8843 36.1299 55.9175 36.5394 55.9175C38.5602 55.9175 40.4582 55.131 41.8837 53.7023L42.0553 53.53L45.9897 49.5865L48.4207 47.1496ZM40.9639 52.7845C39.7848 53.9662 38.2138 54.6175 36.54 54.6175C36.0285 54.6175 35.5182 54.5551 35.0236 54.4322C34.8546 54.3913 34.6752 54.4186 34.527 54.5096C34.3781 54.6012 34.2728 54.7481 34.2338 54.9178C33.8646 56.5272 32.4522 57.6517 30.7999 57.653C28.8583 57.653 27.2782 56.0709 27.2782 54.1274C27.2782 52.4829 28.3916 51.0711 29.9861 50.6941C30.1557 50.6538 30.302 50.5472 30.3923 50.3983C30.4827 50.2495 30.5093 50.0701 30.4664 49.9011C29.9776 47.9777 30.4391 45.925 31.6715 44.3982L33.8516 46.5822C33.0339 47.8276 33.1717 49.5221 34.2644 50.6174C34.8721 51.2258 35.6794 51.5612 36.5394 51.5612C37.3974 51.5612 38.2027 51.2271 38.8072 50.6213L44.886 44.5295L47.0427 46.6914L40.9639 52.7845Z" fill="white"/>
</svg>
