<svg width="84" height="84" viewBox="0 0 84 84" fill="none" xmlns="http://www.w3.org/2000/svg">
<rect width="84" height="84" rx="4" fill="#CC0000"/>
<g clip-path="url(#clip0_627_28)">
<path d="M69.0017 42.5C68.9983 27.8654 57.1379 16.0033 42.5 16C27.8654 16.0033 16.0033 27.8654 16 42.5C16.0033 57.1379 27.8654 69 42.5 69.0017C44.7856 69.0017 46.9917 68.6787 49.1035 68.1272C50.667 68.682 52.3398 69 54.0938 69C62.327 69 68.9983 62.3286 68.9983 54.0954C68.9983 52.3431 68.682 50.6703 68.1272 49.1084C68.6787 46.9951 69.0017 44.7889 69.0017 42.5ZM42.5 65.6858C29.6939 65.6643 19.3373 55.3078 19.3125 42.5C19.3373 29.6939 29.6939 19.3373 42.5 19.3125C55.3078 19.3373 65.6643 29.6939 65.6858 42.5C65.6842 43.2072 65.6428 43.9045 65.5782 44.5935C62.8454 41.2926 58.7147 39.1892 54.0938 39.1892C53.3501 39.1892 52.6247 39.262 51.9108 39.3664C50.5974 35.4162 46.8907 32.5642 42.5 32.5642C37.0112 32.5642 32.5642 37.0112 32.5642 42.5C32.5642 46.8891 35.4162 50.5974 39.3647 51.9108C39.2604 52.6247 39.1875 53.3517 39.1875 54.0954C39.1875 58.7163 41.2909 62.8437 44.5902 65.5782C43.9012 65.6428 43.2056 65.6842 42.5 65.6858ZM45.7231 41.7613C45.3852 40.2889 44.0734 39.1892 42.5017 39.1892C40.6732 39.1892 39.1892 40.6732 39.1892 42.5017C39.1892 44.0734 40.2889 45.3852 41.7597 45.7231C41.1402 46.634 40.6318 47.6211 40.2243 48.6596C37.6969 47.7288 35.8816 45.3487 35.8767 42.4983C35.8833 38.8397 38.8413 35.8816 42.5 35.875C45.3521 35.88 47.7321 37.6952 48.6612 40.2227C47.6211 40.6317 46.634 41.1419 45.7231 41.7613ZM54.0938 65.6875C47.6923 65.6742 42.5099 60.4952 42.5 54.0954C42.5099 47.694 47.6923 42.5116 54.0938 42.5017C60.4935 42.5116 65.6726 47.694 65.6858 54.0954C65.6726 60.4952 60.4935 65.6742 54.0938 65.6875Z" fill="white"/>
<path d="M59.301 52.4426C59.3142 52.2256 59.3242 52.0004 59.3242 51.7652C59.3143 50.6423 59.1784 49.2941 58.4033 48.0237C57.6464 46.7335 56.0216 45.7712 54.0938 45.816C52.1642 45.7712 50.5361 46.7335 49.7792 48.0237C49.0008 49.2941 48.865 50.6423 48.8583 51.7652C48.8583 52.002 48.8683 52.2256 48.8815 52.4426H47.4688V60.7239H60.7188V52.4426H59.301ZM52.1675 51.7652C52.1609 50.9735 52.3216 50.1785 52.5882 49.781C52.8747 49.405 53.0354 49.1748 54.0938 49.1285C55.1488 49.1732 55.3028 49.4017 55.591 49.781C55.8593 50.1785 56.02 50.9785 56.01 51.7652C56.01 52.0054 55.9968 52.2289 55.9786 52.4426H52.199C52.1824 52.2256 52.1675 51.9987 52.1675 51.7652Z" fill="white"/>
</g>
<defs>
<clipPath id="clip0_627_28">
<rect width="53" height="53" fill="white" transform="translate(16 16)"/>
</clipPath>
</defs>
</svg>
