<svg width="84" height="84" viewBox="0 0 84 84" fill="none" xmlns="http://www.w3.org/2000/svg">
<rect width="84" height="84" rx="4" fill="#CC0000"/>
<path d="M29.0264 33.0666V52.5537C29.0264 55.9228 34.2 58.5656 40.8062 58.5656C47.4124 58.5656 52.5847 55.9242 52.5847 52.5537V33.0666C52.5847 29.6974 47.4111 27.0547 40.8062 27.0547C34.2014 27.0547 29.0264 29.6974 29.0264 33.0666ZM30.56 42.5622C32.5667 44.3748 36.3549 45.5742 40.8022 45.5742C45.2495 45.5742 49.0404 44.3748 51.0444 42.5622V46.058C51.0444 48.1765 46.837 50.5376 40.8022 50.5376C34.7674 50.5376 30.56 48.1765 30.56 46.058V42.5622ZM40.8022 44.0446C34.7633 44.0446 30.56 41.6835 30.56 39.565V36.0678C32.5667 37.8804 36.3549 39.0812 40.8022 39.0812C45.2495 39.0812 49.0404 37.8804 51.0444 36.0678V39.5636C51.0511 41.6821 46.8437 44.0432 40.8062 44.0432L40.8022 44.0446ZM40.8022 57.036C34.7633 57.036 30.56 54.6749 30.56 52.5564V49.0592C32.5667 50.8718 36.3549 52.0712 40.8022 52.0712C45.2495 52.0712 49.0404 50.8718 51.0444 49.0592V52.555C51.0511 54.6736 46.8437 57.0346 40.8062 57.0346L40.8022 57.036ZM40.8022 28.5897C46.8397 28.5897 51.0444 30.9508 51.0444 33.0693C51.0444 35.1878 46.837 37.5489 40.8022 37.5489C34.7674 37.5489 30.56 35.1878 30.56 33.0693C30.56 30.9508 34.7674 28.5883 40.8062 28.5883L40.8022 28.5897Z" fill="white"/>
<path d="M57.1344 61.7042C52.9026 65.3105 47.5882 67.4014 42.0336 67.6455C36.4789 67.8896 31.0017 66.273 26.4698 63.0518H32.9682C33.1716 63.0518 33.3666 62.971 33.5104 62.8272C33.6542 62.6834 33.735 62.4884 33.735 62.285C33.735 62.0817 33.6542 61.8866 33.5104 61.7428C33.3666 61.599 33.1716 61.5182 32.9682 61.5182H24.2341C24.2236 61.5198 24.2132 61.5221 24.2031 61.5249C24.1513 61.5293 24.1001 61.5397 24.0508 61.5559C24.0046 61.5635 23.9594 61.5762 23.916 61.5937C23.8768 61.6146 23.8397 61.6394 23.8055 61.6678C23.7565 61.6957 23.7112 61.7297 23.6707 61.7689C23.6707 61.7756 23.6532 61.7797 23.6465 61.7877C23.6263 61.8181 23.6088 61.8501 23.5939 61.8834C23.5639 61.9257 23.5381 61.9708 23.5171 62.0182C23.5009 62.0704 23.4901 62.1241 23.4848 62.1786C23.4753 62.2121 23.4685 62.2464 23.4645 62.281V71.0138C23.4602 71.1171 23.4768 71.2202 23.5134 71.317C23.5499 71.4137 23.6056 71.502 23.6772 71.5767C23.7488 71.6513 23.8347 71.7107 23.9298 71.7513C24.0249 71.7918 24.1273 71.8127 24.2307 71.8127C24.3341 71.8127 24.4364 71.7918 24.5315 71.7513C24.6267 71.7107 24.7126 71.6513 24.7842 71.5767C24.8557 71.502 24.9115 71.4137 24.948 71.317C24.9846 71.2202 25.0012 71.1171 24.9968 71.0138V63.8537C29.8043 67.4882 35.7088 69.3722 41.7329 69.1938C47.757 69.0154 53.5396 66.7853 58.1236 62.8726C58.2017 62.8078 58.2661 62.7282 58.3132 62.6383C58.3603 62.5484 58.3891 62.4501 58.3979 62.349C58.4067 62.2479 58.3953 62.146 58.3645 62.0494C58.3336 61.9527 58.2839 61.8631 58.2182 61.7858C58.1525 61.7085 58.0721 61.645 57.9816 61.599C57.8912 61.553 57.7925 61.5254 57.6913 61.5178C57.5901 61.5102 57.4884 61.5227 57.3921 61.5547C57.2958 61.5867 57.2069 61.6375 57.1303 61.7042H57.1344Z" fill="white"/>
<path d="M30.4671 19.9178L27.2327 25.5267C27.1311 25.7027 27.1035 25.9119 27.1561 26.1083C27.2087 26.3046 27.337 26.4721 27.513 26.5738C27.6292 26.6414 27.7613 26.6767 27.8957 26.6762C28.0303 26.6765 28.1626 26.6413 28.2793 26.5741C28.3959 26.5069 28.4928 26.4101 28.5601 26.2935L32.9265 18.7305C32.9265 18.7224 32.9265 18.7143 32.9346 18.7062C32.9605 18.6522 32.9795 18.5951 32.9912 18.5364C33.0047 18.4982 33.015 18.459 33.0222 18.4192C33.0231 18.374 33.02 18.3289 33.0128 18.2844C33.0102 18.228 33.0021 18.1721 32.9885 18.1173C32.9885 18.1092 32.9885 18.0998 32.9885 18.0917C32.9744 18.0647 32.9586 18.0386 32.9413 18.0135C32.9168 17.9571 32.8851 17.9041 32.847 17.8558C32.8169 17.8246 32.7845 17.7958 32.75 17.7696C32.719 17.7379 32.6857 17.7086 32.6503 17.682L25.0805 13.3156C24.9043 13.2139 24.6949 13.1864 24.4984 13.2391C24.3019 13.2918 24.1344 13.4204 24.0327 13.5966C23.931 13.7728 23.9035 13.9822 23.9562 14.1787C24.0088 14.3752 24.1374 14.5427 24.3137 14.6444L30.5129 18.2264C20.7936 22.3786 14.3599 31.9887 14.3599 42.6352C14.3651 44.2357 14.5153 45.8325 14.8086 47.4059C14.8413 47.5823 14.9346 47.7418 15.0724 47.8567C15.2102 47.9716 15.3839 48.0348 15.5633 48.0353C15.6085 48.0351 15.6536 48.031 15.6981 48.0231C15.7972 48.0053 15.8917 47.968 15.9764 47.9136C16.0611 47.8591 16.1341 47.7885 16.1915 47.7058C16.2488 47.623 16.2893 47.5298 16.3105 47.4314C16.3318 47.333 16.3334 47.2313 16.3153 47.1323C16.0391 45.6491 15.8979 44.1439 15.8935 42.6352C15.8935 32.8377 21.6696 23.9742 30.4671 19.9178Z" fill="white"/>
<path d="M74.538 42.5154C74.488 42.4279 74.4212 42.3511 74.3413 42.2896C74.2615 42.228 74.1703 42.1829 74.0729 42.1569C73.9755 42.1308 73.874 42.1243 73.7741 42.1377C73.6742 42.1512 73.5779 42.1842 73.4909 42.2351L67.2755 45.8212C67.4192 44.7651 67.4966 43.7011 67.5073 42.6353C67.5073 31.4498 60.4173 21.4044 49.8638 17.6323C49.7671 17.5879 49.6622 17.5642 49.5558 17.5626C49.4494 17.561 49.3439 17.5815 49.2459 17.6229C49.1479 17.6643 49.0596 17.7256 48.9865 17.803C48.9135 17.8803 48.8574 17.972 48.8217 18.0723C48.786 18.1725 48.7716 18.2791 48.7794 18.3852C48.7871 18.4913 48.8169 18.5946 48.8667 18.6886C48.9166 18.7826 48.9854 18.8651 49.0689 18.9311C49.1524 18.997 49.2487 19.0449 49.3517 19.0716C59.292 22.6267 65.9736 32.094 65.9736 42.6353C65.9736 43.3927 65.9305 44.1609 65.8524 44.9439L62.6072 39.3228C62.5025 39.1529 62.3356 39.0305 62.1421 38.9817C61.9486 38.9329 61.7437 38.9614 61.5709 39.0612C61.3981 39.161 61.271 39.3243 61.2166 39.5163C61.1623 39.7084 61.1849 39.914 61.2798 40.0896L65.6462 47.6513V47.6581C65.7117 47.7693 65.8044 47.8621 65.9157 47.9276C65.9319 47.937 65.9507 47.9397 65.9669 47.9478C66.0269 47.983 66.0919 48.0089 66.1596 48.0246C66.2041 48.0325 66.2492 48.0366 66.2944 48.0367C66.4287 48.0364 66.5606 48.0011 66.6771 47.9343L74.2402 43.5679C74.3295 43.519 74.4082 43.4528 74.4716 43.3732C74.5351 43.2936 74.582 43.2021 74.6098 43.1041C74.6375 43.0061 74.6454 42.9036 74.6331 42.8025C74.6208 42.7015 74.5885 42.6038 74.538 42.5154Z" fill="white"/>
</svg>
