<svg width="84" height="84" viewBox="0 0 84 84" fill="none" xmlns="http://www.w3.org/2000/svg">
<rect width="84" height="84" rx="4" fill="#CC0000"/>
<g clip-path="url(#clip0_607_57)">
<path d="M35.9772 23.2879L35.9772 23.2879C36.4795 22.7857 36.8574 22.1689 37.0863 21.4987L37.1672 21.2618H37.4175H48.5904H48.9404V21.6118V24.3306V24.7801L48.5046 24.6699C47.878 24.5115 47.2402 24.3843 46.5928 24.29L46.5925 24.2899C46.2296 24.2368 45.8631 24.3443 45.5858 24.584L35.9772 23.2879ZM35.9772 23.2879C35.0985 24.1666 33.9319 24.6499 32.6888 24.6499H24.0005C22.7576 24.6499 21.5909 24.1666 20.7121 23.2878L20.712 23.2878C19.847 22.4229 19.35 21.2235 19.35 20.0005C19.35 18.7593 19.8328 17.5928 20.7111 16.7129C21.593 15.8328 22.7594 15.35 24.0005 15.35H32.6888C33.93 15.35 35.0963 15.8328 35.9762 16.711C36.4892 17.2248 36.8656 17.836 37.0914 18.5016L37.172 18.7392H37.4228H50.2018C50.8984 18.7392 51.4631 19.3038 51.4631 20.0005V25.4624V25.6873L51.6677 25.7807C53.685 26.702 55.5341 27.985 57.1462 29.5971L57.3937 29.3496M35.9772 23.2879L57.3937 29.3496M57.3937 29.3496L57.1462 29.5971C60.0333 32.4841 61.8675 36.1322 62.4531 40.1492C62.506 40.5117 62.3986 40.8792 62.1591 41.1562C61.9194 41.4333 61.5712 41.5925 61.205 41.5925H46.4108C45.7142 41.5925 45.1495 41.0278 45.1495 40.3312V25.538C45.1495 25.1718 45.3088 24.8236 45.5857 24.584L57.3937 29.3496ZM22.4957 21.504L22.4958 21.504C22.8973 21.9054 23.4327 22.1272 24.0005 22.1272H32.6888C33.2566 22.1272 33.7921 21.9054 34.1935 21.5041L34.1935 21.5041C34.5895 21.1081 34.8155 20.5612 34.8155 20.0005C34.8155 19.4326 34.5939 18.8969 34.1928 18.4951L34.1924 18.4947C33.7917 18.0947 33.256 17.8727 32.6888 17.8727H24.0005C23.433 17.8727 22.8974 18.0949 22.4951 18.4965L22.4946 18.4969C22.0948 18.8975 21.8727 19.4333 21.8727 20.0005C21.8727 20.5608 22.0994 21.1076 22.4957 21.504ZM59.227 39.0698H59.6848L59.5648 38.628C58.0586 33.0861 53.6563 28.6841 48.1139 27.1782L47.6722 27.0581V27.5159V38.7198V39.0698H48.0222H59.227Z" fill="white" stroke="#CC0000" stroke-width="0.7"/>
<path d="M50.0045 63.496L50.0044 63.4961C49.603 63.8975 49.3815 64.433 49.3815 65.0007C49.3815 65.568 49.6026 66.1027 50.0033 66.5031C50.4055 66.906 50.9404 67.1275 51.5082 67.1275H60.1975C60.7581 67.1275 61.3047 66.9013 61.7002 66.5052C62.1029 66.103 62.3242 65.5683 62.3242 65.0007C62.3242 64.433 62.1025 63.8975 61.7012 63.4961L61.7011 63.4961C61.3047 63.0996 60.7578 62.8729 60.1975 62.8729H51.5082C50.9409 62.8729 50.4058 63.0948 50.0045 63.496ZM34.0411 31.2303V30.7625L33.5923 30.8945C27.7683 32.6076 23.5797 38.0472 23.5797 44.2618C23.5797 51.9422 29.8275 58.19 37.5079 58.19C43.7232 58.19 49.1632 54.0021 50.8763 48.1784L51.0083 47.7296H50.5406H45.8441H45.62L45.5262 47.9331C44.9154 49.2578 43.9739 50.4325 42.8036 51.3129C41.2655 52.4702 39.4354 53.0814 37.5079 53.0814C32.6457 53.0814 28.6894 49.1247 28.6894 44.2618C28.6894 42.3345 29.3004 40.5047 30.4572 38.9668C31.3379 37.7962 32.5127 36.8547 33.8376 36.2441L34.0411 36.1503V35.9262V31.2303ZM46.774 63.7394H47.0249L47.1055 63.5018C47.3314 62.8359 47.708 62.225 48.2208 61.7123C49.0996 60.8334 50.2659 60.3502 51.5082 60.3502H60.1975C61.4203 60.3502 62.6198 60.8472 63.4849 61.7123C64.3637 62.5911 64.8469 63.7577 64.8469 65.0007C64.8469 66.2444 64.3634 67.411 63.4841 68.2888L63.4837 68.2892C62.6216 69.1527 61.422 69.6501 60.1975 69.6501H51.5082C50.2643 69.6501 49.0978 69.1665 48.22 68.2873L48.2196 68.2869C47.7077 67.7757 47.3312 67.1656 47.1054 66.4996L47.0248 66.262H46.7739H36.3574C35.6608 66.262 35.0961 65.6973 35.0961 65.0007V60.8343V60.5377L34.8035 60.4891C27.0148 59.1953 21.057 52.4111 21.057 44.2618C21.057 40.2883 22.4955 36.451 25.1074 33.4568L25.1074 33.4568C27.6937 30.4917 31.2501 28.5485 35.1204 27.9843C35.4837 27.9314 35.8505 28.0388 36.1276 28.2784C36.4046 28.5181 36.5638 28.8663 36.5638 29.2324V37.0323C36.5638 37.5871 36.2012 38.0769 35.6703 38.2387C33.0439 39.0396 31.212 41.5148 31.212 44.2618C31.212 47.7342 34.0359 50.5587 37.5079 50.5587C40.2545 50.5587 42.7301 48.7266 43.5322 46.0999L43.5322 46.0998C43.694 45.5695 44.1837 45.2069 44.7384 45.2069H52.5384C52.9045 45.2069 53.2528 45.3662 53.4923 45.6433L53.4924 45.6434C53.732 45.9203 53.8393 46.2878 53.7864 46.6502L53.7864 46.6503C53.2223 50.5207 51.279 54.0769 48.3139 56.6629C45.4331 59.1752 41.7717 60.6011 37.9592 60.7057L37.6188 60.715V61.0555V63.3894V63.7394H37.9688H46.774Z" fill="white" stroke="#CC0000" stroke-width="0.7"/>
</g>
<defs>
<clipPath id="clip0_607_57">
<rect width="55" height="55" fill="white" transform="translate(17 15)"/>
</clipPath>
</defs>
</svg>
