<svg width="84" height="84" viewBox="0 0 84 84" fill="none" xmlns="http://www.w3.org/2000/svg">
<rect width="84" height="84" rx="4" fill="#CC0000"/>
<g clip-path="url(#clip0_607_65)">
<path d="M53.5349 24.3812L53.43 24.2407C50.5602 20.3992 46.059 18.1312 41.2188 18.1312C33.8583 18.1312 27.6286 23.3365 26.2332 30.4338L26.1849 30.6795L25.9368 30.7131C21.5355 31.3102 18.1312 35.0938 18.1312 39.6562C18.1312 44.6323 22.1799 48.6812 27.1562 48.6812H42.7812C43.4508 48.6812 43.9937 48.1383 43.9937 47.4688C43.9937 46.7992 43.4508 46.2563 42.7812 46.2563H27.1562C23.5168 46.2563 20.5563 43.2957 20.5563 39.6562C20.5563 36.0168 23.5168 33.0562 27.1562 33.0562H27.2425C27.8606 33.0562 28.3791 32.5919 28.4472 31.9776L28.4472 31.9775C29.1711 25.4665 34.6617 20.5563 41.2188 20.5563C45.5351 20.5563 49.5328 22.7016 51.911 26.2943M53.5349 24.3812L51.6191 26.4875M53.5349 24.3812H53.7104H53.7104H53.7104H53.7105H53.7105H53.7105H53.7106H53.7106H53.7106H53.7107H53.7107H53.7107H53.7108H53.7108H53.7109H53.7109H53.7109H53.711H53.711H53.711H53.7111H53.7111H53.7111H53.7112H53.7112H53.7112H53.7113H53.7113H53.7113H53.7114H53.7114H53.7114H53.7115H53.7115H53.7115H53.7116H53.7116H53.7116H53.7117H53.7117H53.7117H53.7118H53.7118H53.7118H53.7119H53.7119H53.7119H53.712H53.712H53.712H53.7121H53.7121H53.7121H53.7122H53.7122H53.7122H53.7123H53.7123H53.7123H53.7124H53.7124H53.7124H53.7125H53.7125H53.7125H53.7126H53.7126H53.7126H53.7127H53.7127H53.7127H53.7128H53.7128H53.7128H53.7128H53.7129H53.7129H53.7129H53.713H53.713H53.713H53.7131H53.7131H53.7131H53.7132H53.7132H53.7132H53.7133H53.7133H53.7133H53.7134H53.7134H53.7134H53.7135H53.7135H53.7135H53.7136H53.7136H53.7136H53.7136H53.7137H53.7137H53.7137H53.7138H53.7138H53.7138H53.7139H53.7139H53.7139H53.714H53.714H53.714H53.7141H53.7141H53.7141H53.7141H53.7142H53.7142H53.7142H53.7143H53.7143H53.7143H53.7144H53.7144H53.7144H53.7145H53.7145H53.7145H53.7146H53.7146H53.7146H53.7146H53.7147H53.7147H53.7147H53.7148H53.7148H53.7148H53.7149H53.7149H53.7149H53.715H53.715H53.715H53.7151H53.7151H53.7151H53.7151H53.7152H53.7152H53.7152H53.7153H53.7153H53.7153H53.7154H53.7154H53.7154H53.7155H53.7155H53.7155H53.7156H53.7156H53.7156H53.7157H53.7157H53.7157H53.7157H53.7158H53.7158H53.7158H53.7159H53.7159H53.7159H53.716H53.716H53.716H53.7161H53.7161H53.7161H53.7162H53.7162H53.7162H53.7163H53.7163H53.7163H53.7164H53.7164H53.7164H53.7164H53.7165H53.7165H53.7165H53.7166H53.7166H53.7166H53.7167H53.7167H53.7167H53.7168H53.7168H53.7168H53.7169H53.7169H53.7169H53.717H53.717H53.717H53.7171H53.7171H53.7171H53.7172H53.7172H53.7172H53.7173H53.7173H53.7173H53.7174H53.7174H53.7174H53.7175H53.7175H53.7175H53.7176H53.7176H53.7176H53.7177H53.7177H53.7177H53.7178H53.7178H53.7178H53.7179H53.7179H53.7179H53.718H53.718H53.718H53.7181H53.7181H53.7182H53.7182H53.7182H53.7183H53.7183H53.7183H53.7184H53.7184H53.7184H53.7185H53.7185H53.7185H53.7186H53.7186H53.7186H53.7187H53.7187H53.7188C60.4178 24.3812 65.8688 29.8322 65.8688 36.5312C65.8688 43.2303 60.4178 48.6812 53.7188 48.6812H48.25C47.5804 48.6812 47.0375 48.1383 47.0375 47.4688C47.0375 46.7992 47.5804 46.2563 48.25 46.2563H53.7188C59.0817 46.2563 63.4437 41.8938 63.4437 36.5312C63.4437 31.1687 59.0817 26.8062 53.7188 26.8062C53.4943 26.8062 53.2635 26.8121 53.0306 26.8328M53.5349 24.3812L53.0611 27.1814M51.911 26.2943L51.6191 26.4875M51.911 26.2943C51.9109 26.2943 51.9109 26.2942 51.9109 26.2941L51.6191 26.4875M51.911 26.2943C52.1566 26.6647 52.5814 26.8712 53.0306 26.8328M51.6191 26.4875C51.9358 26.9651 52.4843 27.231 53.0611 27.1814M53.0306 26.8328C53.0305 26.8328 53.0303 26.8328 53.0301 26.8328L53.0611 27.1814M53.0306 26.8328C53.0308 26.8327 53.0309 26.8327 53.0311 26.8327L53.0611 27.1814" fill="white" stroke="#CC0000" stroke-width="0.7"/>
<path d="M40.7875 52.9375C40.7875 52.2679 41.3304 51.725 42 51.725C42.6696 51.725 43.2125 52.2679 43.2125 52.9375V58.4062C43.2125 59.0758 42.6696 59.6187 42 59.6187C41.3304 59.6187 40.7875 59.0758 40.7875 58.4062V52.9375Z" fill="white" stroke="#CC0000" stroke-width="0.7"/>
<path d="M40.7875 63.875C40.7875 63.2054 41.3304 62.6625 42 62.6625C42.6696 62.6625 43.2125 63.2054 43.2125 63.875V64.6562C43.2125 65.3258 42.6696 65.8688 42 65.8688C41.3304 65.8688 40.7875 65.3258 40.7875 64.6562V63.875Z" fill="white" stroke="#CC0000" stroke-width="0.7"/>
<path d="M53.009 57.2851C53.009 57.2851 53.009 57.2851 53.0089 57.2851C52.2786 56.9931 51.8063 56.2949 51.8063 55.5094V52.9375C51.8063 52.2679 51.2633 51.725 50.5938 51.725C49.9242 51.725 49.3812 52.2679 49.3812 52.9375V55.5094C49.3812 57.2942 50.4507 58.8737 52.1077 59.5366L53.009 57.2851ZM53.009 57.2851L56.8923 58.8384L53.009 57.2851ZM55.991 61.0899C55.991 61.0899 55.991 61.0899 55.9911 61.0899C56.7214 61.3819 57.1938 62.0801 57.1938 62.8656V64.6562C57.1938 65.3258 57.7367 65.8687 58.4062 65.8687C59.0758 65.8687 59.6187 65.3258 59.6187 64.6562V62.8656C59.6187 61.0808 58.5493 59.5013 56.8923 58.8384L55.991 61.0899ZM55.991 61.0899L52.1077 59.5366L55.991 61.0899Z" fill="white" stroke="#CC0000" stroke-width="0.7"/>
<path d="M33.4062 51.725C32.7367 51.725 32.1938 52.2679 32.1938 52.9375V55.5094C32.1938 56.2949 31.7214 56.9931 30.9911 57.2851L33.4062 51.725ZM33.4062 51.725C34.0758 51.725 34.6187 52.2679 34.6187 52.9375V55.5094C34.6187 57.2942 33.5493 58.8737 31.8923 59.5366M33.4062 51.725L31.8923 59.5366M27.1077 58.8384C27.1077 58.8384 27.1077 58.8384 27.1077 58.8384C25.4507 59.5013 24.3812 61.0808 24.3812 62.8656V64.6562C24.3812 65.3258 24.9242 65.8687 25.5938 65.8687C26.2633 65.8687 26.8063 65.3258 26.8063 64.6562V62.8656C26.8063 62.0801 27.2786 61.3819 28.0089 61.0899L27.1077 58.8384ZM27.1077 58.8384L30.991 57.2851L27.1077 58.8384ZM31.8923 59.5366L28.009 61.0899L31.8923 59.5366ZM31.8923 59.5366C31.8923 59.5366 31.8923 59.5366 31.8923 59.5366M31.8923 59.5366L31.8923 59.5366" fill="white" stroke="#CC0000" stroke-width="0.7"/>
</g>
<defs>
<clipPath id="clip0_607_65">
<rect width="50" height="50" fill="white" transform="translate(17 17)"/>
</clipPath>
</defs>
</svg>
