<svg width="84" height="84" viewBox="0 0 84 84" fill="none" xmlns="http://www.w3.org/2000/svg">
<rect width="84" height="84" rx="4" fill="#CC0000"/>
<path d="M28.6814 21.6502C29.6676 19.5267 31.2402 17.7292 33.2139 16.4697C35.1877 15.2102 37.4802 14.541 39.8216 14.541C42.163 14.541 44.4556 15.2102 46.4293 16.4697C48.403 17.7292 49.9756 19.5267 50.9618 21.6502C51.397 22.5797 52.088 23.366 52.954 23.917C53.82 24.4679 54.825 24.7606 55.8514 24.7609H55.8664L55.89 24.7608C57.5493 24.7597 59.1874 25.134 60.6816 25.8557C62.1758 26.5773 63.4875 27.6276 64.5183 28.9279C65.5492 30.2282 66.2726 31.7448 66.6343 33.3643C66.9961 34.9837 66.9869 36.664 66.6073 38.2793C66.556 38.4956 66.5928 38.7233 66.7095 38.9125C66.8261 39.1016 67.0132 39.2367 67.2294 39.2879C67.4456 39.3392 67.6734 39.3024 67.8625 39.1857C68.0517 39.0691 68.1867 38.8821 68.238 38.6658C68.6748 36.8044 68.6852 34.8683 68.2683 33.0024C67.8514 31.1364 67.018 29.3888 65.8305 27.8904C64.6429 26.3919 63.1319 25.1813 61.4105 24.3492C59.6891 23.5171 57.8019 23.0849 55.8899 23.085L55.8545 23.0852H55.8442C55.1382 23.0844 54.447 22.8826 53.8515 22.5033C53.256 22.1241 52.7808 21.5832 52.4815 20.9438C51.3606 18.5307 49.5735 16.4882 47.3305 15.0569C45.0876 13.6257 42.4823 12.8652 39.8216 12.8652C37.1609 12.8652 34.5556 13.6257 32.3127 15.0569C30.0698 16.4882 28.2826 18.5307 27.1617 20.9438C26.8631 21.5823 26.3891 22.1227 25.7948 22.5019C25.2006 22.8812 24.5108 23.0835 23.8059 23.0853C23.8026 23.0853 23.7992 23.0853 23.7959 23.0852L23.7533 23.0851C22.0794 23.0851 20.422 23.4164 18.8768 24.0598C17.3315 24.7033 15.9289 25.6463 14.7498 26.8344C13.5707 28.0224 12.6383 29.4322 12.0066 30.9822C11.3748 32.5323 11.0561 34.1921 11.0687 35.8659C11.1202 42.8074 16.8772 48.4547 23.9019 48.4547H30.1513C30.3735 48.4547 30.5867 48.3664 30.7438 48.2093C30.9009 48.0521 30.9892 47.839 30.9892 47.6168C30.9892 47.3946 30.9009 47.1815 30.7438 47.0243C30.5867 46.8672 30.3735 46.7789 30.1513 46.7789H23.9019C17.7944 46.7789 12.7892 41.8778 12.7445 35.8536C12.7335 34.4009 13.01 32.9603 13.5583 31.615C14.1066 30.2696 14.9158 29.0461 15.9391 28.015C16.9625 26.9838 18.1798 26.1654 19.5209 25.6069C20.8621 25.0484 22.3005 24.7608 23.7533 24.7609L23.784 24.761H23.7987C24.8239 24.7596 25.8276 24.4663 26.6923 23.9154C27.557 23.3645 28.2469 22.5788 28.6814 21.6502Z" fill="white"/>
<path d="M23.6776 27.0664C22.5375 27.0665 21.4087 27.2921 20.3562 27.7305C19.3037 28.1688 18.3484 28.8111 17.5453 29.6204C16.7422 30.4297 16.1072 31.3899 15.677 32.4457C15.2467 33.5015 15.0297 34.632 15.0383 35.7721C15.04 35.9932 15.1289 36.2048 15.2859 36.3606C15.4428 36.5164 15.655 36.6038 15.8761 36.6038H15.8824C15.9924 36.603 16.1012 36.5806 16.2026 36.5377C16.3039 36.4948 16.3958 36.4324 16.4731 36.3541C16.5503 36.2757 16.6113 36.1829 16.6527 36.0809C16.6941 35.9789 16.7149 35.8698 16.7141 35.7598C16.7071 34.841 16.8819 33.9299 17.2285 33.0789C17.5752 32.228 18.0868 31.4541 18.7339 30.8018C19.3809 30.1495 20.1507 29.6316 20.9988 29.2782C21.8469 28.9247 22.7566 28.7425 23.6754 28.7422L23.7218 28.7423H23.724C23.9462 28.7426 24.1595 28.6546 24.3168 28.4977C24.4742 28.3408 24.5628 28.1278 24.5631 27.9056C24.5634 27.6833 24.4754 27.4701 24.3184 27.3128C24.1615 27.1554 23.9485 27.0668 23.7263 27.0665L23.6776 27.0664Z" fill="white"/>
<path d="M72.6126 55.4088C72.5486 55.2569 72.4412 55.1272 72.3039 55.0361C72.1665 54.9449 72.0053 54.8962 71.8405 54.8962H70.2952C70.247 51.4639 69.2381 48.1137 67.3827 45.2256C61.8953 36.6554 50.4586 34.147 41.8881 39.6347C33.3178 45.1221 30.8098 56.5589 36.2972 65.1293C37.5991 67.1748 39.2937 68.9418 41.283 70.328C43.2724 71.7141 45.5169 72.692 47.8867 73.2049C49.1971 73.4932 50.5348 73.639 51.8766 73.6397C55.4096 73.6292 58.8655 72.6064 61.8351 70.6924C64.8047 68.7785 67.1636 66.0535 68.6323 62.8403C68.7244 62.638 68.7323 62.4075 68.6544 62.1993C68.5765 61.9912 68.4191 61.8225 68.2169 61.7305C68.0146 61.6384 67.784 61.6304 67.5759 61.7083C67.3678 61.7862 67.1991 61.9436 67.1071 62.1459C65.3933 65.8999 62.356 68.8906 58.576 70.5461C54.7959 72.2016 50.5382 72.4058 46.6171 71.1195C42.696 69.8333 39.3865 67.1469 37.3215 63.574C35.2564 60.0012 34.5807 55.7925 35.4236 51.7528C36.2664 47.7131 38.5687 44.1258 41.8901 41.6768C45.2115 39.2277 49.3191 38.0889 53.4275 38.4779C57.5358 38.8669 61.3566 40.7565 64.1593 43.7855C66.962 46.8144 68.55 50.7701 68.6196 54.8962H67.2937C67.13 54.8962 66.9699 54.9442 66.8331 55.0342C66.6964 55.1242 66.589 55.2523 66.5242 55.4027C66.4595 55.553 66.4402 55.7191 66.4687 55.8803C66.4973 56.0415 66.5725 56.1908 66.685 56.3098L68.9219 58.6752C68.9995 58.7572 69.0928 58.8227 69.1962 58.8677C69.2997 58.9128 69.4112 58.9365 69.524 58.9374H69.5307C69.6424 58.9374 69.753 58.915 69.8559 58.8717C69.9589 58.8283 70.0521 58.7648 70.1301 58.6849L72.4399 56.3195C72.5551 56.2015 72.6329 56.0522 72.6636 55.8902C72.6943 55.7282 72.6766 55.5608 72.6126 55.4088Z" fill="white"/>
<path d="M55.0269 49.6974H60.3518L55.0269 44.6484V49.6974Z" fill="white"/>
<path d="M44.4905 43.5527C43.9699 43.5533 43.4708 43.7604 43.1027 44.1285C42.7345 44.4966 42.5275 44.9957 42.5269 45.5163V64.2361C42.5275 64.7567 42.7345 65.2559 43.1027 65.624C43.4708 65.9921 43.9699 66.1991 44.4905 66.1997H59.2082C59.7288 66.1991 60.2279 65.9921 60.596 65.624C60.9642 65.2559 61.1712 64.7567 61.1718 64.2361V51.1153H54.3181C54.1301 51.1153 53.9498 51.0406 53.8168 50.9076C53.6839 50.7746 53.6092 50.5943 53.6091 50.4063V43.5527H44.4905ZM56.0916 62.5514H47.6071C47.4105 62.5514 47.222 62.4733 47.0829 62.3343C46.9439 62.1953 46.8659 62.0068 46.8659 61.8102C46.8659 61.6136 46.9439 61.4251 47.0829 61.2861C47.222 61.1471 47.4105 61.069 47.6071 61.069H56.0916C56.2882 61.069 56.4767 61.1471 56.6157 61.2861C56.7547 61.4251 56.8328 61.6136 56.8328 61.8102C56.8328 62.0068 56.7547 62.1953 56.6157 62.3343C56.4767 62.4733 56.2882 62.5514 56.0916 62.5514ZM56.0916 59.1179H47.6071C47.4105 59.1179 47.222 59.0398 47.0829 58.9008C46.9439 58.7618 46.8659 58.5732 46.8659 58.3766C46.8659 58.1801 46.9439 57.9915 47.0829 57.8525C47.222 57.7135 47.4105 57.6354 47.6071 57.6354H56.0916C56.2882 57.6354 56.4767 57.7135 56.6157 57.8525C56.7547 57.9915 56.8328 58.1801 56.8328 58.3766C56.8328 58.5732 56.7547 58.7618 56.6157 58.9008C56.4767 59.0398 56.2882 59.1179 56.0916 59.1179ZM56.0916 54.2018C56.2882 54.2018 56.4767 54.2799 56.6157 54.4189C56.7547 54.5579 56.8328 54.7465 56.8328 54.9431C56.8328 55.1396 56.7547 55.3282 56.6157 55.4672C56.4767 55.6062 56.2882 55.6843 56.0916 55.6843H47.6071C47.4105 55.6843 47.222 55.6062 47.0829 55.4672C46.9439 55.3282 46.8659 55.1396 46.8659 54.9431C46.8659 54.7465 46.9439 54.5579 47.0829 54.4189C47.222 54.2799 47.4105 54.2018 47.6071 54.2018H56.0916Z" fill="white"/>
</svg>
