<svg width="84" height="84" viewBox="0 0 84 84" fill="none" xmlns="http://www.w3.org/2000/svg">
<rect width="84" height="84" rx="4" fill="#CC0000"/>
<path fill-rule="evenodd" clip-rule="evenodd" d="M64.449 55.2785C65.692 54.9555 66.408 54.2555 66.72 53.0395C67.136 51.4225 67.325 49.8035 67.228 48.1515C67.009 44.5715 66.249 41.0445 66.199 37.4415C66.179 36.0825 65.33 35.5405 63.791 35.5125C59.134 35.4235 54.49 36.2295 49.832 35.8105C49.037 35.7365 47.558 36.3245 48.047 34.5285C48.094 34.3605 47.724 34.0235 47.475 33.8715C46.753 33.4335 46.184 32.8545 45.635 32.2495C43.862 30.2955 41.574 29.5065 38.876 29.5565C35.383 29.6215 31.892 29.6575 28.398 29.6555C27.208 29.6535 25.89 29.9695 25.171 28.5045C24.909 27.9695 24.015 27.8455 23.299 27.9135C22.457 27.9955 21.612 28.0875 20.782 28.2355C18.818 28.5885 17.94 29.4825 17.731 31.3585C17.358 34.6995 17.569 38.0275 18.062 41.3385C18.327 43.1125 18.637 44.8845 19.388 46.5515C19.616 47.0575 19.848 47.5495 20.448 47.7825C22.1 48.4195 25.556 47.5445 26.596 46.1505C26.895 45.7475 27.225 45.6705 27.661 45.6755C28.505 45.6905 29.153 46.0625 29.767 46.5785C30.966 47.5965 32.276 48.4095 34.023 48.2245C34.514 48.1715 35.037 48.1315 35.102 47.5565C35.18 46.9065 34.658 46.6415 34.099 46.6725C32.622 46.7545 31.597 45.9935 30.616 45.1505C29.878 44.5175 29.028 44.1035 28.05 44.1335C26.871 44.1745 26.664 43.6375 26.673 42.6845C26.7 39.3935 26.522 36.1015 26.044 32.8465C25.895 31.8255 26.071 31.4565 27.206 31.3615C31.065 31.0325 34.931 31.4055 38.789 31.1695C41.062 31.0305 42.942 31.7415 44.412 33.3755C45.057 34.0895 45.72 34.7765 46.948 35.4285C46.345 35.5165 46.194 35.5475 46.045 35.5555C45.378 35.5975 44.484 35.4325 44.524 36.4015C44.556 37.2285 45.404 37.0895 46.009 37.1445C50.016 37.5295 54.034 37.6325 58.053 37.2735C59.799 37.1145 61.545 37.1605 63.291 37.1355C64.269 37.1235 64.604 37.4515 64.593 38.3325C64.563 41.0325 64.959 43.6985 65.445 46.3495C65.703 47.7555 65.214 48.1765 63.747 48.4735C58.741 49.4895 53.641 49.3695 48.599 49.8865C46.439 50.1085 44.294 50.5265 42.135 50.5875C37.76 50.7185 37.037 49.8995 37.593 45.9285C37.679 45.3155 38.076 44.4785 37.03 44.3785C36.152 44.2965 36.023 45.1125 35.915 45.7575C35.644 47.4075 35.992 49.0285 36.159 50.6635C36.634 55.2845 38.224 56.5735 43.066 56.3065C48.139 56.0245 53.209 55.6675 58.3 55.8615C60.355 55.9395 62.431 55.8005 64.449 55.2785ZM24.742 38.9465C24.838 40.8825 24.912 42.8185 25.044 44.7565C25.108 45.7625 24.489 46.1395 23.613 46.1315C22.622 46.1275 21.294 46.9625 20.77 45.4555C20.379 44.3285 20.108 43.1555 19.884 41.9835C19.242 38.5935 19.06 35.1705 19.391 31.7355C19.538 30.2075 22.238 28.8835 23.658 29.5775C24.087 29.7845 23.975 30.1575 24.029 30.4805C24.509 33.2835 24.729 36.1075 24.742 38.9465ZM60.099 54.1885C54.064 53.9905 48.043 54.4965 42.019 54.7715C40.472 54.8435 39.037 54.6915 38.391 53.0445C38.138 52.3925 38.144 51.9035 39.041 52.0035C44.837 52.6445 50.484 50.8345 56.274 51.0125C58.923 51.0935 61.619 50.3995 64.273 49.9375C65.517 49.7205 65.612 50.1735 65.447 51.1055C65.015 53.5375 64.745 53.8085 62.158 54.0805C61.476 54.1525 60.786 54.1545 60.099 54.1885Z" fill="white"/>
<path fill-rule="evenodd" clip-rule="evenodd" d="M37.696 42.656C38.983 44.209 40.545 45.335 42.846 45.006C43.419 44.917 44.012 44.889 44.562 44.731C46.985 44.033 47.708 41.885 46.028 40.205C44.439 38.618 42.756 37.114 41.066 35.62C40.343 34.98 39.603 34.317 38.622 34.011C38.152 33.864 37.633 33.803 37.346 34.274C37.045 34.766 37.373 35.128 37.821 35.372C40.372 36.766 42.188 38.936 44.291 40.8C44.707 41.17 45.437 41.532 45.111 42.26C44.77 43.024 44.03 43.221 43.196 43.379C40.981 43.798 39.794 42.468 38.544 41.166C37.165 39.728 35.893 38.52 33.447 39.798C31.616 40.754 30.893 40.193 30.221 38.282C30.072 37.859 29.934 37.425 29.709 37.039C29.523 36.723 29.178 36.548 28.764 36.696C28.354 36.842 28.271 37.157 28.269 37.539C28.246 40.633 30.518 42.46 33.572 41.417C35.551 40.739 36.598 41.329 37.696 42.656Z" fill="white"/>
<path fill-rule="evenodd" clip-rule="evenodd" d="M21.084 33.3109C21.344 33.9349 20.991 35.1649 22.176 35.0429C23.422 34.9119 22.776 33.7989 22.756 33.0989C22.74 32.5249 22.662 31.7729 21.794 31.8559C20.9 31.9359 21.12 32.6939 21.084 33.3109Z" fill="white"/>
</svg>
