<svg width="84" height="84" viewBox="0 0 84 84" fill="none" xmlns="http://www.w3.org/2000/svg">
<rect width="84" height="84" rx="4" fill="#CC0000"/>
<path d="M22.6667 28.7086H29.9167V44.7311C27.645 45.3248 25.6671 46.725 24.3522 48.6703C23.0373 50.6155 22.4754 52.9729 22.7714 55.3021C23.0673 57.6314 24.2009 59.7733 25.9605 61.3279C27.7201 62.8825 29.9854 63.7435 32.3333 63.7503C32.9254 63.7496 33.5161 63.693 34.0975 63.5811C34.4367 63.693 34.7916 63.7501 35.1488 63.7503C37.7708 63.7503 37.7708 61.3336 40.3808 61.3336C42.9908 61.3336 43.0029 63.7503 45.6129 63.7503C48.2229 63.7503 48.235 61.3336 50.8571 61.3336C53.4792 61.3336 53.4671 63.7503 56.0892 63.7503C57.9742 63.7503 58.5058 62.5419 59.6296 61.8048C60.152 61.4783 60.5826 61.0241 60.8807 60.485C61.1788 59.9458 61.3346 59.3396 61.3333 58.7236V26.2919C61.3333 24.6896 60.6968 23.1528 59.5638 22.0198C58.4307 20.8868 56.894 20.2502 55.2917 20.2502H26.2917C25.8857 20.2465 25.4805 20.287 25.0833 20.3711C23.7187 20.6496 22.4922 21.3911 21.6114 22.4701C20.7307 23.549 20.2497 24.8991 20.25 26.2919C20.25 26.9328 20.5046 27.5475 20.9578 28.0008C21.411 28.454 22.0257 28.7086 22.6667 28.7086ZM25.0833 54.0836C25.085 52.5857 25.5506 51.1252 26.4161 49.9027C27.2816 48.6802 28.5045 47.7558 29.9167 47.2565C30.2822 47.1248 30.6581 47.0237 31.0404 46.9544H31.1975C31.5722 46.8836 31.9521 46.8432 32.3333 46.8336C33.7672 46.8336 35.169 47.2588 36.3612 48.0554C37.5535 48.8521 38.4827 49.9844 39.0315 51.3091C39.5802 52.6339 39.7238 54.0916 39.444 55.498C39.1643 56.9043 38.4738 58.1962 37.4599 59.2101C36.4459 60.224 35.1541 60.9145 33.7477 61.1943C32.3414 61.474 30.8836 61.3304 29.5589 60.7817C28.2341 60.233 27.1018 59.3037 26.3052 58.1115C25.5085 56.9192 25.0833 55.5175 25.0833 54.0836ZM55.2917 22.6669C56.2531 22.6669 57.1751 23.0488 57.8549 23.7286C58.5347 24.4085 58.9167 25.3305 58.9167 26.2919V58.7236C58.9171 58.9289 58.8652 59.131 58.7658 59.3107C58.6664 59.4904 58.5229 59.6418 58.3487 59.7507C57.8953 60.049 57.4706 60.3888 57.08 60.7657C56.4758 61.3094 56.4275 61.3336 56.0892 61.3336C55.7508 61.3336 55.7025 61.3336 55.1104 60.7657C54.5652 60.1924 53.9092 59.736 53.1822 59.4241C52.4552 59.1122 51.6723 58.9514 50.8813 58.9514C50.0902 58.9514 49.3073 59.1122 48.5803 59.4241C47.8533 59.736 47.1973 60.1924 46.6521 60.7657C46.06 61.3094 45.9996 61.3336 45.6733 61.3336C45.3471 61.3336 45.2988 61.3336 44.7067 60.7657C43.6572 59.656 42.2203 58.9938 40.695 58.9169C41.074 58.2448 41.374 57.5312 41.5892 56.7902L41.6617 56.5002C41.7354 56.218 41.7919 55.9315 41.8308 55.6423C41.8375 55.5297 41.8375 55.4167 41.8308 55.304C41.9139 54.9013 41.9704 54.4937 42 54.0836C42.0007 52.8404 41.7585 51.609 41.2871 50.4586H55.2917C55.6121 50.4586 55.9195 50.3313 56.1461 50.1047C56.3727 49.8781 56.5 49.5707 56.5 49.2502C56.5 48.9298 56.3727 48.6224 56.1461 48.3958C55.9195 48.1692 55.6121 48.0419 55.2917 48.0419H40.1392C40.0628 48.035 39.986 48.035 39.9096 48.0419C39.1085 47.0562 38.1236 46.2355 37.0096 45.6252H55.2917C55.6121 45.6252 55.9195 45.4979 56.1461 45.2713C56.3727 45.0447 56.5 44.7374 56.5 44.4169C56.5 44.0964 56.3727 43.7891 56.1461 43.5625C55.9195 43.3359 55.6121 43.2086 55.2917 43.2086H35.9583C35.6379 43.2086 35.3305 43.3359 35.1039 43.5625C34.8773 43.7891 34.75 44.0964 34.75 44.4169C34.7555 44.5329 34.78 44.6472 34.8225 44.7552C34.0115 44.5322 33.1744 44.4184 32.3333 44.4169V26.2919C32.3354 25.0385 32.0589 23.8003 31.5238 22.6669H55.2917ZM25.3492 22.7877H25.6029C25.8282 22.7258 26.0588 22.6853 26.2917 22.6669C27.251 22.6645 28.1722 23.0426 28.8533 23.7182C29.3529 24.2275 29.6967 24.8689 29.8442 25.5669C29.8809 25.8072 29.9051 26.0491 29.9167 26.2919H22.6667C22.6658 25.494 22.9282 24.7182 23.4132 24.0846C23.8982 23.451 24.5787 22.9952 25.3492 22.7877Z" fill="white"/>
<path d="M48.0418 29.9167H55.2918C55.6123 29.9167 55.9196 29.7894 56.1463 29.5628C56.3729 29.3361 56.5002 29.0288 56.5002 28.7083C56.5002 28.3879 56.3729 28.0805 56.1463 27.8539C55.9196 27.6273 55.6123 27.5 55.2918 27.5H48.0418C47.7214 27.5 47.414 27.6273 47.1874 27.8539C46.9608 28.0805 46.8335 28.3879 46.8335 28.7083C46.8335 29.0288 46.9608 29.3361 47.1874 29.5628C47.414 29.7894 47.7214 29.9167 48.0418 29.9167Z" fill="white"/>
<path d="M48.0418 34.7507H55.2918C55.6123 34.7507 55.9196 34.6233 56.1463 34.3967C56.3729 34.1701 56.5002 33.8628 56.5002 33.5423C56.5002 33.2218 56.3729 32.9145 56.1463 32.6879C55.9196 32.4613 55.6123 32.334 55.2918 32.334H48.0418C47.7214 32.334 47.414 32.4613 47.1874 32.6879C46.9608 32.9145 46.8335 33.2218 46.8335 33.5423C46.8335 33.8628 46.9608 34.1701 47.1874 34.3967C47.414 34.6233 47.7214 34.7507 48.0418 34.7507Z" fill="white"/>
<path d="M48.0418 39.5827H55.2918C55.6123 39.5827 55.9196 39.4554 56.1463 39.2288C56.3729 39.0022 56.5002 38.6948 56.5002 38.3743C56.5002 38.0539 56.3729 37.7465 56.1463 37.5199C55.9196 37.2933 55.6123 37.166 55.2918 37.166H48.0418C47.7214 37.166 47.414 37.2933 47.1874 37.5199C46.9608 37.7465 46.8335 38.0539 46.8335 38.3743C46.8335 38.6948 46.9608 39.0022 47.1874 39.2288C47.414 39.4554 47.7214 39.5827 48.0418 39.5827Z" fill="white"/>
<path d="M37.1667 39.5833H42C42.6409 39.5833 43.2556 39.3287 43.7088 38.8755C44.1621 38.4223 44.4167 37.8076 44.4167 37.1667V29.9167C44.4167 29.2757 44.1621 28.661 43.7088 28.2078C43.2556 27.7546 42.6409 27.5 42 27.5H37.1667C36.5257 27.5 35.911 27.7546 35.4578 28.2078C35.0046 28.661 34.75 29.2757 34.75 29.9167V37.1667C34.75 37.8076 35.0046 38.4223 35.4578 38.8755C35.911 39.3287 36.5257 39.5833 37.1667 39.5833ZM37.1667 29.9167H42V37.1667H37.1667V29.9167Z" fill="white"/>
<path d="M36.2 53.817C36.425 53.5906 36.5513 53.2844 36.5513 52.9652C36.5513 52.6459 36.425 52.3397 36.2 52.1133C36.0876 52 35.954 51.9101 35.8067 51.8488C35.6595 51.7874 35.5016 51.7559 35.342 51.7559C35.1825 51.7559 35.0246 51.7874 34.8773 51.8488C34.7301 51.9101 34.5965 52 34.4841 52.1133L31.5479 54.9287L30.1583 53.527C30.0425 53.4167 29.906 53.3304 29.7568 53.2728C29.6076 53.2152 29.4485 53.1876 29.2886 53.1916C29.1287 53.1955 28.9712 53.2309 28.8249 53.2957C28.6787 53.3605 28.5467 53.4535 28.4364 53.5693C28.3261 53.6852 28.2397 53.8216 28.1822 53.9708C28.1246 54.12 28.097 54.2791 28.101 54.439C28.1049 54.5989 28.1403 54.7565 28.2051 54.9027C28.2699 55.0489 28.3629 55.1809 28.4787 55.2912L30.7504 57.4662C30.9751 57.6804 31.2737 57.7999 31.5841 57.7999C31.8946 57.7999 32.1932 57.6804 32.4179 57.4662L36.2 53.817Z" fill="white"/>
</svg>
