<svg width="84" height="84" viewBox="0 0 84 84" fill="none" xmlns="http://www.w3.org/2000/svg">
<rect width="84" height="84" rx="4" fill="#CC0000"/>
<g clip-path="url(#clip0_608_382)">
<path d="M42 15C36.6599 15 31.4397 16.5835 26.9996 19.5503C22.5595 22.5171 19.0988 26.7339 17.0553 31.6675C15.0117 36.6012 14.477 42.03 15.5188 47.2674C16.5606 52.5049 19.1321 57.3159 22.9081 61.0919C26.6841 64.8679 31.4951 67.4394 36.7326 68.4812C41.9701 69.523 47.3989 68.9883 52.3325 66.9447C57.2661 64.9012 61.4829 61.4405 64.4497 57.0004C67.4165 52.5603 69 47.3401 69 42C69 34.8392 66.1554 27.9716 61.0919 22.9081C56.0284 17.8446 49.1609 15 42 15ZM43.125 17.25C49.3024 17.525 55.153 20.1023 59.5254 24.4746C63.8977 28.847 66.4751 34.6977 66.75 40.875H43.125V17.25ZM42 66.75C35.4359 66.8992 29.0814 64.4347 24.3344 59.8986C19.5874 55.3626 16.8367 49.1266 16.6875 42.5625C16.5383 35.9984 19.0028 29.6439 23.5389 24.8969C28.0749 20.1498 34.3109 17.3992 40.875 17.25V42C40.8742 42.1481 40.9025 42.2948 40.9585 42.4319C41.0145 42.569 41.097 42.6936 41.2013 42.7987L58.6838 60.27C54.1309 64.4441 48.1767 66.7567 42 66.75ZM60.27 58.6838L44.7113 43.125H66.75C66.4853 48.9116 64.1911 54.42 60.27 58.6838Z" fill="white"/>
</g>
<defs>
<clipPath id="clip0_608_382">
<rect width="54" height="54" fill="white" transform="translate(15 15)"/>
</clipPath>
</defs>
</svg>
