<svg width="24" height="16" viewBox="0 0 24 16" fill="none" xmlns="http://www.w3.org/2000/svg">
<path d="M21.4908 2.6479C21.4466 2.59144 21.3912 2.54384 21.3276 2.5078C21.2641 2.47177 21.1938 2.44801 21.1206 2.43789C21.0475 2.42777 20.9729 2.43148 20.9013 2.44881C20.8296 2.46614 20.7623 2.49675 20.703 2.5389L11.627 8.9933C11.5945 9.0165 11.555 9.02904 11.5144 9.02904C11.4739 9.02904 11.4344 9.0165 11.4019 8.9933L2.50404 2.51031C2.44529 2.4676 2.37829 2.43633 2.30687 2.41829C2.23544 2.40025 2.16098 2.39579 2.08774 2.40517C2.01451 2.41454 1.94392 2.43757 1.88003 2.47293C1.81613 2.50829 1.76017 2.5553 1.71534 2.61127C1.67052 2.66723 1.6377 2.73107 1.61876 2.79912C1.59983 2.86717 1.59515 2.93811 1.60499 3.00788C1.61483 3.07766 1.639 3.1449 1.67611 3.20578C1.71323 3.26665 1.76257 3.31996 1.82132 3.36267L8.81732 8.4608L1.89822 13.4285C1.83861 13.4708 1.78834 13.524 1.75029 13.5848C1.71223 13.6457 1.68713 13.7131 1.67642 13.7832C1.66571 13.8533 1.6696 13.9247 1.68786 13.9934C1.70613 14.0621 1.73841 14.1267 1.78287 14.1835C1.82733 14.2402 1.88309 14.2881 1.94697 14.3244C2.01086 14.3606 2.08161 14.3846 2.1552 14.3948C2.22878 14.405 2.30376 14.4013 2.37584 14.3839C2.44792 14.3665 2.5157 14.3357 2.57531 14.2934L9.74575 9.13626L10.7173 9.85103C10.9439 10.0162 11.2207 10.1067 11.506 10.1086C11.7913 10.1105 12.0695 10.0239 12.2984 9.86175L13.3188 9.13626L20.5736 14.2934C20.6329 14.3355 20.7002 14.3661 20.7719 14.3834C20.8435 14.4007 20.918 14.4044 20.9912 14.3943C21.0643 14.3842 21.1347 14.3604 21.1982 14.3244C21.2617 14.2884 21.3172 14.2408 21.3614 14.1843C21.4056 14.1279 21.4377 14.0637 21.4559 13.9955C21.4741 13.9272 21.4779 13.8562 21.4673 13.7865C21.4567 13.7168 21.4318 13.6498 21.394 13.5893C21.3561 13.5288 21.3062 13.476 21.247 13.4338L14.2585 8.45901L21.3764 3.39305C21.4944 3.30811 21.5726 3.1823 21.594 3.04284C21.6155 2.90338 21.5784 2.76149 21.4908 2.6479Z" fill="white"/>
<path d="M20.4813 0H2.71875C1.99769 0 1.30617 0.280952 0.796303 0.781049C0.286439 1.28115 0 1.95942 0 2.66667L0 13.3333C0 14.0406 0.286439 14.7189 0.796303 15.219C1.30617 15.719 1.99769 16 2.71875 16H20.4813C21.2023 16 21.8938 15.719 22.4037 15.219C22.9136 14.7189 23.2 14.0406 23.2 13.3333V2.66667C23.2 1.95942 22.9136 1.28115 22.4037 0.781049C21.8938 0.280952 21.2023 0 20.4813 0ZM22.1125 13.3333C22.1125 13.7577 21.9406 14.1646 21.6347 14.4647C21.3288 14.7648 20.9139 14.9333 20.4813 14.9333H2.71875C2.28612 14.9333 1.8712 14.7648 1.56528 14.4647C1.25936 14.1646 1.0875 13.7577 1.0875 13.3333V2.66667C1.0875 2.24232 1.25936 1.83535 1.56528 1.5353C1.8712 1.23524 2.28612 1.06667 2.71875 1.06667H20.4813C20.9139 1.06667 21.3288 1.23524 21.6347 1.5353C21.9406 1.83535 22.1125 2.24232 22.1125 2.66667V13.3333Z" fill="white"/>
</svg>
