<svg width="84" height="84" viewBox="0 0 84 84" fill="none" xmlns="http://www.w3.org/2000/svg">
<rect width="84" height="84" rx="4" fill="#CC0000"/>
<path d="M65.5557 18.1211H16.3369C15.3579 18.1211 14.419 18.51 13.7267 19.2023C13.0344 19.8946 12.6455 20.8335 12.6455 21.8125V52.8203C12.6455 53.4077 12.8789 53.9711 13.2942 54.3864C13.7096 54.8018 14.2729 55.0352 14.8604 55.0352H36.0244V58.3943C36.0259 59.4309 35.7689 60.4514 35.2766 61.3637C34.7844 62.2759 34.0726 63.051 33.2054 63.6189H33.1968C32.881 63.8262 32.6405 64.1297 32.5109 64.4845C32.3813 64.8393 32.3696 65.2265 32.4775 65.5885C32.5854 65.9504 32.8072 66.268 33.1099 66.4939C33.4126 66.7199 33.7801 66.8422 34.1578 66.8427H47.4222C47.7948 66.8434 48.1574 66.7233 48.4559 66.5004C48.7544 66.2776 48.9726 65.964 49.0778 65.6066C49.183 65.2493 49.1696 64.8674 49.0395 64.5184C48.9094 64.1693 48.6696 63.8719 48.3562 63.6706H48.35C47.4363 63.0886 46.6845 62.285 46.1645 61.3346C45.6446 60.3842 45.3733 59.3177 45.376 58.2344V55.0352H59.5424C59.7382 55.0352 59.926 54.9574 60.0644 54.8189C60.2029 54.6805 60.2806 54.4927 60.2806 54.2969C60.2806 54.1011 60.2029 53.9133 60.0644 53.7748C59.926 53.6364 59.7382 53.5586 59.5424 53.5586H14.8604C14.6645 53.5586 14.4768 53.4808 14.3383 53.3424C14.1999 53.2039 14.1221 53.0161 14.1221 52.8203V21.8125C14.1221 21.2251 14.3554 20.6617 14.7708 20.2464C15.1861 19.831 15.7495 19.5977 16.3369 19.5977H65.5557C66.1431 19.5977 66.7064 19.831 67.1218 20.2464C67.5372 20.6617 67.7705 21.2251 67.7705 21.8125V52.8203C67.7705 53.0161 67.6927 53.2039 67.5543 53.3424C67.4158 53.4808 67.228 53.5586 67.0322 53.5586H62.541C62.3452 53.5586 62.1574 53.6364 62.019 53.7748C61.8805 53.9133 61.8027 54.1011 61.8027 54.2969C61.8027 54.4927 61.8805 54.6805 62.019 54.8189C62.1574 54.9574 62.3452 55.0352 62.541 55.0352H67.0322C67.6196 55.0352 68.183 54.8018 68.5984 54.3864C69.0137 53.9711 69.2471 53.4077 69.2471 52.8203V21.8125C69.2471 21.3277 69.1516 20.8477 68.9661 20.3999C68.7806 19.952 68.5087 19.5451 68.1659 19.2023C67.8231 18.8595 67.4162 18.5876 66.9683 18.4021C66.5204 18.2166 66.0404 18.1211 65.5557 18.1211ZM43.8994 55.0352V58.2344C43.8962 59.5647 44.2292 60.8742 44.8675 62.0414C45.5057 63.2087 46.4285 64.1957 47.5502 64.9109C47.596 64.9392 47.6311 64.9818 47.6504 65.032C47.6697 65.0822 47.6719 65.1374 47.6568 65.1891C47.6418 65.2407 47.6102 65.286 47.5669 65.318C47.5237 65.35 47.4711 65.3669 47.4173 65.3662H34.1578C34.098 65.3658 34.0399 65.3462 33.992 65.3103C33.9442 65.2744 33.9091 65.2241 33.892 65.1668C33.8753 65.1095 33.8773 65.0483 33.8976 64.9921C33.918 64.9359 33.9556 64.8877 34.0052 64.8543C35.08 64.1533 35.9626 63.1948 36.5729 62.066C37.1832 60.9372 37.5018 59.6738 37.4997 58.3906V55.0315L43.8994 55.0352Z" fill="white"/>
<path d="M49.86 22.7644C49.6265 22.531 49.3435 22.3531 49.0319 22.2439C48.5572 22.0749 48.0387 22.0749 47.564 22.2439C47.2524 22.3531 46.9694 22.531 46.7358 22.7644L41.9912 27.5091C41.6989 27.799 41.4939 28.1651 41.3993 28.5658C41.3046 28.9664 41.3243 29.3856 41.4559 29.7756L42.2385 32.1479L43.64 31.6804L42.8537 29.3093C42.8104 29.1792 42.8041 29.0396 42.8356 28.9062C42.8671 28.7727 42.9352 28.6507 43.0321 28.5537L47.5615 24.0244V29.6686C47.0323 29.844 46.5828 30.2021 46.2936 30.6787C46.0044 31.1554 45.8944 31.7194 45.9833 32.2698C46.0721 32.8202 46.354 33.321 46.7785 33.6824C47.203 34.0439 47.7423 34.2424 48.2998 34.2424C48.8573 34.2424 49.3966 34.0439 49.8211 33.6824C50.2455 33.321 50.5275 32.8202 50.6163 32.2698C50.7051 31.7194 50.5951 31.1554 50.3059 30.6787C50.0167 30.2021 49.5673 29.844 49.0381 29.6686V24.0244L53.5588 28.5537C53.6558 28.6507 53.7238 28.7727 53.7553 28.9062C53.7868 29.0396 53.7806 29.1792 53.7372 29.3093L50.9748 37.5903H45.6075L44.3155 33.7106C44.2849 33.6186 44.2365 33.5335 44.1729 33.4602C44.1094 33.3869 44.0321 33.3269 43.9454 33.2834C43.8587 33.24 43.7642 33.2141 43.6675 33.2072C43.5708 33.2003 43.4736 33.2124 43.3816 33.2431C43.2896 33.2737 43.2045 33.3221 43.1312 33.3856C43.0579 33.4491 42.9978 33.5265 42.9544 33.6132C42.911 33.6999 42.8851 33.7943 42.8781 33.8911C42.8712 33.9878 42.8834 34.085 42.914 34.177L44.1199 37.7946C43.6287 38.0133 43.2276 38.3942 42.9836 38.8733C42.7396 39.3525 42.6676 39.9009 42.7796 40.4267C42.8916 40.9526 43.1808 41.4241 43.5988 41.7623C44.0168 42.1005 44.5383 42.2848 45.0759 42.2845H45.1424V45.4985C45.1424 46.0859 45.3757 46.6493 45.7911 47.0647C46.2065 47.48 46.7698 47.7134 47.3572 47.7134H49.23C49.8174 47.7134 50.3808 47.48 50.7961 47.0647C51.2115 46.6493 51.4449 46.0859 51.4449 45.4985V42.2845H51.5101C52.0478 42.2848 52.5692 42.1005 52.9872 41.7623C53.4052 41.4241 53.6944 40.9526 53.8064 40.4267C53.9184 39.9009 53.8464 39.3525 53.6024 38.8733C53.3584 38.3942 52.9573 38.0133 52.4661 37.7946L55.14 29.7756C55.2713 29.3855 55.2908 28.9664 55.1962 28.5659C55.1016 28.1653 54.8967 27.7992 54.6047 27.5091L49.86 22.7644ZM48.2936 32.7644C48.1212 32.7647 47.9526 32.7137 47.8092 32.6181C47.6657 32.5225 47.5539 32.3864 47.4878 32.2272C47.4217 32.068 47.4043 31.8927 47.4379 31.7236C47.4715 31.5545 47.5545 31.3991 47.6764 31.2772C47.7983 31.1553 47.9536 31.0723 48.1227 31.0388C48.2918 31.0052 48.4671 31.0225 48.6263 31.0886C48.7856 31.1547 48.9216 31.2666 49.0173 31.41C49.1129 31.5535 49.1638 31.7221 49.1636 31.8945C49.1632 32.1251 49.0715 32.3462 48.9084 32.5093C48.7453 32.6723 48.5242 32.7641 48.2936 32.7644ZM49.9683 45.4985C49.9683 45.6943 49.8905 45.8821 49.7521 46.0206C49.6136 46.159 49.4258 46.2368 49.23 46.2368H47.3572C47.1614 46.2368 46.9736 46.159 46.8352 46.0206C46.6967 45.8821 46.619 45.6943 46.619 45.4985V42.2845H49.9683V45.4985ZM52.3812 39.9368C52.3812 40.1679 52.2895 40.3895 52.1261 40.5528C51.9627 40.7162 51.7411 40.808 51.5101 40.808H45.0759C44.8507 40.7995 44.6376 40.7041 44.4812 40.5418C44.3249 40.3794 44.2375 40.1628 44.2375 39.9374C44.2375 39.712 44.3249 39.4954 44.4812 39.3331C44.6376 39.1708 44.8507 39.0753 45.0759 39.0669H51.5101C51.6244 39.0667 51.7377 39.0891 51.8434 39.1327C51.949 39.1764 52.0451 39.2404 52.126 39.3212C52.2069 39.402 52.2711 39.498 52.3149 39.6036C52.3587 39.7092 52.3812 39.8225 52.3812 39.9368Z" fill="white"/>
<path d="M38.168 25.4304C38.1681 24.9268 38.0277 24.4331 37.7627 24.0049C37.4976 23.5767 37.1183 23.2309 36.6675 23.0064C36.2166 22.7819 35.7121 22.6877 35.2106 22.7343C34.7092 22.7808 34.2306 22.9664 33.8288 23.27C33.427 23.5736 33.1179 23.9834 32.9362 24.4531C32.7545 24.9228 32.7075 25.4339 32.8003 25.9289C32.8932 26.4239 33.1223 26.8831 33.4619 27.255C33.8015 27.6269 34.2381 27.8967 34.7227 28.0341V32.075H33.4922C33.2964 32.075 33.1086 32.1527 32.9701 32.2912C32.8317 32.4297 32.7539 32.6174 32.7539 32.8132V34.0265C29.873 34.0528 27.119 35.2157 25.0911 37.2622C23.0633 39.3087 21.9257 42.0732 21.9258 44.9543V46.1023C21.9258 46.2981 22.0036 46.4859 22.142 46.6243C22.2805 46.7628 22.4683 46.8406 22.6641 46.8406C22.8599 46.8406 23.0477 46.7628 23.1861 46.6243C23.3246 46.4859 23.4023 46.2981 23.4023 46.1023V44.9592C23.4016 42.4697 24.3835 40.0805 26.1346 38.3109C27.8857 36.5413 30.2645 35.5345 32.7539 35.5092V36.7557C32.7539 36.9515 32.8317 37.1393 32.9701 37.2777C33.1086 37.4162 33.2964 37.4939 33.4922 37.4939H34.7227V41.8535C34.094 42.0317 33.5511 42.4312 33.194 42.9784C32.8369 43.5256 32.6897 44.1834 32.7797 44.8306C32.8696 45.4778 33.1906 46.0705 33.6834 46.4996C34.1762 46.9286 34.8076 47.1649 35.4609 47.1649C36.1143 47.1649 36.7457 46.9286 37.2385 46.4996C37.7312 46.0705 38.0522 45.4778 38.1422 44.8306C38.2321 44.1834 38.085 43.5256 37.7279 42.9784C37.3708 42.4312 36.8278 42.0317 36.1992 41.8535V37.489H37.4297C37.6255 37.489 37.8133 37.4112 37.9517 37.2728C38.0902 37.1343 38.168 36.9465 38.168 36.7507V32.8132C38.168 32.6174 38.0902 32.4297 37.9517 32.2912C37.8133 32.1527 37.6255 32.075 37.4297 32.075H36.1992V28.0341C36.766 27.8734 37.2649 27.5323 37.6202 27.0624C37.9755 26.5925 38.1678 26.0195 38.168 25.4304ZM36.6914 44.4522C36.6914 44.6956 36.6192 44.9335 36.484 45.1359C36.3488 45.3382 36.1567 45.4959 35.9318 45.589C35.707 45.6822 35.4596 45.7065 35.2209 45.6591C34.9822 45.6116 34.7629 45.4944 34.5909 45.3223C34.4188 45.1502 34.3016 44.931 34.2541 44.6923C34.2066 44.4536 34.231 44.2062 34.3241 43.9814C34.4173 43.7565 34.575 43.5644 34.7773 43.4291C34.9797 43.2939 35.2176 43.2218 35.4609 43.2218C35.7873 43.2218 36.1003 43.3514 36.331 43.5822C36.5618 43.8129 36.6914 44.1259 36.6914 44.4522ZM36.6914 36.0125H34.2305V33.5515H36.6914V36.0125ZM34.2305 25.4304C34.2305 25.1871 34.3026 24.9492 34.4378 24.7468C34.573 24.5445 34.7652 24.3868 34.9901 24.2936C35.2149 24.2005 35.4623 24.1761 35.701 24.2236C35.9397 24.2711 36.1589 24.3883 36.331 24.5604C36.5031 24.7324 36.6203 24.9517 36.6678 25.1904C36.7152 25.4291 36.6909 25.6765 36.5977 25.9013C36.5046 26.1261 36.3469 26.3183 36.1446 26.4535C35.9422 26.5887 35.7043 26.6609 35.4609 26.6609C35.1346 26.6609 34.8216 26.5313 34.5909 26.3005C34.3601 26.0697 34.2305 25.7568 34.2305 25.4304Z" fill="white"/>
<path d="M67.2783 51.0977V22.3047C67.2783 21.7173 67.045 21.1539 66.6296 20.7386C66.2142 20.3232 65.6509 20.0898 65.0635 20.0898H16.8291C16.2417 20.0898 15.6783 20.3232 15.263 20.7386C14.8476 21.1539 14.6143 21.7173 14.6143 22.3047V51.0977H67.2783ZM16.0908 49.6211V22.3047C16.0908 22.1089 16.1686 21.9211 16.3071 21.7826C16.4455 21.6442 16.6333 21.5664 16.8291 21.5664H65.0635C65.2593 21.5664 65.4471 21.6442 65.5855 21.7826C65.724 21.9211 65.8018 22.1089 65.8018 22.3047V49.6211H16.0908Z" fill="white"/>
</svg>
