<svg width="84" height="84" viewBox="0 0 84 84" fill="none" xmlns="http://www.w3.org/2000/svg">
<rect width="84" height="84" rx="4" fill="#CC0000"/>
<mask id="path-2-inside-1_378_558" fill="white">
<path d="M61.0556 28.7894C62.7148 28.1155 64.0882 26.8859 64.9406 25.3109C65.793 23.736 66.0714 21.9137 65.7281 20.1561C65.3848 18.3985 64.4412 16.8149 63.0588 15.6764C61.6765 14.5379 59.9414 13.9154 58.1505 13.9154C56.3597 13.9154 54.6246 14.5379 53.2423 15.6764C51.8599 16.8149 50.9163 18.3985 50.573 20.1561C50.2297 21.9137 50.5081 23.736 51.3605 25.3109C52.2129 26.8859 53.5863 28.1155 55.2455 28.7894C54.3259 29.2986 53.5594 30.0447 53.0255 30.9502C52.4917 31.8557 52.2099 32.8875 52.2095 33.9387V39.0723L40.9923 42.4459C40.2777 42.6611 39.6538 43.1053 39.2165 43.71C38.7806 43.1047 38.1574 42.66 37.4434 42.4446L30.7931 40.445V33.9374C30.7929 32.8865 30.5116 31.8548 29.9782 30.9493C29.4448 30.0439 28.6788 29.2976 27.7598 28.7881C29.419 28.1142 30.7923 26.8846 31.6447 25.3096C32.4971 23.7347 32.7755 21.9124 32.4322 20.1548C32.0889 18.3972 31.1453 16.8136 29.763 15.6751C28.3806 14.5366 26.6455 13.9141 24.8547 13.9141C23.0639 13.9141 21.3287 14.5366 19.9464 15.6751C18.564 16.8136 17.6204 18.3972 17.2772 20.1548C16.9339 21.9124 17.2123 23.7347 18.0646 25.3096C18.917 26.8846 20.2904 28.1142 21.9496 28.7881C21.0302 29.2972 20.2639 30.0431 19.73 30.9483C19.1962 31.8535 18.9143 32.8852 18.9137 33.9361V72.4336C18.9137 72.6071 18.9826 72.7735 19.1053 72.8963C19.228 73.019 19.3944 73.0879 19.568 73.0879C19.7415 73.0879 19.9079 73.019 20.0306 72.8963C20.1533 72.7735 20.2223 72.6071 20.2223 72.4336V44.1549C20.5569 44.416 20.9372 44.6126 21.3437 44.7346L29.3955 47.1568L24.9123 72.3198C24.8821 72.4895 24.9201 72.6644 25.0181 72.8063C25.1161 72.9482 25.2662 73.0456 25.4357 73.0774C25.4736 73.0848 25.5122 73.0883 25.5509 73.0879C25.7041 73.0875 25.8524 73.0334 25.9699 72.9348C26.0873 72.8363 26.1664 72.6997 26.1934 72.5488L30.6426 47.5298L35.4805 48.981C35.7992 49.0772 36.1303 49.1262 36.4632 49.1262C37.0015 49.1233 37.5315 48.9939 38.0106 48.7487C38.4897 48.5035 38.9046 48.1491 39.2217 47.7143C39.6361 48.2887 40.2194 48.7195 40.8903 48.9466C41.5612 49.1736 42.2863 49.1857 42.9643 48.981L52.2148 46.1976V46.6923C52.215 46.7304 52.2185 46.7685 52.2252 46.8061L56.8053 72.5488C56.8323 72.6997 56.9114 72.8363 57.0288 72.9348C57.1462 73.0334 57.2945 73.0875 57.4478 73.0879C57.4865 73.0883 57.5251 73.0848 57.563 73.0774C57.7337 73.0471 57.8854 72.9503 57.9847 72.8082C58.0841 72.6662 58.123 72.4905 58.093 72.3198L53.5181 46.6334V33.94C53.5181 32.7253 54.0007 31.5603 54.8596 30.7014C55.7185 29.8425 56.8835 29.3599 58.0982 29.3599H58.2042C59.4189 29.3599 60.5839 29.8425 61.4428 30.7014C62.3017 31.5603 62.7843 32.7253 62.7843 33.94V48.8187C62.7843 49.3768 62.5626 49.912 62.168 50.3066C61.7733 50.7012 61.2381 50.9229 60.6801 50.9229C60.122 50.9229 59.5868 50.7012 59.1922 50.3066C58.7975 49.912 58.5758 49.3768 58.5758 48.8187V35.2565C58.5758 35.0829 58.5069 34.9165 58.3842 34.7938C58.2615 34.6711 58.0951 34.6022 57.9215 34.6022C57.748 34.6022 57.5816 34.6711 57.4589 34.7938C57.3362 34.9165 57.2672 35.0829 57.2672 35.2565V48.8161C57.2668 49.4561 57.4465 50.0833 57.7857 50.6261C58.125 51.1688 58.6101 51.6051 59.1856 51.8851C59.7611 52.165 60.4039 52.2774 61.0402 52.2093C61.6766 52.1412 62.281 51.8954 62.7843 51.5V72.4375C62.7843 72.6111 62.8532 72.7775 62.9759 72.9002C63.0986 73.0229 63.265 73.0918 63.4386 73.0918C63.6121 73.0918 63.7785 73.0229 63.9012 72.9002C64.0239 72.7775 64.0929 72.6111 64.0929 72.4375V33.9374C64.0921 32.8863 63.8101 31.8546 63.276 30.9494C62.7419 30.0441 61.9752 29.2983 61.0556 28.7894ZM18.436 21.6353C18.436 20.3671 18.8121 19.1274 19.5167 18.0729C20.2212 17.0185 21.2227 16.1966 22.3943 15.7113C23.566 15.226 24.8553 15.099 26.0991 15.3464C27.3429 15.5938 28.4854 16.2045 29.3822 17.1013C30.2789 17.998 30.8896 19.1405 31.137 20.3844C31.3845 21.6282 31.2575 22.9174 30.7722 24.0891C30.2868 25.2608 29.465 26.2622 28.4105 26.9668C27.3561 27.6713 26.1163 28.0474 24.8481 28.0474C23.1483 28.045 21.5188 27.3686 20.3168 26.1667C19.1148 24.9647 18.4385 23.3352 18.436 21.6353ZM38.4732 46.3193C38.3035 46.8468 37.9362 47.288 37.4483 47.5505C36.9603 47.813 36.3897 47.8764 35.856 47.7273L21.7232 43.4757C21.2892 43.347 20.9085 43.081 20.6384 42.7177C20.3683 42.3543 20.2232 41.9132 20.2249 41.4605V33.9374C20.2249 32.7227 20.7074 31.5577 21.5664 30.6988C22.4253 29.8399 23.5902 29.3573 24.805 29.3573H24.911C25.5124 29.3573 26.108 29.4758 26.6637 29.7059C27.2194 29.9361 27.7243 30.2735 28.1496 30.6988C28.5749 31.1241 28.9122 31.629 29.1424 32.1847C29.3726 32.7403 29.491 33.3359 29.491 33.9374V40.0511L25.7341 38.9205V35.2565C25.7341 35.0829 25.6651 34.9165 25.5424 34.7938C25.4197 34.6711 25.2533 34.6022 25.0798 34.6022C24.9062 34.6022 24.7398 34.6711 24.6171 34.7938C24.4944 34.9165 24.4255 35.0829 24.4255 35.2565V39.4125C24.4254 39.5532 24.4707 39.6902 24.5546 39.8031C24.6385 39.916 24.7566 39.9988 24.8913 40.0394L37.0613 43.7034C37.5946 43.8642 38.0426 44.2297 38.3072 44.7199C38.5718 45.2101 38.6315 45.7852 38.4732 46.3193ZM42.5822 47.7273C42.0486 47.8768 41.4778 47.8135 40.9897 47.551C40.5017 47.2884 40.1344 46.847 39.965 46.3193C39.8062 45.7855 39.8651 45.2106 40.129 44.7201C40.3928 44.2297 40.8401 43.8637 41.3731 43.7021L52.2135 40.4411V44.8354L42.5822 47.7273ZM51.7424 21.6353C51.7424 20.3671 52.1184 19.1274 52.823 18.0729C53.5276 17.0185 54.529 16.1966 55.7007 15.7113C56.8723 15.226 58.1616 15.099 59.4054 15.3464C60.6492 15.5938 61.7918 16.2045 62.6885 17.1013C63.5853 17.998 64.196 19.1405 64.4434 20.3844C64.6908 21.6282 64.5638 22.9174 64.0785 24.0891C63.5932 25.2608 62.7713 26.2622 61.7169 26.9668C60.6624 27.6713 59.4227 28.0474 58.1545 28.0474C56.4536 28.0467 54.8225 27.3711 53.6193 26.1689C52.4162 24.9667 51.7392 23.3362 51.7371 21.6353H51.7424Z"/>
</mask>
<path d="M61.0556 28.7894C62.7148 28.1155 64.0882 26.8859 64.9406 25.3109C65.793 23.736 66.0714 21.9137 65.7281 20.1561C65.3848 18.3985 64.4412 16.8149 63.0588 15.6764C61.6765 14.5379 59.9414 13.9154 58.1505 13.9154C56.3597 13.9154 54.6246 14.5379 53.2423 15.6764C51.8599 16.8149 50.9163 18.3985 50.573 20.1561C50.2297 21.9137 50.5081 23.736 51.3605 25.3109C52.2129 26.8859 53.5863 28.1155 55.2455 28.7894C54.3259 29.2986 53.5594 30.0447 53.0255 30.9502C52.4917 31.8557 52.2099 32.8875 52.2095 33.9387V39.0723L40.9923 42.4459C40.2777 42.6611 39.6538 43.1053 39.2165 43.71C38.7806 43.1047 38.1574 42.66 37.4434 42.4446L30.7931 40.445V33.9374C30.7929 32.8865 30.5116 31.8548 29.9782 30.9493C29.4448 30.0439 28.6788 29.2976 27.7598 28.7881C29.419 28.1142 30.7923 26.8846 31.6447 25.3096C32.4971 23.7347 32.7755 21.9124 32.4322 20.1548C32.0889 18.3972 31.1453 16.8136 29.763 15.6751C28.3806 14.5366 26.6455 13.9141 24.8547 13.9141C23.0639 13.9141 21.3287 14.5366 19.9464 15.6751C18.564 16.8136 17.6204 18.3972 17.2772 20.1548C16.9339 21.9124 17.2123 23.7347 18.0646 25.3096C18.917 26.8846 20.2904 28.1142 21.9496 28.7881C21.0302 29.2972 20.2639 30.0431 19.73 30.9483C19.1962 31.8535 18.9143 32.8852 18.9137 33.9361V72.4336C18.9137 72.6071 18.9826 72.7735 19.1053 72.8963C19.228 73.019 19.3944 73.0879 19.568 73.0879C19.7415 73.0879 19.9079 73.019 20.0306 72.8963C20.1533 72.7735 20.2223 72.6071 20.2223 72.4336V44.1549C20.5569 44.416 20.9372 44.6126 21.3437 44.7346L29.3955 47.1568L24.9123 72.3198C24.8821 72.4895 24.9201 72.6644 25.0181 72.8063C25.1161 72.9482 25.2662 73.0456 25.4357 73.0774C25.4736 73.0848 25.5122 73.0883 25.5509 73.0879C25.7041 73.0875 25.8524 73.0334 25.9699 72.9348C26.0873 72.8363 26.1664 72.6997 26.1934 72.5488L30.6426 47.5298L35.4805 48.981C35.7992 49.0772 36.1303 49.1262 36.4632 49.1262C37.0015 49.1233 37.5315 48.9939 38.0106 48.7487C38.4897 48.5035 38.9046 48.1491 39.2217 47.7143C39.6361 48.2887 40.2194 48.7195 40.8903 48.9466C41.5612 49.1736 42.2863 49.1857 42.9643 48.981L52.2148 46.1976V46.6923C52.215 46.7304 52.2185 46.7685 52.2252 46.8061L56.8053 72.5488C56.8323 72.6997 56.9114 72.8363 57.0288 72.9348C57.1462 73.0334 57.2945 73.0875 57.4478 73.0879C57.4865 73.0883 57.5251 73.0848 57.563 73.0774C57.7337 73.0471 57.8854 72.9503 57.9847 72.8082C58.0841 72.6662 58.123 72.4905 58.093 72.3198L53.5181 46.6334V33.94C53.5181 32.7253 54.0007 31.5603 54.8596 30.7014C55.7185 29.8425 56.8835 29.3599 58.0982 29.3599H58.2042C59.4189 29.3599 60.5839 29.8425 61.4428 30.7014C62.3017 31.5603 62.7843 32.7253 62.7843 33.94V48.8187C62.7843 49.3768 62.5626 49.912 62.168 50.3066C61.7733 50.7012 61.2381 50.9229 60.6801 50.9229C60.122 50.9229 59.5868 50.7012 59.1922 50.3066C58.7975 49.912 58.5758 49.3768 58.5758 48.8187V35.2565C58.5758 35.0829 58.5069 34.9165 58.3842 34.7938C58.2615 34.6711 58.0951 34.6022 57.9215 34.6022C57.748 34.6022 57.5816 34.6711 57.4589 34.7938C57.3362 34.9165 57.2672 35.0829 57.2672 35.2565V48.8161C57.2668 49.4561 57.4465 50.0833 57.7857 50.6261C58.125 51.1688 58.6101 51.6051 59.1856 51.8851C59.7611 52.165 60.4039 52.2774 61.0402 52.2093C61.6766 52.1412 62.281 51.8954 62.7843 51.5V72.4375C62.7843 72.6111 62.8532 72.7775 62.9759 72.9002C63.0986 73.0229 63.265 73.0918 63.4386 73.0918C63.6121 73.0918 63.7785 73.0229 63.9012 72.9002C64.0239 72.7775 64.0929 72.6111 64.0929 72.4375V33.9374C64.0921 32.8863 63.8101 31.8546 63.276 30.9494C62.7419 30.0441 61.9752 29.2983 61.0556 28.7894ZM18.436 21.6353C18.436 20.3671 18.8121 19.1274 19.5167 18.0729C20.2212 17.0185 21.2227 16.1966 22.3943 15.7113C23.566 15.226 24.8553 15.099 26.0991 15.3464C27.3429 15.5938 28.4854 16.2045 29.3822 17.1013C30.2789 17.998 30.8896 19.1405 31.137 20.3844C31.3845 21.6282 31.2575 22.9174 30.7722 24.0891C30.2868 25.2608 29.465 26.2622 28.4105 26.9668C27.3561 27.6713 26.1163 28.0474 24.8481 28.0474C23.1483 28.045 21.5188 27.3686 20.3168 26.1667C19.1148 24.9647 18.4385 23.3352 18.436 21.6353ZM38.4732 46.3193C38.3035 46.8468 37.9362 47.288 37.4483 47.5505C36.9603 47.813 36.3897 47.8764 35.856 47.7273L21.7232 43.4757C21.2892 43.347 20.9085 43.081 20.6384 42.7177C20.3683 42.3543 20.2232 41.9132 20.2249 41.4605V33.9374C20.2249 32.7227 20.7074 31.5577 21.5664 30.6988C22.4253 29.8399 23.5902 29.3573 24.805 29.3573H24.911C25.5124 29.3573 26.108 29.4758 26.6637 29.7059C27.2194 29.9361 27.7243 30.2735 28.1496 30.6988C28.5749 31.1241 28.9122 31.629 29.1424 32.1847C29.3726 32.7403 29.491 33.3359 29.491 33.9374V40.0511L25.7341 38.9205V35.2565C25.7341 35.0829 25.6651 34.9165 25.5424 34.7938C25.4197 34.6711 25.2533 34.6022 25.0798 34.6022C24.9062 34.6022 24.7398 34.6711 24.6171 34.7938C24.4944 34.9165 24.4255 35.0829 24.4255 35.2565V39.4125C24.4254 39.5532 24.4707 39.6902 24.5546 39.8031C24.6385 39.916 24.7566 39.9988 24.8913 40.0394L37.0613 43.7034C37.5946 43.8642 38.0426 44.2297 38.3072 44.7199C38.5718 45.2101 38.6315 45.7852 38.4732 46.3193ZM42.5822 47.7273C42.0486 47.8768 41.4778 47.8135 40.9897 47.551C40.5017 47.2884 40.1344 46.847 39.965 46.3193C39.8062 45.7855 39.8651 45.2106 40.129 44.7201C40.3928 44.2297 40.8401 43.8637 41.3731 43.7021L52.2135 40.4411V44.8354L42.5822 47.7273ZM51.7424 21.6353C51.7424 20.3671 52.1184 19.1274 52.823 18.0729C53.5276 17.0185 54.529 16.1966 55.7007 15.7113C56.8723 15.226 58.1616 15.099 59.4054 15.3464C60.6492 15.5938 61.7918 16.2045 62.6885 17.1013C63.5853 17.998 64.196 19.1405 64.4434 20.3844C64.6908 21.6282 64.5638 22.9174 64.0785 24.0891C63.5932 25.2608 62.7713 26.2622 61.7169 26.9668C60.6624 27.6713 59.4227 28.0474 58.1545 28.0474C56.4536 28.0467 54.8225 27.3711 53.6193 26.1689C52.4162 24.9667 51.7392 23.3362 51.7371 21.6353H51.7424Z" fill="white" stroke="white" stroke-width="6" mask="url(#path-2-inside-1_378_558)"/>
</svg>
