<svg width="84" height="84" viewBox="0 0 84 84" fill="none" xmlns="http://www.w3.org/2000/svg">
<rect width="84" height="84" rx="4" fill="#CC0000"/>
<path d="M34 40H37V43H38V34V33H34V34H37V39H34V34H33V43H34V40Z" fill="white"/>
<path d="M41 40H45V34H44V39H41V34H44V33H40V43H41V40Z" fill="white"/>
<path d="M50 42H49V34H50V33H47V34H48V42H47V43H50V42Z" fill="white"/>
<path d="M29 19.429V23.24L34 27.24V30H30V33H25.237L22.566 29.729C22.834 29.389 23 28.966 23 28.5C23 27.396 22.104 26.5 21 26.5C19.896 26.5 19 27.396 19 28.5C19 29.604 19.896 30.5 21 30.5C21.275 30.5 21.538 30.444 21.776 30.343L24.763 34H30V36H23.793L22.01 37.783C21.712 37.607 21.37 37.5 21 37.5C19.896 37.5 19 38.396 19 39.5C19 40.604 19.896 41.5 21 41.5C22.104 41.5 23 40.604 23 39.5C23 39.13 22.893 38.788 22.717 38.49L24.207 37H30V42H23.793L22.01 43.783C21.712 43.607 21.37 43.5 21 43.5C19.896 43.5 19 44.396 19 45.5C19 46.604 19.896 47.5 21 47.5C22.104 47.5 23 46.604 23 45.5C23 45.13 22.893 44.788 22.717 44.49L24.207 43H30V46H34V47C33.139 47.223 32.5 47.999 32.5 48.929C32.5 50.033 33.396 50.929 34.5 50.929C35.604 50.929 36.5 50.033 36.5 48.929C36.5 47.999 35.861 47.223 35 47V46H39V47C38.139 47.223 37.5 47.999 37.5 48.929C37.5 50.033 38.396 50.929 39.5 50.929C40.604 50.929 41.5 50.033 41.5 48.929C41.5 47.999 40.861 47.223 40 47V46H44V47C43.139 47.223 42.5 47.999 42.5 48.929C42.5 50.033 43.396 50.929 44.5 50.929C45.604 50.929 46.5 50.033 46.5 48.929C46.5 47.999 45.861 47.223 45 47V46H49V47C48.139 47.223 47.5 47.999 47.5 48.929C47.5 50.033 48.396 50.929 49.5 50.929C50.604 50.929 51.5 50.033 51.5 48.929C51.5 47.999 50.861 47.223 50 47V46H54V43H59.793L61.283 44.49C61.107 44.788 61 45.13 61 45.5C61 46.604 61.896 47.5 63 47.5C64.104 47.5 65 46.604 65 45.5C65 44.396 64.104 43.5 63 43.5C62.63 43.5 62.288 43.607 61.99 43.783L60.207 42H54V40H60.203L61.72 38.524C62.067 38.817 62.51 39 63 39C64.104 39 65 38.104 65 37C65 35.896 64.104 35 63 35C61.896 35 61 35.896 61 37C61 37.247 61.051 37.481 61.133 37.7L59.797 39H54V34H59.237L62.223 30.343C62.462 30.444 62.725 30.5 63 30.5C64.104 30.5 65 29.604 65 28.5C65 27.396 64.104 26.5 63 26.5C61.896 26.5 61 27.396 61 28.5C61 28.966 61.166 29.389 61.434 29.729L58.763 33H54V30H50V27.24L55 23.24V19.429C55.861 19.206 56.5 18.43 56.5 17.5C56.5 16.396 55.604 15.5 54.5 15.5C53.396 15.5 52.5 16.396 52.5 17.5C52.5 18.43 53.139 19.206 54 19.429V22.76L49 26.76V30H45V25.244L50 21.327V19.429C50.861 19.206 51.5 18.43 51.5 17.5C51.5 16.396 50.604 15.5 49.5 15.5C48.396 15.5 47.5 16.396 47.5 17.5C47.5 18.43 48.139 19.206 49 19.429V20.84L44 24.757V30H40V24.756L35 20.84V19.429C35.861 19.206 36.5 18.43 36.5 17.5C36.5 16.396 35.604 15.5 34.5 15.5C33.396 15.5 32.5 16.396 32.5 17.5C32.5 18.43 33.139 19.206 34 19.429V21.327L39 25.244V30H35V26.76L30 22.76V19.429C30.861 19.206 31.5 18.43 31.5 17.5C31.5 16.396 30.604 15.5 29.5 15.5C28.396 15.5 27.5 16.396 27.5 17.5C27.5 18.43 28.139 19.206 29 19.429ZM21 29.5C20.448 29.5 20 29.052 20 28.5C20 27.948 20.448 27.5 21 27.5C21.552 27.5 22 27.948 22 28.5C22 29.052 21.552 29.5 21 29.5ZM21 40.5C20.448 40.5 20 40.052 20 39.5C20 38.948 20.448 38.5 21 38.5C21.552 38.5 22 38.948 22 39.5C22 40.052 21.552 40.5 21 40.5ZM21 46.5C20.448 46.5 20 46.052 20 45.5C20 44.948 20.448 44.5 21 44.5C21.552 44.5 22 44.948 22 45.5C22 46.052 21.552 46.5 21 46.5ZM63 44.5C63.552 44.5 64 44.948 64 45.5C64 46.052 63.552 46.5 63 46.5C62.448 46.5 62 46.052 62 45.5C62 44.948 62.448 44.5 63 44.5ZM63 36C63.552 36 64 36.448 64 37C64 37.552 63.552 38 63 38C62.448 38 62 37.552 62 37C62 36.448 62.448 36 63 36ZM63 27.5C63.552 27.5 64 27.948 64 28.5C64 29.052 63.552 29.5 63 29.5C62.448 29.5 62 29.052 62 28.5C62 27.948 62.448 27.5 63 27.5ZM53.5 17.5C53.5 16.948 53.948 16.5 54.5 16.5C55.052 16.5 55.5 16.948 55.5 17.5C55.5 18.052 55.052 18.5 54.5 18.5C53.948 18.5 53.5 18.052 53.5 17.5ZM48.5 17.5C48.5 16.948 48.948 16.5 49.5 16.5C50.052 16.5 50.5 16.948 50.5 17.5C50.5 18.052 50.052 18.5 49.5 18.5C48.948 18.5 48.5 18.052 48.5 17.5ZM33.5 17.5C33.5 16.948 33.948 16.5 34.5 16.5C35.052 16.5 35.5 16.948 35.5 17.5C35.5 18.052 35.052 18.5 34.5 18.5C33.948 18.5 33.5 18.052 33.5 17.5ZM35.5 48.929C35.5 49.481 35.052 49.929 34.5 49.929C33.948 49.929 33.5 49.481 33.5 48.929C33.5 48.377 33.948 47.929 34.5 47.929C35.052 47.929 35.5 48.377 35.5 48.929ZM40.5 48.929C40.5 49.481 40.052 49.929 39.5 49.929C38.948 49.929 38.5 49.481 38.5 48.929C38.5 48.377 38.948 47.929 39.5 47.929C40.052 47.929 40.5 48.377 40.5 48.929ZM45.5 48.929C45.5 49.481 45.052 49.929 44.5 49.929C43.948 49.929 43.5 49.481 43.5 48.929C43.5 48.377 43.948 47.929 44.5 47.929C45.052 47.929 45.5 48.377 45.5 48.929ZM50.5 48.929C50.5 49.481 50.052 49.929 49.5 49.929C48.948 49.929 48.5 49.481 48.5 48.929C48.5 48.377 48.948 47.929 49.5 47.929C50.052 47.929 50.5 48.377 50.5 48.929ZM53 31V33V34V39V40V42V43V45H31V43V42V37V36V34V33V31H53ZM29.5 16.5C30.052 16.5 30.5 16.948 30.5 17.5C30.5 18.052 30.052 18.5 29.5 18.5C28.948 18.5 28.5 18.052 28.5 17.5C28.5 16.948 28.948 16.5 29.5 16.5Z" fill="white"/>
<path d="M67 21H56V22H67C67.551 22 68 22.449 68 23V55H16V23C16 22.449 16.449 22 17 22H28V21H17C15.9 21 15 21.9 15 23V55V55.288V58C15 59.1 15.9 60 17 60H35.714L34.285 65H31C29.896 65 29 65.896 29 67V68H55V67C55 65.896 54.104 65 53 65H49.714L48.285 60H67C68.1 60 69 59.1 69 58V55.825V55V23C69 21.9 68.1 21 67 21ZM50 66H53C53.551 66 54 66.449 54 67H30C30 66.449 30.449 66 31 66H34H50ZM48.674 65H35.326L36.755 60H47.246L48.674 65ZM68 58C68 58.551 67.551 59 67 59H48H36H17C16.449 59 16 58.551 16 58V56H68V58Z" fill="white"/>
<path d="M31 21V22H33.237L33 21.814V21H31Z" fill="white"/>
<path d="M45.897 22L47.174 21H36.826L38.103 22H45.897Z" fill="white"/>
<path d="M53 21H51V21.814L50.763 22H53V21Z" fill="white"/>
<path d="M43.344 24L44.621 23H39.379L40.656 24H43.344Z" fill="white"/>
<path d="M17 23V53H67V23H56V23.721L55.651 24H66V52H18V24H28.349L28 23.721V23H17Z" fill="white"/>
<path d="M35.791 24L34.514 23H31.901L33.151 24H35.791Z" fill="white"/>
<path d="M48.209 24H50.849L52.099 23H49.486L48.209 24Z" fill="white"/>
</svg>
