<svg width="84" height="84" viewBox="0 0 84 84" fill="none" xmlns="http://www.w3.org/2000/svg">
<rect width="84" height="84" rx="4" fill="#CC0000"/>
<path d="M29.6475 33.2501V51.3251C29.6475 54.4501 34.4462 56.9013 40.5737 56.9013C46.7013 56.9013 51.4987 54.4513 51.4987 51.3251V33.2501C51.4987 30.1251 46.7 27.6738 40.5737 27.6738C34.4475 27.6738 29.6475 30.1251 29.6475 33.2501ZM31.07 42.0576C32.9312 43.7388 36.445 44.8513 40.57 44.8513C44.695 44.8513 48.2113 43.7388 50.07 42.0576V45.3001C50.07 47.2651 46.1675 49.4551 40.57 49.4551C34.9725 49.4551 31.07 47.2651 31.07 45.3001V42.0576ZM40.57 43.4326C34.9687 43.4326 31.07 41.2426 31.07 39.2776V36.0338C32.9312 37.7151 36.445 38.8288 40.57 38.8288C44.695 38.8288 48.2113 37.7151 50.07 36.0338V39.2763C50.0763 41.2413 46.1737 43.4313 40.5737 43.4313L40.57 43.4326ZM40.57 55.4826C34.9687 55.4826 31.07 53.2926 31.07 51.3276V48.0838C32.9312 49.7651 36.445 50.8776 40.57 50.8776C44.695 50.8776 48.2113 49.7651 50.07 48.0838V51.3263C50.0763 53.2913 46.1737 55.4813 40.5737 55.4813L40.57 55.4826ZM40.57 29.0976C46.17 29.0976 50.07 31.2876 50.07 33.2526C50.07 35.2176 46.1675 37.4076 40.57 37.4076C34.9725 37.4076 31.07 35.2176 31.07 33.2526C31.07 31.2876 34.9725 29.0963 40.5737 29.0963L40.57 29.0976Z" fill="white"/>
<path d="M55.7188 59.8116C51.7936 63.1566 46.8644 65.0959 41.7122 65.3224C36.5601 65.5488 31.4797 64.0493 27.2763 61.0616H33.3037C33.4924 61.0616 33.6733 60.9867 33.8067 60.8533C33.9401 60.7199 34.015 60.539 34.015 60.3504C34.015 60.1617 33.9401 59.9808 33.8067 59.8474C33.6733 59.714 33.4924 59.6391 33.3037 59.6391H25.2025C25.1928 59.6406 25.1832 59.6427 25.1738 59.6454C25.1257 59.6494 25.0783 59.659 25.0325 59.6741C24.9897 59.6811 24.9477 59.6929 24.9075 59.7091C24.8711 59.7285 24.8368 59.7516 24.805 59.7779C24.7596 59.8038 24.7176 59.8353 24.68 59.8716C24.68 59.8779 24.6638 59.8816 24.6575 59.8891C24.6388 59.9173 24.6225 59.947 24.6088 59.9779C24.5809 60.017 24.557 60.0589 24.5375 60.1029C24.5225 60.1513 24.5124 60.2011 24.5075 60.2516C24.4987 60.2827 24.4925 60.3145 24.4888 60.3466V68.4466C24.4847 68.5424 24.5001 68.6381 24.534 68.7278C24.5679 68.8175 24.6196 68.8995 24.686 68.9687C24.7524 69.0379 24.8321 69.093 24.9203 69.1306C25.0085 69.1683 25.1035 69.1877 25.1994 69.1877C25.2953 69.1877 25.3902 69.1683 25.4784 69.1306C25.5667 69.093 25.6464 69.0379 25.7127 68.9687C25.7791 68.8995 25.8308 68.8175 25.8647 68.7278C25.8986 68.6381 25.914 68.5424 25.91 68.4466V61.8054C30.3691 65.1765 35.8457 66.924 41.4333 66.7585C47.0209 66.593 52.3844 64.5245 56.6363 60.8954C56.7087 60.8353 56.7685 60.7614 56.8122 60.678C56.8558 60.5946 56.8825 60.5034 56.8907 60.4097C56.8989 60.3159 56.8883 60.2215 56.8597 60.1318C56.8311 60.0421 56.785 59.959 56.724 59.8873C56.6631 59.8156 56.5885 59.7567 56.5046 59.714C56.4207 59.6714 56.3292 59.6458 56.2353 59.6387C56.1415 59.6317 56.0472 59.6433 55.9578 59.673C55.8685 59.7027 55.786 59.7498 55.715 59.8116H55.7188Z" fill="white"/>
<path d="M30.9837 21.053L27.9838 26.2555C27.8895 26.4188 27.864 26.6128 27.9127 26.7949C27.9615 26.9771 28.0805 27.1324 28.2437 27.2267C28.3515 27.2894 28.4741 27.3222 28.5987 27.3217C28.7236 27.322 28.8463 27.2893 28.9545 27.227C29.0627 27.1646 29.1526 27.0749 29.215 26.9667L33.265 19.9517C33.265 19.9442 33.265 19.9367 33.2725 19.9292C33.2965 19.8791 33.3141 19.8262 33.325 19.7717C33.3375 19.7363 33.3471 19.7 33.3538 19.663C33.3546 19.6211 33.3517 19.5793 33.345 19.538C33.3426 19.4857 33.3351 19.4338 33.3225 19.383C33.3225 19.3755 33.3225 19.3667 33.3225 19.3592C33.3094 19.3342 33.2948 19.31 33.2788 19.2867C33.256 19.2344 33.2265 19.1853 33.1912 19.1405C33.1634 19.1115 33.1333 19.0848 33.1012 19.0605C33.0725 19.0311 33.0416 19.0039 33.0087 18.9792L25.9875 14.9292C25.8241 14.8349 25.6298 14.8094 25.4476 14.8583C25.2653 14.9071 25.1099 15.0264 25.0156 15.1899C24.9213 15.3533 24.8958 15.5475 24.9447 15.7298C24.9935 15.912 25.1128 16.0674 25.2762 16.1617L31.0263 19.4842C22.0113 23.3355 16.0437 32.2492 16.0437 42.1242C16.0486 43.6088 16.1879 45.0898 16.46 46.5492C16.4903 46.7129 16.5769 46.8608 16.7047 46.9674C16.8325 47.074 16.9936 47.1326 17.16 47.133C17.2019 47.1328 17.2437 47.1291 17.285 47.1217C17.3769 47.1052 17.4646 47.0706 17.5431 47.0201C17.6217 46.9696 17.6895 46.9041 17.7426 46.8274C17.7958 46.7506 17.8333 46.6641 17.853 46.5729C17.8728 46.4816 17.8743 46.3873 17.8575 46.2955C17.6013 44.9197 17.4704 43.5236 17.4662 42.1242C17.4662 33.0367 22.8237 24.8155 30.9837 21.053Z" fill="white"/>
<path d="M71.8613 42.0139C71.8149 41.9327 71.7529 41.8615 71.6788 41.8044C71.6048 41.7473 71.5202 41.7055 71.4298 41.6813C71.3395 41.6571 71.2453 41.6511 71.1527 41.6636C71.06 41.676 70.9707 41.7067 70.89 41.7539L65.125 45.0801C65.2583 44.1006 65.3301 43.1136 65.34 42.1251C65.34 31.7501 58.7637 22.4326 48.975 18.9339C48.8853 18.8927 48.788 18.8707 48.6894 18.8692C48.5907 18.8677 48.4928 18.8868 48.4019 18.9252C48.311 18.9635 48.2291 19.0204 48.1613 19.0922C48.0936 19.1639 48.0415 19.249 48.0085 19.342C47.9754 19.4349 47.962 19.5338 47.9692 19.6322C47.9764 19.7306 48.004 19.8264 48.0502 19.9136C48.0964 20.0008 48.1603 20.0774 48.2377 20.1386C48.3152 20.1997 48.4045 20.2441 48.5 20.2689C57.72 23.5664 63.9175 32.3476 63.9175 42.1251C63.9175 42.8276 63.8775 43.5401 63.805 44.2664L60.795 39.0526C60.6979 38.895 60.5431 38.7815 60.3636 38.7362C60.1841 38.6909 59.9941 38.7174 59.8338 38.81C59.6735 38.9026 59.5556 39.054 59.5052 39.2321C59.4548 39.4102 59.4758 39.601 59.5638 39.7639L63.6138 46.7776V46.7839C63.6745 46.8871 63.7605 46.9731 63.8638 47.0339C63.8788 47.0426 63.8963 47.0451 63.9113 47.0526C63.9669 47.0853 64.0271 47.1093 64.09 47.1239C64.1313 47.1312 64.1731 47.1349 64.215 47.1351C64.3396 47.1348 64.4619 47.1021 64.57 47.0401L71.585 42.9901C71.6678 42.9448 71.7408 42.8834 71.7997 42.8095C71.8585 42.7356 71.9021 42.6508 71.9278 42.5599C71.9535 42.469 71.9609 42.3739 71.9495 42.2802C71.938 42.1864 71.908 42.0959 71.8613 42.0139Z" fill="white"/>
</svg>
