<svg width="84" height="84" viewBox="0 0 84 84" fill="none" xmlns="http://www.w3.org/2000/svg">
<rect width="84" height="84" rx="4" fill="#CC0000"/>
<g clip-path="url(#clip0_608_334)">
<path d="M63.375 36H60.0262C59.9483 35.9994 59.8724 35.9745 59.8092 35.9288C59.7461 35.8831 59.6987 35.8189 59.6737 35.745C59.4558 35.126 59.2055 34.5189 58.9237 33.9263C58.8886 33.8563 58.8762 33.7771 58.8883 33.6998C58.9004 33.6225 58.9364 33.5508 58.9912 33.495L61.3575 31.125C61.6013 30.8812 61.7947 30.5919 61.9266 30.2734C62.0585 29.9549 62.1264 29.6135 62.1264 29.2687C62.1264 28.924 62.0585 28.5826 61.9266 28.2641C61.7947 27.9456 61.6013 27.6563 61.3575 27.4125L56.5837 22.6425C56.34 22.3987 56.0506 22.2053 55.7321 22.0734C55.4136 21.9415 55.0722 21.8736 54.7275 21.8736C54.3828 21.8736 54.0414 21.9415 53.7229 22.0734C53.4044 22.2053 53.115 22.3987 52.8712 22.6425L50.505 25.0088C50.4492 25.0636 50.3775 25.0996 50.3002 25.1117C50.2229 25.1238 50.1437 25.1114 50.0737 25.0763C49.4811 24.7944 48.874 24.5441 48.255 24.3263C48.1811 24.3013 48.1169 24.2539 48.0712 24.1908C48.0255 24.1276 48.0006 24.0517 48 23.9738V20.625C48 19.9288 47.7234 19.2611 47.2312 18.7688C46.7389 18.2766 46.0712 18 45.375 18H38.625C37.9288 18 37.2611 18.2766 36.7688 18.7688C36.2766 19.2611 36 19.9288 36 20.625V23.9738C35.9994 24.0517 35.9745 24.1276 35.9288 24.1908C35.8831 24.2539 35.8189 24.3013 35.745 24.3263C35.126 24.5442 34.5189 24.7945 33.9263 25.0763C33.8563 25.1114 33.7771 25.1238 33.6998 25.1117C33.6225 25.0996 33.5508 25.0636 33.495 25.0088L31.125 22.6425C30.8812 22.3987 30.5919 22.2053 30.2734 22.0734C29.9549 21.9415 29.6135 21.8736 29.2687 21.8736C28.924 21.8736 28.5826 21.9415 28.2641 22.0734C27.9456 22.2053 27.6563 22.3987 27.4125 22.6425L22.6425 27.4163C22.3987 27.66 22.2053 27.9494 22.0734 28.2679C21.9415 28.5864 21.8736 28.9278 21.8736 29.2725C21.8736 29.6172 21.9415 29.9586 22.0734 30.2771C22.2053 30.5956 22.3987 30.885 22.6425 31.1287L25.0088 33.495C25.0636 33.5508 25.0996 33.6225 25.1117 33.6998C25.1238 33.7771 25.1114 33.8563 25.0763 33.9263C24.7944 34.5189 24.5441 35.126 24.3263 35.745C24.3013 35.8189 24.2539 35.8831 24.1908 35.9288C24.1276 35.9745 24.0517 35.9994 23.9738 36H20.625C19.9288 36 19.2611 36.2766 18.7688 36.7688C18.2766 37.2611 18 37.9288 18 38.625V45.375C18 46.0712 18.2766 46.7389 18.7688 47.2312C19.2611 47.7234 19.9288 48 20.625 48H23.9738C24.0517 48.0006 24.1276 48.0255 24.1908 48.0712C24.2539 48.1169 24.3013 48.1811 24.3263 48.255C24.5442 48.874 24.7945 49.4811 25.0763 50.0737C25.1114 50.1437 25.1238 50.2229 25.1117 50.3002C25.0996 50.3775 25.0636 50.4492 25.0088 50.505L22.6425 52.875C22.3987 53.1188 22.2053 53.4081 22.0734 53.7266C21.9415 54.0451 21.8736 54.3865 21.8736 54.7312C21.8736 55.076 21.9415 55.4174 22.0734 55.7359C22.2053 56.0544 22.3987 56.3437 22.6425 56.5875L27.4163 61.3612C27.66 61.605 27.9494 61.7984 28.2679 61.9303C28.5864 62.0623 28.9278 62.1302 29.2725 62.1302C29.6172 62.1302 29.9586 62.0623 30.2771 61.9303C30.5956 61.7984 30.885 61.605 31.1287 61.3612L33.495 58.995C33.5508 58.9401 33.6225 58.9041 33.6998 58.892C33.7771 58.8799 33.8563 58.8923 33.9263 58.9275C34.5189 59.2093 35.126 59.4597 35.745 59.6775C35.8189 59.7025 35.8831 59.7498 35.9288 59.813C35.9745 59.8762 35.9994 59.952 36 60.03V63.375C36 64.0712 36.2766 64.7389 36.7688 65.2312C37.2611 65.7234 37.9288 66 38.625 66H45.375C46.0712 66 46.7389 65.7234 47.2312 65.2312C47.7234 64.7389 48 64.0712 48 63.375V60.0262C48.0006 59.9483 48.0255 59.8724 48.0712 59.8092C48.1169 59.7461 48.1811 59.6987 48.255 59.6737C48.874 59.4558 49.4811 59.2055 50.0737 58.9237C50.1437 58.8886 50.2229 58.8762 50.3002 58.8883C50.3775 58.9004 50.4492 58.9364 50.505 58.9912L52.875 61.3575C53.1188 61.6013 53.4081 61.7947 53.7266 61.9266C54.0451 62.0585 54.3865 62.1264 54.7312 62.1264C55.076 62.1264 55.4174 62.0585 55.7359 61.9266C56.0544 61.7947 56.3437 61.6013 56.5875 61.3575L61.3612 56.5837C61.605 56.34 61.7984 56.0506 61.9303 55.7321C62.0623 55.4136 62.1302 55.0722 62.1302 54.7275C62.1302 54.3828 62.0623 54.0414 61.9303 53.7229C61.7984 53.4044 61.605 53.115 61.3612 52.8712L58.995 50.505C58.9401 50.4492 58.9041 50.3775 58.892 50.3002C58.8799 50.2229 58.8923 50.1437 58.9275 50.0737C59.2093 49.4811 59.4597 48.874 59.6775 48.255C59.7025 48.1811 59.7498 48.1169 59.813 48.0712C59.8762 48.0255 59.952 48.0006 60.03 48H63.375C64.0712 48 64.7389 47.7234 65.2312 47.2312C65.7234 46.7389 66 46.0712 66 45.375V38.625C66 37.9288 65.7234 37.2611 65.2312 36.7688C64.7389 36.2766 64.0712 36 63.375 36ZM63.75 45.375C63.75 45.4745 63.7105 45.5698 63.6402 45.6402C63.5698 45.7105 63.4745 45.75 63.375 45.75H60.0262C59.4823 45.7506 58.952 45.9202 58.5087 46.2352C58.0653 46.5503 57.7307 46.9953 57.5513 47.5088C57.3594 48.0524 57.1391 48.5857 56.8912 49.1062C56.6536 49.597 56.5747 50.1495 56.6654 50.6871C56.7562 51.2247 57.012 51.7207 57.3975 52.1062L59.7638 54.4725C59.8336 54.5428 59.8728 54.6378 59.8728 54.7369C59.8728 54.8359 59.8336 54.931 59.7638 55.0012L54.9938 59.7675C54.9235 59.8373 54.8284 59.8765 54.7294 59.8765C54.6303 59.8765 54.5353 59.8373 54.465 59.7675L52.0988 57.4012C51.7132 57.0158 51.2172 56.7599 50.6796 56.6692C50.142 56.5785 49.5895 56.6574 49.0988 56.895C48.577 57.143 48.0425 57.3633 47.4975 57.555C46.9848 57.7351 46.5406 58.0699 46.2262 58.5133C45.9118 58.9566 45.7428 59.4865 45.7425 60.03V63.375C45.7425 63.4745 45.703 63.5698 45.6327 63.6402C45.5623 63.7105 45.467 63.75 45.3675 63.75H38.625C38.5255 63.75 38.4302 63.7105 38.3598 63.6402C38.2895 63.5698 38.25 63.4745 38.25 63.375V60.0262C38.2494 59.4823 38.0798 58.952 37.7648 58.5087C37.4497 58.0653 37.0047 57.7307 36.4913 57.5513C35.9476 57.3594 35.4143 57.1391 34.8937 56.8912C34.403 56.6536 33.8505 56.5747 33.3129 56.6654C32.7753 56.7562 32.2793 57.012 31.8937 57.3975L29.5275 59.7638C29.4572 59.8336 29.3622 59.8728 29.2631 59.8728C29.1641 59.8728 29.069 59.8336 28.9987 59.7638L24.2325 54.9938C24.1627 54.9235 24.1235 54.8284 24.1235 54.7294C24.1235 54.6303 24.1627 54.5353 24.2325 54.465L26.5988 52.0988C26.9842 51.7132 27.2401 51.2172 27.3308 50.6796C27.4215 50.142 27.3426 49.5895 27.105 49.0988C26.857 48.577 26.6367 48.0425 26.445 47.4975C26.2638 46.9868 25.9291 46.5446 25.4866 46.2317C25.0441 45.9188 24.5157 45.7506 23.9738 45.75H20.625C20.5255 45.75 20.4302 45.7105 20.3598 45.6402C20.2895 45.5698 20.25 45.4745 20.25 45.375V38.625C20.25 38.5255 20.2895 38.4302 20.3598 38.3598C20.4302 38.2895 20.5255 38.25 20.625 38.25H23.9738C24.5177 38.2494 25.048 38.0798 25.4913 37.7648C25.9347 37.4497 26.2693 37.0047 26.4488 36.4913C26.6406 35.9476 26.8609 35.4143 27.1088 34.8937C27.3464 34.403 27.4253 33.8505 27.3346 33.3129C27.2438 32.7753 26.988 32.2793 26.6025 31.8937L24.2362 29.5275C24.1664 29.4572 24.1272 29.3622 24.1272 29.2631C24.1272 29.1641 24.1664 29.069 24.2362 28.9987L29.0063 24.2325C29.0765 24.1627 29.1716 24.1235 29.2706 24.1235C29.3697 24.1235 29.4647 24.1627 29.535 24.2325L31.9012 26.5988C32.2868 26.9842 32.7828 27.2401 33.3204 27.3308C33.858 27.4215 34.4105 27.3426 34.9012 27.105C35.423 26.857 35.9575 26.6367 36.5025 26.445C37.0132 26.2638 37.4554 25.9291 37.7683 25.4866C38.0812 25.0441 38.2494 24.5157 38.25 23.9738V20.625C38.25 20.5255 38.2895 20.4302 38.3598 20.3598C38.4302 20.2895 38.5255 20.25 38.625 20.25H45.375C45.4745 20.25 45.5698 20.2895 45.6402 20.3598C45.7105 20.4302 45.75 20.5255 45.75 20.625V23.9738C45.7506 24.5177 45.9202 25.048 46.2352 25.4913C46.5503 25.9347 46.9953 26.2693 47.5088 26.4488C48.0524 26.6406 48.5857 26.8609 49.1062 27.1088C49.597 27.3464 50.1495 27.4253 50.6871 27.3346C51.2247 27.2438 51.7207 26.988 52.1062 26.6025L54.4725 24.2362C54.5428 24.1664 54.6378 24.1272 54.7369 24.1272C54.8359 24.1272 54.931 24.1664 55.0012 24.2362L59.775 29.01C59.8448 29.0803 59.884 29.1753 59.884 29.2744C59.884 29.3734 59.8448 29.4685 59.775 29.5388L57.4087 31.905C57.0233 32.2906 56.7674 32.7866 56.6767 33.3242C56.586 33.8618 56.6649 34.4143 56.9025 34.905C57.1505 35.4268 57.3708 35.9613 57.5625 36.5062C57.7426 37.019 58.0774 37.4632 58.5208 37.7775C58.9641 38.0919 59.494 38.2609 60.0375 38.2612H63.375C63.4745 38.2612 63.5698 38.3008 63.6402 38.3711C63.7105 38.4414 63.75 38.5368 63.75 38.6362V45.375Z" fill="white"/>
<path d="M30.984 46V37.672H32.112V46H30.984ZM36.3098 46.12C35.7898 46.12 35.3178 45.992 34.8938 45.736C34.4698 45.472 34.1338 45.116 33.8857 44.668C33.6458 44.22 33.5258 43.716 33.5258 43.156C33.5258 42.596 33.6458 42.092 33.8857 41.644C34.1338 41.196 34.4658 40.84 34.8818 40.576C35.3058 40.312 35.7818 40.18 36.3098 40.18C36.7418 40.18 37.1258 40.272 37.4618 40.456C37.8058 40.632 38.0818 40.88 38.2898 41.2C38.4978 41.512 38.6138 41.876 38.6378 42.292V44.008C38.6138 44.416 38.4978 44.78 38.2898 45.1C38.0898 45.42 37.8178 45.672 37.4738 45.856C37.1378 46.032 36.7498 46.12 36.3098 46.12ZM36.4898 45.1C37.0258 45.1 37.4578 44.92 37.7858 44.56C38.1138 44.192 38.2778 43.724 38.2778 43.156C38.2778 42.764 38.2018 42.424 38.0498 42.136C37.9058 41.84 37.6978 41.612 37.4258 41.452C37.1538 41.284 36.8378 41.2 36.4778 41.2C36.1178 41.2 35.7978 41.284 35.5178 41.452C35.2458 41.62 35.0298 41.852 34.8698 42.148C34.7178 42.436 34.6418 42.768 34.6418 43.144C34.6418 43.528 34.7178 43.868 34.8698 44.164C35.0298 44.452 35.2498 44.68 35.5298 44.848C35.8098 45.016 36.1298 45.1 36.4898 45.1ZM38.2058 46V44.464L38.4098 43.072L38.2058 41.692V40.3H39.2978V46H38.2058ZM43.2941 46.12C42.7741 46.12 42.3021 45.992 41.8781 45.736C41.4541 45.472 41.1181 45.116 40.8701 44.668C40.6301 44.22 40.5101 43.716 40.5101 43.156C40.5101 42.596 40.6301 42.092 40.8701 41.644C41.1181 41.196 41.4501 40.84 41.8661 40.576C42.2901 40.312 42.7661 40.18 43.2941 40.18C43.7261 40.18 44.1101 40.272 44.4461 40.456C44.7901 40.632 45.0661 40.88 45.2741 41.2C45.4821 41.512 45.5981 41.876 45.6221 42.292V44.008C45.5981 44.416 45.4821 44.78 45.2741 45.1C45.0741 45.42 44.8021 45.672 44.4581 45.856C44.1221 46.032 43.7341 46.12 43.2941 46.12ZM43.4741 45.1C44.0101 45.1 44.4421 44.92 44.7701 44.56C45.0981 44.192 45.2621 43.724 45.2621 43.156C45.2621 42.764 45.1861 42.424 45.0341 42.136C44.8901 41.84 44.6821 41.612 44.4101 41.452C44.1381 41.284 43.8221 41.2 43.4621 41.2C43.1021 41.2 42.7821 41.284 42.5021 41.452C42.2301 41.62 42.0141 41.852 41.8541 42.148C41.7021 42.436 41.6261 42.768 41.6261 43.144C41.6261 43.528 41.7021 43.868 41.8541 44.164C42.0141 44.452 42.2341 44.68 42.5141 44.848C42.7941 45.016 43.1141 45.1 43.4741 45.1ZM45.1901 46V44.464L45.3941 43.072L45.1901 41.692V40.3H46.2821V46H45.1901ZM50.3625 46.12C49.7065 46.12 49.1465 46 48.6825 45.76C48.2185 45.52 47.8065 45.172 47.4465 44.716L48.2145 43.948C48.4785 44.316 48.7825 44.596 49.1265 44.788C49.4705 44.972 49.8945 45.064 50.3985 45.064C50.8945 45.064 51.2905 44.956 51.5865 44.74C51.8905 44.524 52.0425 44.228 52.0425 43.852C52.0425 43.54 51.9705 43.288 51.8265 43.096C51.6825 42.904 51.4865 42.748 51.2385 42.628C50.9985 42.5 50.7345 42.388 50.4465 42.292C50.1585 42.188 49.8705 42.08 49.5825 41.968C49.2945 41.848 49.0305 41.704 48.7905 41.536C48.5505 41.36 48.3545 41.132 48.2025 40.852C48.0585 40.572 47.9865 40.22 47.9865 39.796C47.9865 39.324 48.0985 38.924 48.3225 38.596C48.5545 38.26 48.8665 38.004 49.2585 37.828C49.6585 37.644 50.1065 37.552 50.6025 37.552C51.1465 37.552 51.6345 37.66 52.0665 37.876C52.4985 38.084 52.8505 38.36 53.1225 38.704L52.3545 39.472C52.1065 39.184 51.8385 38.968 51.5505 38.824C51.2705 38.68 50.9465 38.608 50.5785 38.608C50.1305 38.608 49.7745 38.708 49.5105 38.908C49.2465 39.1 49.1145 39.372 49.1145 39.724C49.1145 40.004 49.1865 40.232 49.3305 40.408C49.4825 40.576 49.6785 40.72 49.9185 40.84C50.1585 40.96 50.4225 41.072 50.7105 41.176C51.0065 41.272 51.2985 41.38 51.5865 41.5C51.8745 41.62 52.1385 41.772 52.3785 41.956C52.6185 42.14 52.8105 42.38 52.9545 42.676C53.1065 42.964 53.1825 43.328 53.1825 43.768C53.1825 44.504 52.9265 45.08 52.4145 45.496C51.9105 45.912 51.2265 46.12 50.3625 46.12Z" fill="white"/>
</g>
<defs>
<clipPath id="clip0_608_334">
<rect width="48" height="48" fill="white" transform="translate(18 18)"/>
</clipPath>
</defs>
</svg>
