<svg width="28" height="29" viewBox="0 0 28 29" fill="none" xmlns="http://www.w3.org/2000/svg">
<path d="M18.1562 5.21094C19.4326 5.21094 20.6567 5.73608 21.5592 6.67083C22.4617 7.60558 22.9688 8.87337 22.9688 10.1953V18.8047C22.9688 20.1266 22.4617 21.3944 21.5592 22.3292C20.6567 23.2639 19.4326 23.7891 18.1562 23.7891H9.84375C8.5674 23.7891 7.34332 23.2639 6.4408 22.3292C5.53828 21.3944 5.03125 20.1266 5.03125 18.8047V10.1953C5.03125 8.87337 5.53828 7.60558 6.4408 6.67083C7.34332 5.73608 8.5674 5.21094 9.84375 5.21094H18.1562ZM18.1562 3.39844H9.84375C8.10486 3.40382 6.43868 4.12164 5.2091 5.39514C3.97952 6.66864 3.28644 8.39432 3.28125 10.1953V18.8047C3.28644 20.6057 3.97952 22.3314 5.2091 23.6049C6.43868 24.8784 8.10486 25.5962 9.84375 25.6016H18.1562C19.8951 25.5962 21.5613 24.8784 22.7909 23.6049C24.0205 22.3314 24.7136 20.6057 24.7188 18.8047V10.1953C24.7136 8.39432 24.0205 6.66864 22.7909 5.39514C21.5613 4.12164 19.8951 3.40382 18.1562 3.39844Z" fill="white"/>
<path d="M19.7181 7.25C19.4702 7.25 19.2279 7.32614 19.0218 7.46879C18.8156 7.61144 18.655 7.81419 18.5601 8.0514C18.4652 8.28862 18.4404 8.54964 18.4888 8.80147C18.5371 9.0533 18.6565 9.28461 18.8318 9.46617C19.0071 9.64773 19.2305 9.77137 19.4736 9.82146C19.7167 9.87155 19.9688 9.84584 20.1978 9.74759C20.4268 9.64933 20.6226 9.48293 20.7603 9.26945C20.8981 9.05596 20.9716 8.80496 20.9716 8.5482C20.9716 8.37772 20.9391 8.20891 20.8762 8.0514C20.8132 7.8939 20.7208 7.75078 20.6044 7.63024C20.488 7.50969 20.3499 7.41406 20.1978 7.34882C20.0457 7.28358 19.8827 7.25 19.7181 7.25Z" fill="white"/>
<path d="M14.0591 10.5293C14.8242 10.5289 15.5722 10.7635 16.2086 11.2034C16.8449 11.6434 17.3409 12.269 17.6339 13.001C17.9269 13.733 18.0037 14.5386 17.8545 15.3158C17.7054 16.0931 17.337 16.807 16.796 17.3673C16.255 17.9277 15.5657 18.3092 14.8152 18.4637C14.0648 18.6182 13.287 18.5387 12.5802 18.2352C11.8734 17.9318 11.2694 17.418 10.8446 16.7589C10.4198 16.0999 10.1933 15.3251 10.1938 14.5327C10.1955 13.4715 10.6033 12.4542 11.3278 11.7038C12.0523 10.9535 13.0345 10.5311 14.0591 10.5293ZM14.0591 8.71681C12.9484 8.71905 11.8633 9.06223 10.9409 9.703C10.0185 10.3438 9.3002 11.2533 8.87677 12.3168C8.45333 13.3802 8.34378 14.5498 8.56194 15.6778C8.7801 16.8057 9.31619 17.8413 10.1025 18.6538C10.8887 19.4662 11.8899 20.019 12.9794 20.2424C14.069 20.4657 15.198 20.3495 16.2238 19.9084C17.2495 19.4674 18.1261 18.7213 18.7426 17.7645C19.3591 16.8076 19.6879 15.683 19.6875 14.5327C19.6872 13.7679 19.5413 13.0106 19.2582 12.3042C18.9751 11.5979 18.5603 10.9563 18.0375 10.4161C17.5148 9.87592 16.8943 9.44779 16.2116 9.15621C15.529 8.86463 14.7975 8.71532 14.0591 8.71681Z" fill="white"/>
</svg>
