<?xml version="1.0" encoding="utf-8"?>
<!-- Generator: Adobe Illustrator 21.0.0, SVG Export Plug-In . SVG Version: 6.00 Build 0)  -->
<svg version="1.1" xmlns="http://www.w3.org/2000/svg" xmlns:xlink="http://www.w3.org/1999/xlink" x="0px" y="0px"
	 viewBox="0 0 172 66" style="enable-background:new 0 0 172 66;" xml:space="preserve">
<style type="text/css">
	.st0{display:none;}
	.st1{fill:none;stroke:#FFFFFF;stroke-width:3;}
	.st2{fill:#FFFFFF;}
</style>
<g id="Layer_2" class="st0">
</g>
<g id="Layer_1">
	<rect x="1.5" y="5.5" class="st1" width="51" height="51"/>
	<path class="st2" d="M32.2,12l0.2,0.1l0.5,0.9l0.8,1.7l0.8,1.7l0.7,1.4l0.7,1.4l0.7,1.4l0.8,1.7l0.8,1.7l1,2.2l0.8,1.7l1.3,2.8
		l0.7,1.6l0.6,1.3l0.5,1l0.8,1.7l0.7,1.4l0.9,1.9l0.7,1.4L47,43l0.8,1.7l0.8,1.7l0.7,1.7l0.6,1.5L50,50h-5.9l-3.7-0.1L39,49.9
		l-0.3-0.2l-0.5-1l-0.7-1.4l-0.8-1.7l-0.7-1.4l-1.8-3.6l-0.7-1.4l-1.3-2.7L31.8,35l-1-2.2l-1.5-3l-0.5-0.9l-0.6-0.8l-0.4-0.4
		l-0.6-0.4L26.4,27l-0.7-0.2l-1-0.1l-1,0.2l-0.7,0.4L22.4,28l-0.6,0.7l-0.8,1.2l-0.5,0.7l-1.2,1.9l-1,1.6l-0.5,0.8l-0.4,0.6
		l-0.1,0.2l6.5,0.1l1.2,0.2l1.6,0.6l1,0.6l0.8,0.6l0.8,0.8l0.5,0.8l0.5,1l0.3,0.9l0.2,1.1v1.2l-0.2,1l-0.4,1.1l-0.4,0.9L29.3,47
		l-0.5,0.6l-0.5,0.5l-1,0.7l-0.8,0.4L25,49.8l-0.8,0.1L23.1,50h-7.6l-8.3-0.1l0.4-0.7l1.6-2.5l0.7-1.1l1.8-2.7l1.5-2.4l0.6-1l0.7-1
		l0.7-1.1l0.6-0.8l0.5-0.7l-0.2-0.1l-1.3,0.1l-0.4,0.1L11,35.9l-1.2-0.1l-1.3-0.3L7.6,35l-0.8-0.6l-0.6-0.6l-0.7-0.7L5,32.4
		l-0.4-0.6l-0.4-1.1l-0.2-0.8L4,29.4v-0.9l0.2-1.2l0.3-1l0.3-0.7l0.5-1l0.8-0.9l1.2-0.9l0.8-0.4l1-0.3l0.9-0.1h15.6l0.3-0.3l0.7-1.1
		l0.8-1.3l0.8-1.2l2.5-3.9l0.8-1.2L32.2,12z"/>
	<path class="st2" d="M65,46.8c-3.2,0-5.5-0.7-6.7-2.2c-0.7-0.8-1-1.6-1-2.6c0-2.3,1.7-4.8,5.2-7.5c1.1-0.9,2.2-1.3,3.2-1.3
		c0.3,0,0.4,0,0.4,0.1c0,0.2-0.4,0.5-1.2,0.8c-1.4,0.6-2.6,1.6-3.6,3.2c-1,1.6-1.5,3.1-1.5,4.5c0,2.6,2,3.9,6.1,3.9
		c2.5,0,4.8-0.4,6.7-1.2c4.3-1.7,7.7-3.8,10.3-6.5c2.2-2.3,3.4-4.4,3.4-6.5c0-2.5-1.5-3.8-4.6-3.8c-4.9,0-8.5-0.6-10.8-1.8
		c-2-1-2.9-2.3-2.9-3.9c0-2.8,2.1-5.2,6.4-7c3.5-1.6,6.8-2.4,9.9-2.4c2.6,0,4.6,0.5,6,1.6c0.4,0.2,0.6,0.5,0.6,1
		c0,0.6-0.4,1.2-1.2,1.9c-0.7,0.6-1.3,0.9-1.6,0.9c-0.1,0,0-0.2,0.3-0.6c0.4-0.5,0.6-1,0.6-1.4c0-0.4-0.1-0.7-0.4-1
		c-0.9-0.9-2.4-1.4-4.8-1.4c-2.6,0-5.2,0.6-7.9,1.7c-2.8,1.2-4.5,2.6-5.1,4.3c-0.3,0.8-0.5,1.6-0.5,2.3c0,2.8,4,4.3,12,4.3
		c4.8,0,7.2,1.4,7.2,4.3c0,2.4-1.6,5.2-4.7,8.3c-3.2,3.1-6.6,5.3-10.3,6.6C71.2,46.3,68.1,46.8,65,46.8z M99.1,26.2
		c-0.5,0.1-1.1,0-1.7-0.2c-0.6-0.2-0.9-0.4-0.9-0.7c0-0.2,0.1-0.4,0.2-0.6c0.1-0.2,0.3-0.4,0.5-0.7c0.5-0.7,0.9-1.1,1-1.2
		c0.1-0.2,0.3-0.3,0.5-0.3c0.7,0,1.3,0.4,1.7,1.1c0,0,0,0.1,0,0.2c0,0.3-0.2,0.7-0.5,1.2C99.6,25.7,99.3,26.1,99.1,26.2z M91.9,43.5
		c-1.9-0.4-2.8-1.2-2.8-2.2c0-0.5,0.6-2.3,1.9-5.4c0.4-0.6,0.8-1.5,1.4-2.6c0.6-1.2,1.4-2.6,2.3-4.3c0.2-0.3,0.5-0.4,1.1-0.4
		c0.5,0,0.9,0.1,1.4,0.2c0.5,0.1,0.7,0.3,0.6,0.4c-4.2,6-6.3,10.1-6.3,12.4c0,0.7,0.2,1,0.7,1c0.9,0,2.2-0.6,4.1-1.8
		c2.2-1.5,4.1-3.3,5.6-5.4c0.3-0.5,0.6-0.8,1-0.8c0.1,0,0.1,0,0.1,0.1c0,0.2-0.1,0.5-0.4,0.9c-1.4,2.2-3.4,4.2-5.9,5.9
		C94.2,43,92.7,43.7,91.9,43.5z M111.6,43.5c-0.6,0-1.2-0.2-1.7-0.5c-0.5-0.3-0.8-0.6-1-1c-0.1-0.3-0.1-0.6-0.1-1
		c0-0.5,0.1-1.2,0.2-1.9c0.1-0.7,0.3-1.5,0.6-2.4c-0.2,0.4-0.5,0.9-1,1.4c-0.4,0.5-0.9,1.2-1.4,1.9c-1.7,2-3.1,3.1-4.2,3.1
		c-0.2,0-0.3,0-0.4,0c-1.9-0.4-2.9-1.5-2.9-3.3c0-1.4,0.7-3.1,2-5.3c0.8-1.3,2.1-2.6,3.8-3.8c2.2-1.6,4.2-2.4,6.2-2.4
		c0.7,0,1.4,0.1,2.1,0.3l1.4-2.6c0.7-1.3,1.3-2.5,1.8-3.6c0.5-1.1,0.9-2,1.2-2.7c0.3-0.6,1.2-0.9,2.7-0.9c0.7,0,1,0.1,0.9,0.2
		l-6.3,10.5c0.1,0.2,0.2,0.4,0.1,0.7c0,0.2-0.1,0.2-0.2,0.1l-0.2-0.2l-0.6,1.1c-2.4,4.1-3.6,7.3-3.6,9.6c0,0.9,0.3,1.3,0.9,1.3
		c0.7,0,1.7-0.5,3.1-1.5c1.9-1.4,3.7-3.3,5.3-5.6c0.4-0.5,0.7-0.7,1-0.7c0.1,0,0.1,0,0.1,0.1c0,0.2-0.1,0.5-0.4,0.9
		c-1.4,2.1-3,4-4.8,5.6c-1.4,1.2-2.6,2-3.4,2.2C112.3,43.5,112,43.5,111.6,43.5z M102.5,42.5c0.8,0.3,2.4-1.1,4.9-4.3
		c1-1.2,1.8-2.3,2.5-3.3c0.7-1,1.3-1.9,1.7-2.6c0.1-0.3,0.3-0.6,0.6-1.1c0.3-0.5,0.6-1,1.1-1.7c-0.1,0-0.2,0-0.3,0
		c-0.1,0-0.2,0-0.3,0c-1.3,0-2.7,0.5-4.2,1.5c-1.5,1-2.9,2.3-4.2,4c-0.9,1.2-1.6,2.3-2,3.3c-0.4,1-0.6,1.9-0.6,2.6
		C101.6,41.7,101.9,42.2,102.5,42.5z M129.4,43.5c-0.6,0-1.2-0.2-1.8-0.6c-0.5-0.4-0.8-0.8-0.9-1.2c-0.1-0.4,0.5-2,1.8-4.8l-1.1,1.6
		c-0.5,0.7-1,1.3-1.4,1.9c-0.5,0.5-0.9,1-1.3,1.4c-1.2,1.2-2.2,1.6-3.1,1.4c-1.9-0.4-2.9-1.5-2.9-3.3c0-1.4,0.7-3.1,2-5.3
		c0.4-0.6,0.9-1.3,1.6-1.9s1.4-1.3,2.2-1.9c2.1-1.6,4.2-2.4,6.2-2.4c1.2,0,2.4,0.3,3.5,1c0.4,0.3,0.5,0.5,0.5,0.8
		c0,0.2-0.1,0.3-0.2,0.3c0,0-0.1,0-0.1,0c-0.7-0.7-1.6-1.1-2.7-1.1c-1.3,0-2.7,0.5-4.3,1.5c-1.5,1-2.9,2.3-4.1,4
		c-1.7,2.4-2.6,4.4-2.6,5.9c0,0.9,0.3,1.4,0.9,1.6c0.8,0.3,2.4-1.1,4.9-4.3c1-1.2,1.9-2.4,2.5-3.4c0.7-1,1.3-1.8,1.7-2.5
		c0.2-0.4,0.5-0.5,1.1-0.5c1,0,1.4,0.3,1.4,0.9c0,0.1,0,0.2,0,0.2c-2.8,4.4-4.2,7.4-4.2,9c0,0.4,0.1,0.6,0.3,0.6
		c0.7,0.2,1.8-0.3,3.4-1.5c1.9-1.4,3.7-3.3,5.3-5.6c0.4-0.5,0.7-0.7,1-0.7c0.1,0,0.1,0,0.1,0.1c0,0.2-0.1,0.5-0.4,0.9
		c-0.7,1.1-1.4,2-2.3,3c-0.8,0.9-1.7,1.8-2.7,2.6c-1.4,1.2-2.6,1.9-3.5,2.2C130,43.5,129.7,43.5,129.4,43.5z M138.9,43.6
		c-0.2,0.1-1-0.4-2.4-1.2c-0.2-0.2-0.2-0.5-0.2-0.9c0-2.1,0.9-5.6,2.7-10.6c0.4-1.2,1.1-1.9,1.8-1.9c0.4,0,0.7,0.2,1,0.5
		c0.3,0.3,0.4,0.6,0.3,0.8c-0.4,0.7-0.7,1.6-1.2,2.5c-0.4,0.9-0.8,2-1.2,3.1c-1.1,2.8-1.6,4.7-1.6,5.8c0,0.4,0.1,0.7,0.4,0.7
		c0.1,0,0.3,0,0.4-0.1c0.5-0.3,1.3-1,2.3-2c1-1,2.2-2.4,3.7-4.1c3.2-3.7,5.3-6.4,6.2-8.3c0.4-0.8,0.9-1.2,1.4-1.2
		c0.4,0,0.6,0.3,0.6,0.8c0,0.5-0.3,1-0.8,1.6c-1.2,1.4-2.5,2.9-3.8,4.5c-1.3,1.5-2.8,3.2-4.3,4.8C141,42,139.2,43.7,138.9,43.6z
		 M160.6,26.2c-0.5,0.1-1.1,0-1.7-0.2c-0.6-0.2-0.9-0.4-0.9-0.7c0-0.2,0.1-0.4,0.2-0.6c0.1-0.2,0.3-0.4,0.5-0.7
		c0.5-0.7,0.9-1.1,1-1.2c0.1-0.2,0.3-0.3,0.5-0.3c0.7,0,1.3,0.4,1.7,1.1c0,0,0,0.1,0,0.2c0,0.3-0.2,0.7-0.5,1.2
		C161.1,25.7,160.8,26.1,160.6,26.2z M153.3,43.5c-1.9-0.4-2.8-1.2-2.8-2.2c0-0.5,0.6-2.3,1.9-5.4c0.4-0.6,0.8-1.5,1.4-2.6
		c0.6-1.2,1.4-2.6,2.3-4.3c0.2-0.3,0.5-0.4,1.1-0.4c0.5,0,0.9,0.1,1.4,0.2c0.5,0.1,0.7,0.3,0.6,0.4c-4.2,6-6.3,10.1-6.3,12.4
		c0,0.7,0.2,1,0.7,1c0.9,0,2.2-0.6,4.1-1.8c2.2-1.5,4.1-3.3,5.6-5.4c0.3-0.5,0.6-0.8,1-0.8c0.1,0,0.1,0,0.1,0.1
		c0,0.2-0.1,0.5-0.4,0.9c-1.4,2.2-3.4,4.2-5.9,5.9C155.6,43,154.1,43.7,153.3,43.5z"/>
</g>
</svg>
