<svg width="84" height="84" viewBox="0 0 84 84" fill="none" xmlns="http://www.w3.org/2000/svg">
<rect width="84" height="84" rx="4" fill="#CC0000"/>
<g clip-path="url(#clip0_608_378)">
<path d="M56.1672 40.3816C56.812 40.6726 56.6256 42.7342 56.5177 43.2111C56.2613 44.3431 55.6282 44.6379 54.579 44.9089C53.0296 45.309 51.1595 45.416 50.6459 43.5527C50.3275 42.3976 50.2114 40.3185 50.8081 39.2492C51.3809 38.2227 52.5084 38.2656 53.5031 38.4637C54.2074 38.604 56.0193 38.9078 56.0514 39.8799C56.0991 41.324 58.3493 41.3306 58.3014 39.8799C58.1948 36.6515 53.2219 35.341 50.6852 36.4631C47.7859 37.7457 47.609 42.3987 48.7485 44.9485C50.0729 47.9117 54.41 48.0034 56.9125 46.4734C59.0936 45.1398 60.0131 39.6622 57.3029 38.4388C55.9935 37.8477 54.8481 39.7861 56.1672 40.3816Z" fill="white"/>
<path d="M51.6563 30.0187C54.1661 30.0168 54.7965 31.777 56.1893 33.3744C56.4594 33.6843 56.906 33.7435 57.2838 33.6638C57.6348 33.6376 57.9662 33.5488 58.2779 33.3972C61.7984 32.858 63.0287 33.5281 61.9688 35.4075C61.9535 36.0591 61.316 36.7591 61.3953 37.4665C61.6987 40.172 65.8048 39.7045 63.4616 43.6149C62.5892 45.0707 61.7646 44.1748 61.4374 46.1007C61.289 46.9742 62.55 48.7761 62.3179 49.437C61.4047 52.0377 58.4856 50.6253 56.6172 50.0891C56.0269 49.9196 55.4017 50.2953 55.2333 50.8748C53.5537 56.6538 51.4485 50.7968 50.2199 50.2365C49.0015 49.6809 47.6847 50.7435 46.3737 50.383C43.3602 49.5542 45.6611 47.6711 45.0345 46.0137C44.4554 44.4818 42.7778 44.1751 42.2685 43.1223C41.1623 40.8355 44.2429 40.6164 44.9509 39.0898C45.6626 37.5552 43.7603 34.1369 44.6306 33.1274C45.9941 31.5459 48.4698 33.8227 50.155 33.1893C51.2206 32.7887 52.084 31.0853 52.6865 30.2639C53.5438 29.0952 51.5922 27.9715 50.7437 29.1283C48.5076 32.1768 46.6917 29.1986 43.8869 30.5349C41.8109 31.5239 42.4109 33.4042 42.6307 35.4119C42.8057 37.0111 42.9696 37.1776 42.0623 38.4146C41.4933 39.1903 40.1966 39.3347 39.7065 40.0648C39.2932 40.6805 39.0226 41.299 39.0631 42.1259C39.0984 42.8484 39.4447 43.5767 39.8797 44.1636C40.0881 44.4447 40.4262 44.5057 40.6641 44.7592C41.1301 45.0269 41.5424 45.3638 41.901 45.7698C42.8004 46.1306 42.9102 46.5951 42.2302 47.1632C42.385 49.3115 41.6305 50.1535 43.6434 51.8337C45.6693 53.5247 47.8097 51.6427 49.636 52.8224C51.2788 53.8835 50.5688 56.2727 53.3724 56.1261C55.8525 55.9964 56.8188 53.4828 57.4029 51.4729C56.9416 51.7349 56.4803 51.9968 56.019 52.2587C58.915 53.0898 64.5249 54.2093 64.6387 49.4641C64.4857 48.7377 64.2596 48.0329 63.9606 47.3498C63.9837 46.108 64.5407 45.295 65.6316 44.9105C66.0003 44.473 66.5924 44.2011 66.8963 43.689C67.815 42.1413 67.4803 40.8018 66.4231 39.4804C65.7141 38.5944 63.9833 38.1775 63.777 36.9913C63.6109 36.0361 64.8506 34.8504 64.6971 33.7503C64.5258 32.5223 63.1574 31.4418 62.1209 30.9554C60.5171 30.2027 60.5262 30.7464 58.7941 30.6564C56.5178 30.5382 57.559 29.9618 56.0786 28.8935C54.4277 27.7022 54.0105 27.7669 51.6563 27.7687C50.2086 27.7698 50.2061 30.0198 51.6563 30.0187Z" fill="white"/>
<path d="M48.4538 52.387C48.5953 54.623 49.0693 57.2899 48.7204 59.511C48.0782 63.5984 45.6429 64.9926 41.7929 64.9995C36.8419 65.0083 31.8909 65.0172 26.9399 65.026C23.8791 65.0314 20.8825 65.7702 19.3129 61.6792C18.6114 59.8507 19.1965 56.547 19.1945 54.6021C19.19 50.1463 19.191 45.6905 19.1893 41.2347C19.1875 36.7789 19.1858 32.3231 19.184 27.8673C19.1828 24.7991 18.1538 20.668 21.8662 19.0093C23.224 18.4027 26.2531 19.0132 27.6798 19.0145C32.2014 19.0185 36.7231 19.0226 41.2448 19.0266C42.5367 19.0277 43.8286 19.0289 45.1205 19.03C48.0981 19.5805 49.3604 21.0375 48.9074 23.4012C49.3626 25.5111 48.953 28.2295 48.9735 30.3943C48.9871 31.8413 51.2372 31.8449 51.2235 30.3943C51.1865 26.4788 52.9105 19.2428 48.3629 17.2439C46.3118 16.3424 43.4067 16.7785 41.2448 16.7766C37.3691 16.7731 33.4933 16.7697 29.6176 16.7662C25.2088 16.7623 18.4676 15.0213 17.0373 20.4617C16.3004 23.2645 16.9336 26.8698 16.9348 29.7769C16.9364 33.9145 16.938 38.052 16.9396 42.1895C16.9423 49.0911 15.9185 56.8939 17.2619 63.6927C18.2805 68.8482 23.7843 67.2816 27.9301 67.2742C32.221 67.2666 36.5118 67.2589 40.8027 67.2513C43.2738 67.2469 46.5069 67.8134 48.801 66.5917C52.8682 64.4256 50.926 55.8975 50.7038 52.387C50.6128 50.949 48.3621 50.9387 48.4538 52.387Z" fill="white"/>
<path d="M18.3226 27.1426C28.6976 27.1426 39.0726 27.1426 49.4476 27.1426C50.8953 27.1426 50.8977 24.8926 49.4476 24.8926C39.0726 24.8926 28.6976 24.8926 18.3226 24.8926C16.8748 24.8926 16.8724 27.1426 18.3226 27.1426Z" fill="white"/>
<path d="M18.1976 57.0176C28.3226 57.0176 38.4476 57.0176 48.5726 57.0176C50.0203 57.0176 50.0227 54.7676 48.5726 54.7676C38.4476 54.7676 28.3226 54.7676 18.1976 54.7676C16.7498 54.7676 16.7474 57.0176 18.1976 57.0176Z" fill="white"/>
<path d="M32.4479 61.6539C33.784 61.602 35.1173 61.62 36.4516 61.7077C37.8972 61.8028 37.8914 59.5524 36.4516 59.4577C35.1173 59.37 33.784 59.352 32.4479 59.4039C31.0047 59.4599 30.9975 61.7102 32.4479 61.6539Z" fill="white"/>
</g>
<defs>
<clipPath id="clip0_608_378">
<rect width="52" height="52" fill="white" transform="translate(16 16)"/>
</clipPath>
</defs>
</svg>
