<svg width="84" height="84" viewBox="0 0 84 84" fill="none" xmlns="http://www.w3.org/2000/svg">
<rect width="84" height="84" rx="4" fill="#CC0000"/>
<path d="M58.7392 36.2232C58.7414 36.1585 58.75 36.0959 58.75 36.0312C58.75 26.5049 51.0263 18.7812 41.5 18.7812C33.2761 18.7812 26.4106 24.5406 24.6812 32.2406C18.2297 33.9569 13.4688 39.8198 13.4688 46.8125C13.4688 55.1486 20.2264 61.9062 28.5625 61.9062H56.5938C63.7396 61.9062 69.5312 56.1146 69.5312 48.9688C69.5312 42.5561 64.8608 37.2474 58.7392 36.2232Z" stroke="white" stroke-width="2" stroke-miterlimit="10" stroke-linecap="round" stroke-linejoin="round"/>
<path d="M28.74 45.76V44.776H31.008C31.32 44.776 31.596 44.712 31.836 44.584C32.084 44.456 32.276 44.276 32.412 44.044C32.556 43.812 32.628 43.536 32.628 43.216C32.628 42.896 32.556 42.62 32.412 42.388C32.276 42.156 32.084 41.976 31.836 41.848C31.596 41.72 31.32 41.656 31.008 41.656H28.74V40.672H31.08C31.592 40.672 32.048 40.776 32.448 40.984C32.856 41.192 33.176 41.488 33.408 41.872C33.648 42.248 33.768 42.696 33.768 43.216C33.768 43.728 33.648 44.176 33.408 44.56C33.176 44.936 32.856 45.232 32.448 45.448C32.048 45.656 31.592 45.76 31.08 45.76H28.74ZM27.984 49V40.672H29.112V49H27.984ZM37.1652 49.12C36.6452 49.12 36.1732 48.992 35.7492 48.736C35.3252 48.472 34.9892 48.116 34.7412 47.668C34.5012 47.22 34.3812 46.716 34.3812 46.156C34.3812 45.596 34.5012 45.092 34.7412 44.644C34.9892 44.196 35.3212 43.84 35.7372 43.576C36.1612 43.312 36.6372 43.18 37.1652 43.18C37.5972 43.18 37.9812 43.272 38.3172 43.456C38.6612 43.632 38.9372 43.88 39.1452 44.2C39.3532 44.512 39.4692 44.876 39.4932 45.292V47.008C39.4692 47.416 39.3532 47.78 39.1452 48.1C38.9452 48.42 38.6732 48.672 38.3292 48.856C37.9932 49.032 37.6052 49.12 37.1652 49.12ZM37.3452 48.1C37.8812 48.1 38.3132 47.92 38.6412 47.56C38.9692 47.192 39.1332 46.724 39.1332 46.156C39.1332 45.764 39.0572 45.424 38.9052 45.136C38.7612 44.84 38.5532 44.612 38.2812 44.452C38.0092 44.284 37.6932 44.2 37.3332 44.2C36.9732 44.2 36.6532 44.284 36.3732 44.452C36.1012 44.62 35.8852 44.852 35.7252 45.148C35.5732 45.436 35.4972 45.768 35.4972 46.144C35.4972 46.528 35.5732 46.868 35.7252 47.164C35.8852 47.452 36.1052 47.68 36.3852 47.848C36.6652 48.016 36.9852 48.1 37.3452 48.1ZM39.0612 49V47.464L39.2652 46.072L39.0612 44.692V43.3H40.1532V49H39.0612ZM44.1496 49.12C43.6296 49.12 43.1576 48.992 42.7336 48.736C42.3096 48.472 41.9736 48.116 41.7256 47.668C41.4856 47.22 41.3656 46.716 41.3656 46.156C41.3656 45.596 41.4856 45.092 41.7256 44.644C41.9736 44.196 42.3056 43.84 42.7216 43.576C43.1456 43.312 43.6216 43.18 44.1496 43.18C44.5816 43.18 44.9656 43.272 45.3016 43.456C45.6456 43.632 45.9216 43.88 46.1296 44.2C46.3376 44.512 46.4536 44.876 46.4776 45.292V47.008C46.4536 47.416 46.3376 47.78 46.1296 48.1C45.9296 48.42 45.6576 48.672 45.3136 48.856C44.9776 49.032 44.5896 49.12 44.1496 49.12ZM44.3296 48.1C44.8656 48.1 45.2976 47.92 45.6256 47.56C45.9536 47.192 46.1176 46.724 46.1176 46.156C46.1176 45.764 46.0416 45.424 45.8896 45.136C45.7456 44.84 45.5376 44.612 45.2656 44.452C44.9936 44.284 44.6776 44.2 44.3176 44.2C43.9576 44.2 43.6376 44.284 43.3576 44.452C43.0856 44.62 42.8696 44.852 42.7096 45.148C42.5576 45.436 42.4816 45.768 42.4816 46.144C42.4816 46.528 42.5576 46.868 42.7096 47.164C42.8696 47.452 43.0896 47.68 43.3696 47.848C43.6496 48.016 43.9696 48.1 44.3296 48.1ZM46.0456 49V47.464L46.2496 46.072L46.0456 44.692V43.3H47.1376V49H46.0456ZM51.218 49.12C50.562 49.12 50.002 49 49.538 48.76C49.074 48.52 48.662 48.172 48.302 47.716L49.07 46.948C49.334 47.316 49.638 47.596 49.982 47.788C50.326 47.972 50.75 48.064 51.254 48.064C51.75 48.064 52.146 47.956 52.442 47.74C52.746 47.524 52.898 47.228 52.898 46.852C52.898 46.54 52.826 46.288 52.682 46.096C52.538 45.904 52.342 45.748 52.094 45.628C51.854 45.5 51.59 45.388 51.302 45.292C51.014 45.188 50.726 45.08 50.438 44.968C50.15 44.848 49.886 44.704 49.646 44.536C49.406 44.36 49.21 44.132 49.058 43.852C48.914 43.572 48.842 43.22 48.842 42.796C48.842 42.324 48.954 41.924 49.178 41.596C49.41 41.26 49.722 41.004 50.114 40.828C50.514 40.644 50.962 40.552 51.458 40.552C52.002 40.552 52.49 40.66 52.922 40.876C53.354 41.084 53.706 41.36 53.978 41.704L53.21 42.472C52.962 42.184 52.694 41.968 52.406 41.824C52.126 41.68 51.802 41.608 51.434 41.608C50.986 41.608 50.63 41.708 50.366 41.908C50.102 42.1 49.97 42.372 49.97 42.724C49.97 43.004 50.042 43.232 50.186 43.408C50.338 43.576 50.534 43.72 50.774 43.84C51.014 43.96 51.278 44.072 51.566 44.176C51.862 44.272 52.154 44.38 52.442 44.5C52.73 44.62 52.994 44.772 53.234 44.956C53.474 45.14 53.666 45.38 53.81 45.676C53.962 45.964 54.038 46.328 54.038 46.768C54.038 47.504 53.782 48.08 53.27 48.496C52.766 48.912 52.082 49.12 51.218 49.12Z" fill="white"/>
</svg>
