<svg width="84" height="84" viewBox="0 0 84 84" fill="none" xmlns="http://www.w3.org/2000/svg">
<rect width="84" height="84" rx="4" fill="#CC0000"/>
<g clip-path="url(#clip0_555_2)">
<path d="M30.3542 40.3892C33.4742 46.5208 38.49 51.5367 44.6325 54.6567L49.3992 49.8792C49.995 49.2833 50.8508 49.11 51.5983 49.3483C54.025 50.15 56.6358 50.5833 59.3333 50.5833C60.5358 50.5833 61.5 51.5475 61.5 52.75V60.3333C61.5 61.5358 60.5358 62.5 59.3333 62.5C38.9883 62.5 22.5 46.0117 22.5 25.6667C22.5 24.4642 23.475 23.5 24.6667 23.5H32.25C33.4525 23.5 34.4167 24.4642 34.4167 25.6667C34.4167 28.3642 34.85 30.975 35.6517 33.4017C35.89 34.1492 35.7167 35.005 35.1208 35.6008L30.3542 40.3892Z" fill="white"/>
</g>
<defs>
<clipPath id="clip0_555_2">
<rect width="52" height="52" fill="white" transform="translate(16 17)"/>
</clipPath>
</defs>
</svg>
