<svg width="84" height="84" viewBox="0 0 84 84" fill="none" xmlns="http://www.w3.org/2000/svg">
<rect width="84" height="84" rx="4" fill="#CC0000"/>
<path d="M63.517 32.2059C63.4217 31.6578 62.8736 31.2527 62.3256 31.2527H61.4916C60.8482 31.2527 60.2049 31.2527 59.5377 31.2527C59.1088 29.5133 58.4178 27.8453 57.4647 26.2965L57.7268 26.0344C58.2986 25.4625 58.8943 24.8668 59.4662 24.2949C59.8713 23.8898 59.9189 23.2703 59.5854 22.8176C58.1557 20.8398 56.4162 19.1004 54.4385 17.6945C53.9857 17.3609 53.3662 17.4324 52.9611 17.8375C52.6037 18.1949 52.2463 18.5762 51.865 18.9336C51.5791 19.2195 51.2693 19.5293 50.9596 19.8391C49.4107 18.9098 47.7428 18.2187 45.9795 17.7898C45.9795 17.5754 45.9795 17.3848 45.9795 17.1703V16.8129C45.9795 16.7652 45.9795 16.7176 45.9795 16.6699V16.098C45.9795 15.7406 45.9795 15.3832 45.9795 14.9781C45.9795 14.4062 45.5744 13.9297 45.0264 13.8582C42.6197 13.477 40.3322 13.477 37.9256 13.8582C37.3537 13.9535 36.9486 14.4539 36.9725 15.0496C36.9725 15.407 36.9725 15.7645 36.9725 16.1219V16.6938C36.9725 16.7414 36.9725 16.7891 36.9725 16.8367V17.1941C36.9725 17.4086 36.9725 17.623 36.9725 17.8137C35.233 18.2426 33.565 18.9336 31.9924 19.8629C31.6826 19.5531 31.3967 19.2672 31.0869 18.9574C30.7295 18.6 30.3482 18.2426 29.9908 17.8613C29.6096 17.4562 28.9662 17.4086 28.5135 17.7184C26.5596 19.1004 24.8201 20.8398 23.3904 22.8176C23.0568 23.2703 23.1283 23.9137 23.5096 24.2949C24.1053 24.8668 24.6771 25.4625 25.249 26.0344L25.5111 26.2965C24.5818 27.8453 23.8908 29.5133 23.4381 31.2527C22.7947 31.2527 22.1514 31.2527 21.4842 31.2527H20.5787C20.0068 31.2527 19.5303 31.6578 19.4588 32.2297C19.2682 33.4926 19.1729 34.684 19.1729 35.8516C19.1729 37.0668 19.2682 38.282 19.4588 39.4734C19.5541 39.9977 20.0307 40.4027 20.5549 40.4266C20.6025 40.4266 20.674 40.4266 20.7932 40.4266C21.365 40.4266 21.9131 40.4266 22.485 40.4266C22.7947 40.4266 23.1045 40.4266 23.4143 40.4266C23.867 42.1898 24.558 43.8578 25.5111 45.4305C24.9154 46.0262 24.3197 46.598 23.724 47.2176C23.6287 47.3129 23.5334 47.4082 23.4619 47.5035C23.1045 47.9086 23.0807 48.4805 23.3904 48.9094C24.8201 50.8633 26.5357 52.5789 28.5135 53.9848C28.9662 54.3184 29.6572 54.1992 30.0623 53.7703C30.4436 53.3652 30.8486 52.984 31.2299 52.5789C31.492 52.3406 31.7303 52.0785 31.9686 51.8402C32.183 51.9594 32.3975 52.1023 32.6357 52.2215C33.1838 52.5312 33.8748 52.3168 34.1846 51.7687C34.4943 51.2207 34.2799 50.5297 33.7318 50.2199C33.2314 49.9578 32.8025 49.6957 32.4451 49.4336C32.0162 49.1477 31.4443 49.1953 31.0631 49.5289L30.8725 49.6719C30.8486 49.6957 30.8248 49.7195 30.801 49.7434C30.4197 50.1484 30.0146 50.5535 29.6096 50.9586C29.4189 51.1492 29.2283 51.3398 29.0377 51.5305C27.8463 50.5773 26.7502 49.5051 25.8209 48.3137C26.3928 47.718 26.9885 47.1461 27.608 46.5504C27.7271 46.4312 27.8463 46.3121 27.9178 46.193C28.1799 45.8117 28.1799 45.3113 27.9178 44.9301C26.7025 43.1191 25.8686 41.1176 25.4635 39.0207C25.3682 38.4965 24.8916 38.0914 24.3436 38.0914H24.2244C23.6525 38.0914 23.0807 38.0914 22.5088 38.0914C22.199 38.0914 21.8893 38.0914 21.6033 38.0914C21.508 37.3289 21.4842 36.5664 21.4842 35.8039C21.4842 35.0414 21.5318 34.2789 21.6271 33.4926C22.4135 33.4926 23.1998 33.4926 23.9623 33.5164C24.2006 33.5402 24.4627 33.5164 24.701 33.4449C25.1299 33.3258 25.4396 32.9922 25.5111 32.5633C25.9162 30.4902 26.7264 28.5602 27.9178 26.773C28.1561 26.3918 28.1799 25.9152 27.9416 25.534C27.8225 25.3195 27.6557 25.1527 27.465 24.9859L27.3936 24.9145L26.8932 24.4141C26.5357 24.0566 26.2021 23.6992 25.8447 23.3656C26.7979 22.1504 27.8939 21.0781 29.1092 20.125C29.2521 20.268 29.3713 20.3871 29.5143 20.5301C29.9432 20.959 30.3721 21.3641 30.7533 21.7691C30.9916 22.0313 31.2299 22.198 31.5158 22.2934C31.8494 22.4125 32.2307 22.3648 32.5404 22.1742C34.3275 21.0066 36.2814 20.1965 38.3545 19.7914C38.7834 19.6961 39.1408 19.3863 39.2361 18.9336C39.2838 18.7668 39.3076 18.6 39.2838 18.3617C39.26 17.9566 39.26 17.5516 39.2838 17.1227V16.5984C39.2838 16.5508 39.2838 16.5031 39.2838 16.4555V16.0266C39.2838 15.9789 39.2838 15.9313 39.2838 15.8598C40.785 15.693 42.2385 15.693 43.7396 15.8598C43.7396 15.9074 43.7396 15.9551 43.7396 16.0266V16.4316C43.7396 16.4793 43.7396 16.527 43.7396 16.5746V17.0988C43.7396 17.5039 43.7396 17.909 43.7158 18.3855C43.7158 18.5762 43.7397 18.743 43.7873 18.9098C43.8826 19.3387 44.24 19.6723 44.6689 19.7676C46.742 20.1727 48.6959 20.959 50.483 22.1504C50.7928 22.341 51.1502 22.3887 51.5076 22.2695C51.7697 22.1742 52.0318 22.0074 52.2463 21.7691C52.6514 21.3402 53.0803 20.9113 53.5092 20.5063C53.6521 20.3633 53.7713 20.2441 53.9143 20.1012C55.1295 21.0543 56.2256 22.1504 57.1787 23.3418C56.8213 23.6992 56.4639 24.0566 56.1303 24.3902L55.6299 24.8906L55.5584 24.9621C55.3678 25.1527 55.2248 25.3195 55.0818 25.5102C54.8436 25.8914 54.8674 26.368 55.1057 26.7492C56.2971 28.5363 57.1072 30.4664 57.5123 32.5395C57.6076 32.9684 57.9174 33.302 58.3225 33.4211C58.5607 33.4926 58.799 33.5164 59.0135 33.4926C59.7998 33.4687 60.5861 33.4688 61.3725 33.4688C61.4678 34.2313 61.4916 35.0176 61.4916 35.7801C61.4916 36.5426 61.4439 37.3289 61.3725 38.0676C61.0627 38.0676 60.7529 38.0676 60.467 38.0676C59.8951 38.0676 59.3232 38.0676 58.7514 38.0676H58.6322C58.0842 38.0676 57.6314 38.4488 57.5123 38.9969C57.0834 41.0938 56.2732 43.0715 55.058 44.9062C54.7959 45.2875 54.7959 45.7879 55.058 46.1691C55.1295 46.2883 55.2248 46.3836 55.3678 46.5266C55.9635 47.0984 56.5354 47.6941 57.1311 48.2898C56.1779 49.4812 55.1057 50.5535 53.9143 51.5066C53.6998 51.2922 53.4854 51.0777 53.2709 50.8633C52.8896 50.482 52.5084 50.1246 52.151 49.7434C52.1271 49.7195 52.1033 49.6957 52.0795 49.6719L51.865 49.5051C51.4838 49.1715 50.9119 49.1477 50.5068 49.4336C50.1018 49.7195 49.6729 49.9578 49.2201 50.1961C48.6721 50.5059 48.4576 51.1969 48.7674 51.7449C49.0771 52.293 49.7682 52.5074 50.3162 52.1977C50.5545 52.0785 50.7689 51.9355 51.0072 51.8164C51.2217 52.0309 51.46 52.2691 51.6744 52.4836C52.1033 52.9125 52.5084 53.3176 52.9135 53.7465C52.985 53.818 53.1041 53.9371 53.1756 53.9848C53.3662 54.1039 53.5807 54.1754 53.8189 54.1754C54.0572 54.1754 54.2955 54.1039 54.4861 53.9609C56.4639 52.5551 58.1795 50.8395 59.5854 48.8855C59.8951 48.4566 59.8713 47.8609 59.5139 47.4797C59.4424 47.3844 59.3471 47.2891 59.2279 47.1699C58.6322 46.5742 58.0604 45.9785 57.4647 45.4066C58.4178 43.834 59.1088 42.1422 59.5615 40.4027C59.8713 40.4027 60.1811 40.4027 60.4908 40.4027C61.0627 40.4027 61.6107 40.4027 62.1826 40.4027C62.2779 40.4027 62.3732 40.4027 62.3971 40.4027C62.9451 40.4027 63.4217 39.9977 63.517 39.4496C63.7076 38.2582 63.8029 37.043 63.8029 35.8277C63.8029 34.6125 63.7076 33.3973 63.517 32.2059Z" fill="white"/>
<path d="M46.7897 43.5479C46.7897 43.262 46.7182 42.9522 46.5753 42.6901L43.144 36.2088C43.0487 36.042 42.9296 35.8752 42.8342 35.8038C42.4768 35.4463 42.0003 35.2319 41.5475 35.2557C41.0233 35.2319 40.5467 35.4463 40.2608 35.7561C40.1178 35.8991 39.9987 36.042 39.9034 36.2327L36.4721 42.7139C36.3292 42.976 36.2577 43.262 36.2577 43.5717L36.1624 67.519C36.1385 69.6397 37.8065 71.3791 39.9272 71.4506L41.5713 71.4983L43.144 71.4506C45.2647 71.3791 46.9088 69.6635 46.9088 67.519L46.7897 43.5479ZM41.4999 37.9959L43.978 42.6663H39.0456L41.4999 37.9959ZM43.0249 69.1393L41.5237 69.187L39.951 69.1393C39.0694 69.1155 38.3784 68.4006 38.3784 67.4952L38.4737 44.9299H44.4784L44.5737 67.4952C44.5975 68.3768 43.9065 69.0916 43.0249 69.1393Z" fill="white"/>
</svg>
