<svg width="84" height="84" viewBox="0 0 84 84" fill="none" xmlns="http://www.w3.org/2000/svg">
<rect width="84" height="84" rx="4" fill="#CC0000"/>
<path d="M68.2254 34.3793C68.2254 31.6477 65.9859 29.4082 63.2543 29.4082C60.5227 29.4082 58.2832 31.6477 58.2832 34.3793C58.2832 35.2898 58.5539 36.1512 58.9969 36.8895L52.3031 43.5832C51.6141 43.2387 50.8512 43.0172 50.0391 43.0172C49.0055 43.0172 48.0703 43.3371 47.2582 43.8539L40.5398 37.1602C41.0812 36.3727 41.4012 35.4129 41.4012 34.3793C41.4012 31.6477 39.1617 29.4082 36.4301 29.4082C33.6984 29.4082 31.459 31.6477 31.459 34.3793C31.459 35.1914 31.6805 35.9543 32.025 36.6187L24.9129 43.7309C24.1746 43.2879 23.3133 43.0172 22.4027 43.0172C19.6711 43.0172 17.4316 45.2566 17.4316 47.9883C17.4316 50.7199 19.6711 52.9594 22.4027 52.9594C25.1344 52.9594 27.3738 50.7199 27.3738 47.9883C27.3738 47.0777 27.1031 46.2164 26.6602 45.4781L33.6492 38.4891C34.4367 39.0305 35.3965 39.3504 36.4301 39.3504C37.2422 39.3504 38.0051 39.1289 38.6695 38.7844L45.6094 45.7242C45.2648 46.4133 45.0434 47.1762 45.0434 47.9883C45.0434 50.7199 47.2828 52.9594 50.0145 52.9594C52.7461 52.9594 54.9856 50.7199 54.9856 47.9883C54.9856 46.9547 54.6656 45.9949 54.1488 45.2074L60.7195 38.6367C61.4578 39.0797 62.3191 39.3504 63.2297 39.3504C65.9859 39.3504 68.2254 37.1109 68.2254 34.3793ZM22.4027 50.4738C21.0246 50.4738 19.8926 49.3418 19.8926 47.9637C19.8926 46.5855 21.0246 45.4535 22.4027 45.4535C23.0918 45.4535 23.707 45.7242 24.1746 46.1918C24.6176 46.6348 24.9129 47.2746 24.9129 47.9637C24.9129 49.3664 23.7809 50.4738 22.4027 50.4738ZM36.4301 36.8648C35.052 36.8648 33.9199 35.7328 33.9199 34.3547C33.9199 32.9766 35.052 31.8445 36.4301 31.8445C37.8082 31.8445 38.9402 32.9766 38.9402 34.3547C38.9402 35.7574 37.8082 36.8648 36.4301 36.8648ZM50.0391 50.4738C48.6609 50.4738 47.5289 49.3418 47.5289 47.9637C47.5289 46.5855 48.6609 45.4535 50.0391 45.4535C51.4172 45.4535 52.5492 46.5855 52.5492 47.9637C52.5246 49.3664 51.4172 50.4738 50.0391 50.4738ZM61.4824 36.1266C61.0395 35.6836 60.7441 35.0437 60.7441 34.3547C60.7441 32.9766 61.8762 31.8445 63.2543 31.8445C64.6324 31.8445 65.7645 32.9766 65.7645 34.3547C65.7645 35.7328 64.6324 36.8648 63.2543 36.8648C62.5652 36.8648 61.9254 36.5941 61.4824 36.1266Z" fill="white"/>
<path d="M12.3377 63.3438C13.076 63.3438 13.6666 62.7531 13.6666 62.0148V16.4383C13.6666 15.7 13.076 15.1094 12.3377 15.1094C11.5994 15.1094 11.0088 15.7 11.0088 16.4383V62.0148C11.0088 62.7531 11.5994 63.3438 12.3377 63.3438Z" fill="white"/>
<path d="M19.2775 67.2324H12.3377C11.5994 67.2324 11.0088 67.823 11.0088 68.5613C11.0088 69.2996 11.5994 69.8902 12.3377 69.8902H19.3021C20.0404 69.8902 20.6311 69.2996 20.6311 68.5613C20.6311 67.823 20.0158 67.2324 19.2775 67.2324Z" fill="white"/>
<path d="M32.1237 67.2324H25.1839C24.4456 67.2324 23.855 67.823 23.855 68.5613C23.855 69.2996 24.4456 69.8902 25.1839 69.8902H32.1483C32.8866 69.8902 33.4772 69.2996 33.4772 68.5613C33.4772 67.823 32.862 67.2324 32.1237 67.2324Z" fill="white"/>
<path d="M44.9696 67.2324H38.0052C37.2669 67.2324 36.6763 67.823 36.6763 68.5613C36.6763 69.2996 37.2669 69.8902 38.0052 69.8902H44.9696C45.7079 69.8902 46.2985 69.2996 46.2985 68.5613C46.2985 67.823 45.7079 67.2324 44.9696 67.2324Z" fill="white"/>
<path d="M57.8158 67.2324H50.8514C50.1131 67.2324 49.5225 67.823 49.5225 68.5613C49.5225 69.2996 50.1131 69.8902 50.8514 69.8902H57.8158C58.5541 69.8902 59.1447 69.2996 59.1447 68.5613C59.1447 67.823 58.5541 67.2324 57.8158 67.2324Z" fill="white"/>
<path d="M70.662 67.2324H63.6976C62.9593 67.2324 62.3687 67.823 62.3687 68.5613C62.3687 69.2996 62.9593 69.8902 63.6976 69.8902H70.662C71.4003 69.8902 71.9909 69.2996 71.9909 68.5613C71.9909 67.823 71.4003 67.2324 70.662 67.2324Z" fill="white"/>
</svg>
