<svg width="84" height="84" viewBox="0 0 84 84" fill="none" xmlns="http://www.w3.org/2000/svg">
<rect width="84" height="84" rx="4" fill="#CC0000"/>
<path d="M59.9269 27.8041V27.9976L60.1143 28.0461C65.2061 29.3629 68.9802 34.0166 68.9802 39.4568C68.9802 45.421 64.5073 50.3396 58.5306 51.1307L58.3134 51.1594V51.3785V60.7007V60.8859L58.4906 60.9399C60.4535 61.5373 61.9885 63.4168 61.9885 65.6307C61.9885 68.2714 59.7699 70.49 57.1292 70.49C54.4857 70.49 52.27 68.3582 52.27 65.6307C52.27 63.4122 53.7196 61.5373 55.7651 60.9407L55.9451 60.8882V60.7007V51.4681V51.2181H55.6951H43.4148H43.1648V51.4681V60.7007V60.8859L43.342 60.9399C45.3049 61.5373 46.8399 63.4168 46.8399 65.6307C46.8399 68.2743 44.7081 70.49 41.9806 70.49C39.3371 70.49 37.1214 68.3582 37.1214 65.6307C37.1214 63.4122 38.571 61.5373 40.6165 60.9407L40.7965 60.8882V60.7007V51.4681V51.2181H40.5465H28.2662H28.0162V51.4681V60.6111V60.7963L28.1934 60.8502C30.1563 61.4476 31.6913 63.3272 31.6913 65.5411C31.6913 68.1846 29.5595 70.4004 26.832 70.4004C24.1885 70.4004 21.9728 68.2686 21.9728 65.5411C21.9728 63.3225 23.4224 61.4477 25.4679 60.8511L25.6479 60.7986V60.6111V51.3785V51.1285H25.3979H24.5911C19.4406 51.1285 15.25 46.9379 15.25 41.7874C15.25 38.0313 17.4333 34.7146 20.7492 33.2312L20.8971 33.165V33.003V33.0019V33.0009V32.9998V32.9988V32.9977V32.9967V32.9956V32.9946V32.9935V32.9925V32.9914V32.9904V32.9893V32.9883V32.9872V32.9862V32.9851V32.9841V32.983V32.982V32.9809V32.9799V32.9788V32.9778V32.9767V32.9757V32.9746V32.9736V32.9725V32.9715V32.9704V32.9694V32.9683V32.9673V32.9662V32.9652V32.9641V32.9631V32.962V32.961V32.9599V32.9589V32.9578V32.9568V32.9557V32.9547V32.9536V32.9526V32.9515V32.9505V32.9494V32.9484V32.9473V32.9463V32.9452V32.9442V32.9431V32.9421V32.941V32.94V32.9389V32.9379V32.9368V32.9358V32.9347V32.9336V32.9326V32.9315V32.9305V32.9294V32.9284V32.9273V32.9263V32.9252V32.9242V32.9231V32.9221V32.921V32.92V32.9189V32.9179V32.9168V32.9158V32.9147V32.9137V32.9126V32.9116V32.9105V32.9095V32.9084V32.9074V32.9063V32.9053V32.9042V32.9032V32.9021V32.9011V32.9V32.899V32.8979V32.8969V32.8958V32.8948V32.8937V32.8927V32.8916V32.8906V32.8895V32.8885V32.8874V32.8864V32.8853V32.8843V32.8832V32.8822V32.8811V32.8801V32.879V32.878V32.8769V32.8759V32.8748V32.8738V32.8727V32.8717V32.8706V32.8696V32.8685V32.8675V32.8664V32.8654V32.8643V32.8633V32.8622V32.8612V32.8601V32.8591V32.858V32.857V32.8559V32.8549V32.8538V32.8528V32.8517V32.8507V32.8496V32.8486V32.8475V32.8465V32.8454V32.8444V32.8433V32.8423V32.8412V32.8402V32.8391V32.8381V32.837V32.836V32.8349V32.8339V32.8328V32.8318V32.8307V32.8297V32.8286V32.8276V32.8265V32.8255V32.8244V32.8234V32.8223V32.8213V32.8202V32.8192V32.8181V32.8171V32.816V32.815V32.8139V32.8129V32.8118V32.8107V32.8097V32.8086V32.8076V32.8065V32.8055V32.8044V32.8034V32.8023V32.8013V32.8002V32.7992V32.7981V32.7971V32.796V32.795V32.7939V32.7929V32.7918V32.7908V32.7897V32.7887V32.7876V32.7866V32.7855V32.7845V32.7834V32.7824V32.7813V32.7803V32.7792V32.7782V32.7771V32.7761V32.775V32.774V32.7729V32.7719V32.7708V32.7698V32.7687V32.7677V32.7666V32.7656V32.7645V32.7635V32.7624V32.7614V32.7603V32.7593V32.7582V32.7572V32.7561V32.7551V32.754V32.753V32.7519V32.7509V32.7498V32.7488V32.7477V32.7467V32.7456V32.7446V32.7435V32.7425V32.7414V32.7404V32.7393V32.7383V32.7372V32.7362V32.7351V32.7341V32.733V32.732V32.7309V32.7299V32.7288V32.7278V32.7267V32.7257V32.7246V32.7236V32.7225V32.7215V32.7204V32.7194V32.7183V32.7173V32.7162V32.7152V32.7141V32.7131V32.712V32.711V32.7099V32.7089V32.7078V32.7068V32.7057V32.7047V32.7036V32.7026V32.7015V32.7005V32.6994V32.6984V32.6973V32.6963V32.6952V32.6942V32.6931V32.6921V32.691V32.69V32.6889V32.6878V32.6868V32.6857V32.6847V32.6836V32.6826V32.6815V32.6805V32.6794V32.6784V32.6773V32.6763V32.6752V32.6742V32.6731V32.6721V32.671V32.67V32.6689V32.6679V32.6668V32.6658V32.6647V32.6637V32.6626V32.6616V32.6605V32.6595V32.6584V32.6574V32.6563V32.6553V32.6542V32.6532V32.6521V32.6511V32.65V32.649V32.6479V32.6469V32.6458V32.6448V32.6437V32.6427V32.6416V32.6406V32.6395V32.6385V32.6374V32.6364V32.6353V32.6343V32.6332V32.6322V32.6311V32.6301V32.629V32.628V32.6269V32.6259V32.6248V32.6238V32.6227V32.6217V32.6206V32.6196V32.6185V32.6175V32.6164V32.6154V32.6143V32.6133V32.6122V32.6112V32.6101V32.6091V32.608V32.607V32.6059V32.6049V32.6038V32.6028V32.6017V32.6007V32.5996V32.5986V32.5975V32.5965V32.5954V32.5944V32.5933V32.5923V32.5912V32.5902V32.5891V32.5881V32.587V32.586V32.5849V32.5839V32.5828V32.5818V32.5807V32.5797V32.5786V32.5776V32.5765V32.5755V32.5744V32.5734V32.5723V32.5713V32.5702V32.5692V32.5681V32.5671V32.566V32.5649V32.5639V32.5628V32.5618V32.5607V32.5597V32.5586V32.5576V32.5565V32.5555V32.5544V32.5534V32.5523V32.5513V32.5502V32.5492V32.5481V32.5471V32.546V32.545V32.5439V32.5429V32.5418V32.5408V32.5397V32.5387V32.5376V32.5366V32.5355V32.5345V32.5334V32.5324V32.5313V32.5303V32.5292V32.5282V32.5271V32.5261V32.525V32.524V32.5229V32.5219V32.5208V32.5198V32.5187V32.5177V32.5166V32.5156V32.5145V32.5135V32.5124V32.5114V32.5103V32.5093V32.5082V32.5072V32.5061V32.5051V32.504V32.503V32.5019V32.5009V32.4998V32.4988V32.4977V32.4967V32.4956V32.4946V32.4935V32.4925V32.4914V32.4904V32.4893V32.4883V32.4872V32.4862V32.4851V32.4841V32.483V32.482V32.4809V32.4799V32.4788V32.4778V32.4767V32.4757V32.4746V32.4736V32.4725V32.4715V32.4704V32.4694V32.4683V32.4673V32.4662V32.4652C20.8971 27.3147 25.0877 23.124 30.2382 23.124C31.4557 23.124 32.5903 23.3846 33.734 23.8245L33.9842 23.9207L34.0627 23.6644C35.7347 18.2086 40.839 14.25 46.7314 14.25C54.0332 14.25 59.9269 20.1437 59.9269 27.4455V27.446V27.4466V27.4471V27.4476V27.4482V27.4487V27.4492V27.4498V27.4503V27.4509V27.4514V27.452V27.4525V27.4531V27.4536V27.4542V27.4547V27.4553V27.4558V27.4564V27.457V27.4575V27.4581V27.4587V27.4593V27.4598V27.4604V27.461V27.4616V27.4621V27.4627V27.4633V27.4639V27.4645V27.4651V27.4657V27.4663V27.4669V27.4675V27.4681V27.4687V27.4693V27.4699V27.4705V27.4711V27.4717V27.4723V27.4729V27.4735V27.4742V27.4748V27.4754V27.476V27.4766V27.4773V27.4779V27.4785V27.4792V27.4798V27.4804V27.4811V27.4817V27.4823V27.483V27.4836V27.4843V27.4849V27.4855V27.4862V27.4868V27.4875V27.4881V27.4888V27.4894V27.4901V27.4908V27.4914V27.4921V27.4927V27.4934V27.4941V27.4947V27.4954V27.4961V27.4967V27.4974V27.4981V27.4988V27.4994V27.5001V27.5008V27.5015V27.5021V27.5028V27.5035V27.5042V27.5049V27.5056V27.5063V27.5069V27.5076V27.5083V27.509V27.5097V27.5104V27.5111V27.5118V27.5125V27.5132V27.5139V27.5146V27.5153V27.516V27.5167V27.5174V27.5181V27.5189V27.5196V27.5203V27.521V27.5217V27.5224V27.5231V27.5239V27.5246V27.5253V27.526V27.5267V27.5275V27.5282V27.5289V27.5296V27.5304V27.5311V27.5318V27.5325V27.5333V27.534V27.5347V27.5355V27.5362V27.5369V27.5377V27.5384V27.5392V27.5399V27.5406V27.5414V27.5421V27.5429V27.5436V27.5443V27.5451V27.5458V27.5466V27.5473V27.5481V27.5488V27.5496V27.5503V27.5511V27.5518V27.5526V27.5533V27.5541V27.5548V27.5556V27.5564V27.5571V27.5579V27.5586V27.5594V27.5602V27.5609V27.5617V27.5624V27.5632V27.564V27.5647V27.5655V27.5663V27.567V27.5678V27.5686V27.5693V27.5701V27.5709V27.5716V27.5724V27.5732V27.5739V27.5747V27.5755V27.5763V27.577V27.5778V27.5786V27.5793V27.5801V27.5809V27.5817V27.5824V27.5832V27.584V27.5848V27.5856V27.5863V27.5871V27.5879V27.5887V27.5894V27.5902V27.591V27.5918V27.5926V27.5933V27.5941V27.5949V27.5957V27.5965V27.5973V27.598V27.5988V27.5996V27.6004V27.6012V27.602V27.6027V27.6035V27.6043V27.6051V27.6059V27.6067V27.6075V27.6082V27.609V27.6098V27.6106V27.6114V27.6122V27.613V27.6138V27.6145V27.6153V27.6161V27.6169V27.6177V27.6185V27.6193V27.62V27.6208V27.6216V27.6224V27.6232V27.624V27.6248V27.6256V27.6264V27.6271V27.6279V27.6287V27.6295V27.6303V27.6311V27.6319V27.6327V27.6334V27.6342V27.635V27.6358V27.6366V27.6374V27.6382V27.6389V27.6397V27.6405V27.6413V27.6421V27.6429V27.6437V27.6445V27.6452V27.646V27.6468V27.6476V27.6484V27.6492V27.6499V27.6507V27.6515V27.6523V27.6531V27.6539V27.6546V27.6554V27.6562V27.657V27.6578V27.6585V27.6593V27.6601V27.6609V27.6617V27.6624V27.6632V27.664V27.6648V27.6656V27.6663V27.6671V27.6679V27.6687V27.6694V27.6702V27.671V27.6718V27.6725V27.6733V27.6741V27.6748V27.6756V27.6764V27.6772V27.6779V27.6787V27.6795V27.6802V27.681V27.6818V27.6825V27.6833V27.6841V27.6848V27.6856V27.6864V27.6871V27.6879V27.6886V27.6894V27.6902V27.6909V27.6917V27.6924V27.6932V27.694V27.6947V27.6955V27.6962V27.697V27.6977V27.6985V27.6992V27.7V27.7007V27.7015V27.7022V27.703V27.7037V27.7045V27.7052V27.706V27.7067V27.7074V27.7082V27.7089V27.7097V27.7104V27.7111V27.7119V27.7126V27.7133V27.7141V27.7148V27.7155V27.7163V27.717V27.7177V27.7185V27.7192V27.7199V27.7206V27.7214V27.7221V27.7228V27.7235V27.7243V27.725V27.7257V27.7264V27.7271V27.7278V27.7286V27.7293V27.73V27.7307V27.7314V27.7321V27.7328V27.7335V27.7342V27.7349V27.7356V27.7363V27.737V27.7377V27.7384V27.7391V27.7398V27.7405V27.7412V27.7419V27.7426V27.7433V27.744V27.7447V27.7454V27.746V27.7467V27.7474V27.7481V27.7488V27.7494V27.7501V27.7508V27.7515V27.7521V27.7528V27.7535V27.7542V27.7548V27.7555V27.7562V27.7568V27.7575V27.7581V27.7588V27.7595V27.7601V27.7608V27.7614V27.7621V27.7627V27.7634V27.764V27.7647V27.7653V27.7659V27.7666V27.7672V27.7679V27.7685V27.7691V27.7698V27.7704V27.771V27.7717V27.7723V27.7729V27.7735V27.7742V27.7748V27.7754V27.776V27.7766V27.7772V27.7779V27.7785V27.7791V27.7797V27.7803V27.7809V27.7815V27.7821V27.7827V27.7833V27.7839V27.7845V27.7851V27.7856V27.7862V27.7868V27.7874V27.788V27.7886V27.7891V27.7897V27.7903V27.7909V27.7914V27.792V27.7926V27.7931V27.7937V27.7943V27.7948V27.7954V27.7959V27.7965V27.7971V27.7976V27.7982V27.7987V27.7992V27.7998V27.8003V27.8009V27.8014V27.8019V27.8025V27.803V27.8035V27.8041ZM22.6481 35.1806L22.6411 35.1824L22.6342 35.1845C19.6608 36.1137 17.708 38.8103 17.708 41.877C17.708 45.6902 20.7755 48.8433 24.6689 49.0288L24.6689 49.029H24.6808H57.3085C62.4662 49.029 66.7015 44.7938 66.7015 39.6361C66.7015 34.9392 63.1122 30.8876 58.5036 30.3346L58.4887 30.3328H58.4738C58.1495 30.3328 57.9506 30.1535 57.6828 29.8864C57.6101 29.7732 57.5379 29.6251 57.4923 29.4702C57.4433 29.3037 57.4313 29.1503 57.4614 29.03L57.4638 29.0203L57.4655 29.0104C57.5585 28.4522 57.5585 28.0766 57.5585 27.6279V27.6248C57.5585 21.6603 52.6958 16.7976 46.7314 16.7976C41.4086 16.7976 36.8202 20.7432 36.0859 26.0668L36.0835 26.0838V26.101C36.0835 26.4247 35.8097 26.7942 35.434 26.9445L35.4243 26.9483L35.415 26.953C35.1832 27.0689 34.9833 27.1021 34.7998 27.0846C34.6164 27.0671 34.4317 26.9974 34.2319 26.8789C33.1063 26.039 31.7104 25.6717 30.3279 25.6717C26.5147 25.6717 23.3551 28.8313 23.3551 32.6444V32.6497C23.3551 33.0071 23.3551 33.3863 23.4496 33.8587L23.4493 33.8588L23.4522 33.8703C23.5967 34.4484 23.2364 35.0336 22.6481 35.1806ZM27.0113 68.1217C28.4043 68.1217 29.5022 67.0237 29.5022 65.6307C29.5022 64.2377 28.4043 63.1398 27.0113 63.1398C25.6183 63.1398 24.5204 64.2377 24.5204 65.6307C24.5204 67.0237 25.6183 68.1217 27.0113 68.1217ZM42.1599 68.1217C43.5529 68.1217 44.6508 67.0237 44.6508 65.6307C44.6508 64.2377 43.5529 63.1398 42.1599 63.1398C40.7669 63.1398 39.669 64.2377 39.669 65.6307C39.669 67.0237 40.7669 68.1217 42.1599 68.1217ZM57.3982 68.1217C58.7911 68.1217 59.8891 67.0237 59.8891 65.6307C59.8891 64.2377 58.7911 63.1398 57.3982 63.1398C56.0052 63.1398 54.9072 64.2377 54.9072 65.6307C54.9072 67.0237 56.0052 68.1217 57.3982 68.1217Z" fill="white" stroke="#CC0000" stroke-width="0.5"/>
<path d="M31.3 42.12C30.644 42.12 30.084 42 29.62 41.76C29.156 41.52 28.744 41.172 28.384 40.716L29.152 39.948C29.416 40.316 29.72 40.596 30.064 40.788C30.408 40.972 30.832 41.064 31.336 41.064C31.832 41.064 32.228 40.956 32.524 40.74C32.828 40.524 32.98 40.228 32.98 39.852C32.98 39.54 32.908 39.288 32.764 39.096C32.62 38.904 32.424 38.748 32.176 38.628C31.936 38.5 31.672 38.388 31.384 38.292C31.096 38.188 30.808 38.08 30.52 37.968C30.232 37.848 29.968 37.704 29.728 37.536C29.488 37.36 29.292 37.132 29.14 36.852C28.996 36.572 28.924 36.22 28.924 35.796C28.924 35.324 29.036 34.924 29.26 34.596C29.492 34.26 29.804 34.004 30.196 33.828C30.596 33.644 31.044 33.552 31.54 33.552C32.084 33.552 32.572 33.66 33.004 33.876C33.436 34.084 33.788 34.36 34.06 34.704L33.292 35.472C33.044 35.184 32.776 34.968 32.488 34.824C32.208 34.68 31.884 34.608 31.516 34.608C31.068 34.608 30.712 34.708 30.448 34.908C30.184 35.1 30.052 35.372 30.052 35.724C30.052 36.004 30.124 36.232 30.268 36.408C30.42 36.576 30.616 36.72 30.856 36.84C31.096 36.96 31.36 37.072 31.648 37.176C31.944 37.272 32.236 37.38 32.524 37.5C32.812 37.62 33.076 37.772 33.316 37.956C33.556 38.14 33.748 38.38 33.892 38.676C34.044 38.964 34.12 39.328 34.12 39.768C34.12 40.504 33.864 41.08 33.352 41.496C32.848 41.912 32.164 42.12 31.3 42.12ZM37.7902 42.12C37.2702 42.12 36.7982 41.992 36.3742 41.736C35.9502 41.472 35.6142 41.116 35.3662 40.668C35.1262 40.22 35.0062 39.716 35.0062 39.156C35.0062 38.596 35.1262 38.092 35.3662 37.644C35.6142 37.196 35.9462 36.84 36.3622 36.576C36.7862 36.312 37.2622 36.18 37.7902 36.18C38.2222 36.18 38.6062 36.272 38.9422 36.456C39.2862 36.632 39.5622 36.88 39.7702 37.2C39.9782 37.512 40.0942 37.876 40.1182 38.292V40.008C40.0942 40.416 39.9782 40.78 39.7702 41.1C39.5702 41.42 39.2982 41.672 38.9542 41.856C38.6182 42.032 38.2302 42.12 37.7902 42.12ZM37.9702 41.1C38.5062 41.1 38.9382 40.92 39.2662 40.56C39.5942 40.192 39.7582 39.724 39.7582 39.156C39.7582 38.764 39.6822 38.424 39.5302 38.136C39.3862 37.84 39.1782 37.612 38.9062 37.452C38.6342 37.284 38.3182 37.2 37.9582 37.2C37.5982 37.2 37.2782 37.284 36.9982 37.452C36.7262 37.62 36.5102 37.852 36.3502 38.148C36.1982 38.436 36.1222 38.768 36.1222 39.144C36.1222 39.528 36.1982 39.868 36.3502 40.164C36.5102 40.452 36.7302 40.68 37.0102 40.848C37.2902 41.016 37.6102 41.1 37.9702 41.1ZM39.6862 42V40.464L39.8902 39.072L39.6862 37.692V36.3H40.7782V42H39.6862ZM44.7746 42.12C44.2546 42.12 43.7826 41.992 43.3586 41.736C42.9346 41.472 42.5986 41.116 42.3506 40.668C42.1106 40.22 41.9906 39.716 41.9906 39.156C41.9906 38.596 42.1106 38.092 42.3506 37.644C42.5986 37.196 42.9306 36.84 43.3466 36.576C43.7706 36.312 44.2466 36.18 44.7746 36.18C45.2066 36.18 45.5906 36.272 45.9266 36.456C46.2706 36.632 46.5466 36.88 46.7546 37.2C46.9626 37.512 47.0786 37.876 47.1026 38.292V40.008C47.0786 40.416 46.9626 40.78 46.7546 41.1C46.5546 41.42 46.2826 41.672 45.9386 41.856C45.6026 42.032 45.2146 42.12 44.7746 42.12ZM44.9546 41.1C45.4906 41.1 45.9226 40.92 46.2506 40.56C46.5786 40.192 46.7426 39.724 46.7426 39.156C46.7426 38.764 46.6666 38.424 46.5146 38.136C46.3706 37.84 46.1626 37.612 45.8906 37.452C45.6186 37.284 45.3026 37.2 44.9426 37.2C44.5826 37.2 44.2626 37.284 43.9826 37.452C43.7106 37.62 43.4946 37.852 43.3346 38.148C43.1826 38.436 43.1066 38.768 43.1066 39.144C43.1066 39.528 43.1826 39.868 43.3346 40.164C43.4946 40.452 43.7146 40.68 43.9946 40.848C44.2746 41.016 44.5946 41.1 44.9546 41.1ZM46.6706 42V40.464L46.8746 39.072L46.6706 37.692V36.3H47.7626V42H46.6706ZM51.843 42.12C51.187 42.12 50.627 42 50.163 41.76C49.699 41.52 49.287 41.172 48.927 40.716L49.695 39.948C49.959 40.316 50.263 40.596 50.607 40.788C50.951 40.972 51.375 41.064 51.879 41.064C52.375 41.064 52.771 40.956 53.067 40.74C53.371 40.524 53.523 40.228 53.523 39.852C53.523 39.54 53.451 39.288 53.307 39.096C53.163 38.904 52.967 38.748 52.719 38.628C52.479 38.5 52.215 38.388 51.927 38.292C51.639 38.188 51.351 38.08 51.063 37.968C50.775 37.848 50.511 37.704 50.271 37.536C50.031 37.36 49.835 37.132 49.683 36.852C49.539 36.572 49.467 36.22 49.467 35.796C49.467 35.324 49.579 34.924 49.803 34.596C50.035 34.26 50.347 34.004 50.739 33.828C51.139 33.644 51.587 33.552 52.083 33.552C52.627 33.552 53.115 33.66 53.547 33.876C53.979 34.084 54.331 34.36 54.603 34.704L53.835 35.472C53.587 35.184 53.319 34.968 53.031 34.824C52.751 34.68 52.427 34.608 52.059 34.608C51.611 34.608 51.255 34.708 50.991 34.908C50.727 35.1 50.595 35.372 50.595 35.724C50.595 36.004 50.667 36.232 50.811 36.408C50.963 36.576 51.159 36.72 51.399 36.84C51.639 36.96 51.903 37.072 52.191 37.176C52.487 37.272 52.779 37.38 53.067 37.5C53.355 37.62 53.619 37.772 53.859 37.956C54.099 38.14 54.291 38.38 54.435 38.676C54.587 38.964 54.663 39.328 54.663 39.768C54.663 40.504 54.407 41.08 53.895 41.496C53.391 41.912 52.707 42.12 51.843 42.12Z" fill="white"/>
</svg>
