<svg width="167" height="54" viewBox="0 0 167 54" fill="none" xmlns="http://www.w3.org/2000/svg">
<rect x="1.5" y="1.5" width="51" height="51" stroke="#CC0000" stroke-width="3"/>
<path d="M32.2424 8L32.4242 8.0623L32.9091 8.93443L33.697 10.6787L34.4848 12.3607L35.1515 13.7934L35.8182 15.1639L36.4848 16.5967L37.2727 18.2787L38.0606 20.023L39.0909 22.2033L39.8788 23.9475L41.2121 26.7508L41.9394 28.3082L42.5455 29.6164L43.0303 30.6131L43.8182 32.2951L44.4848 33.7279L45.3939 35.5967L46.0606 37.0295L46.9697 38.9607L47.7576 40.7049L48.5455 42.3869L49.2727 44.0689L49.8788 45.5639L50 46H44.0606L40.3636 45.9377L39.0303 45.8754L38.7273 45.6885L38.2424 44.6918L37.5758 43.259L36.7879 41.577L36.1212 40.1443L34.3636 36.5311L33.697 35.0984L32.4242 32.4197L31.7576 30.9869L30.7273 28.8066L29.2727 25.8164L28.7273 24.882L28.1212 24.0721L27.697 23.6361L27.0909 23.2623L26.4242 22.9508L25.7576 22.7639L24.7273 22.7016L23.7576 22.9508L23.0909 23.3246L22.3636 24.0098L21.7576 24.6951L20.9091 25.8787L20.4242 26.5639L19.2121 28.4328L18.1818 30.0525L17.6364 30.8623L17.2727 31.423L17.2121 31.6098L23.697 31.6721L24.9091 31.859L26.5455 32.4197L27.5758 32.9803L28.4242 33.6033L29.2121 34.4131L29.7576 35.223L30.2424 36.2197L30.5455 37.1541L30.7273 38.2131V39.459L30.5455 40.4557L30.1818 41.5148L29.7576 42.3869L29.3333 43.0098L28.7879 43.6328L28.303 44.1311L27.3333 44.8787L26.4848 45.3148L25.0303 45.8131L24.2424 45.9377L23.0909 46H15.5152L7.21212 45.8754L7.63636 45.1902L9.27273 42.6984L10 41.577L11.7576 38.8984L13.2727 36.5311L13.8788 35.5344L14.5455 34.5377L15.2727 33.4787L15.8788 32.6689L16.3636 31.9213L16.1212 31.7967L14.7879 31.859L14.3636 31.9213L10.9697 31.859L9.75758 31.7344L8.48485 31.423L7.63636 31.0492L6.78788 30.4262L6.18182 29.8656L5.51515 29.1803L4.9697 28.3705L4.60606 27.7475L4.24242 26.6885L4.06061 25.8787L4 25.3803V24.4459L4.18182 23.2623L4.48485 22.2656L4.78788 21.518L5.33333 20.5213L6.18182 19.5869L7.33333 18.7148L8.18182 18.2787L9.21212 17.9672L10.1212 17.8426H25.697L26 17.5311L26.7273 16.4721L27.5758 15.1639L28.3636 13.918L30.9091 9.99344L31.7576 8.80984L32.2424 8Z" fill="#CC0000"/>
<path d="M65.032 46.84C61.8 46.84 59.56 46.104 58.312 44.632C57.64 43.864 57.304 43 57.304 42.04C57.304 39.736 59.032 37.224 62.488 34.504C63.608 33.608 64.68 33.16 65.704 33.16C65.96 33.16 66.088 33.208 66.088 33.304C66.088 33.528 65.688 33.8 64.888 34.12C63.512 34.696 62.328 35.752 61.336 37.288C60.312 38.856 59.8 40.344 59.8 41.752C59.8 44.344 61.848 45.64 65.944 45.64C68.472 45.64 70.712 45.256 72.664 44.488C76.952 42.824 80.376 40.664 82.936 38.008C85.176 35.736 86.296 33.56 86.296 31.48C86.296 28.952 84.76 27.688 81.688 27.688C76.824 27.688 73.208 27.08 70.84 25.864C68.888 24.872 67.912 23.56 67.912 21.928C67.912 19.112 70.04 16.776 74.296 14.92C77.752 13.352 81.048 12.568 84.184 12.568C86.744 12.568 88.76 13.096 90.232 14.152C90.616 14.376 90.808 14.696 90.808 15.112C90.808 15.72 90.424 16.344 89.656 16.984C88.92 17.624 88.376 17.912 88.024 17.848C87.96 17.848 88.072 17.64 88.36 17.224C88.776 16.712 88.984 16.248 88.984 15.832C88.984 15.448 88.84 15.112 88.552 14.824C87.688 13.896 86.104 13.432 83.8 13.432C81.24 13.432 78.616 13.992 75.928 15.112C73.112 16.328 71.4 17.752 70.792 19.384C70.472 20.216 70.312 20.968 70.312 21.64C70.312 24.488 74.296 25.912 82.264 25.912C87.064 25.912 89.464 27.352 89.464 30.232C89.464 32.664 87.912 35.432 84.808 38.536C81.64 41.64 78.216 43.832 74.536 45.112C71.24 46.264 68.072 46.84 65.032 46.84ZM99.1139 26.152C98.6019 26.216 98.0419 26.152 97.4339 25.96C96.8579 25.768 96.5699 25.528 96.5699 25.24C96.5699 25.048 96.6339 24.856 96.7619 24.664C96.8899 24.44 97.0499 24.216 97.2419 23.992C97.7859 23.32 98.1059 22.904 98.2019 22.744C98.2979 22.552 98.4739 22.456 98.7299 22.456C99.4659 22.456 100.042 22.808 100.458 23.512C100.49 23.544 100.506 23.608 100.506 23.704C100.506 23.992 100.346 24.408 100.026 24.952C99.6099 25.72 99.3059 26.12 99.1139 26.152ZM91.8659 43.48C90.0099 43.064 89.0819 42.328 89.0819 41.272C89.0819 40.76 89.7059 38.952 90.9539 35.848C91.3059 35.24 91.7699 34.36 92.3459 33.208C92.9539 32.024 93.7059 30.584 94.6019 28.888C94.7619 28.632 95.1139 28.504 95.6579 28.504C96.1379 28.504 96.6019 28.584 97.0499 28.744C97.5299 28.872 97.7219 29 97.6259 29.128C93.4019 35.112 91.2899 39.256 91.2899 41.56C91.2899 42.232 91.5139 42.568 91.9619 42.568C92.8259 42.568 94.1859 41.96 96.0419 40.744C98.2499 39.24 100.106 37.432 101.61 35.32C101.93 34.808 102.25 34.552 102.57 34.552C102.666 34.552 102.714 34.6 102.714 34.696C102.714 34.856 102.57 35.16 102.282 35.608C100.874 37.816 98.9219 39.768 96.4259 41.464C94.1859 43 92.6659 43.672 91.8659 43.48ZM111.62 43.528C111.012 43.528 110.436 43.368 109.892 43.048C109.38 42.76 109.044 42.44 108.884 42.088C108.788 41.832 108.74 41.496 108.74 41.08C108.74 40.536 108.804 39.912 108.932 39.208C109.06 38.472 109.252 37.688 109.508 36.856C109.284 37.272 108.964 37.752 108.548 38.296C108.164 38.84 107.684 39.48 107.108 40.216C105.38 42.264 103.972 43.288 102.884 43.288C102.724 43.288 102.596 43.272 102.5 43.24C100.58 42.792 99.6198 41.704 99.6198 39.976C99.6198 38.6 100.276 36.84 101.588 34.696C102.42 33.384 103.684 32.12 105.38 30.904C107.556 29.304 109.62 28.504 111.572 28.504C112.308 28.504 112.996 28.616 113.636 28.84L115.076 26.248C115.812 24.936 116.42 23.752 116.9 22.696C117.412 21.64 117.828 20.728 118.148 19.96C118.404 19.384 119.3 19.096 120.836 19.096C121.54 19.096 121.844 19.176 121.748 19.336L115.412 29.848C115.54 30.04 115.572 30.264 115.508 30.52C115.476 30.712 115.396 30.744 115.268 30.616L115.076 30.424L114.452 31.48C112.02 35.608 110.804 38.824 110.804 41.128C110.804 42.024 111.108 42.472 111.716 42.472C112.388 42.472 113.412 41.96 114.788 40.936C116.676 39.528 118.452 37.656 120.116 35.32C120.468 34.84 120.788 34.6 121.076 34.6C121.172 34.6 121.22 34.632 121.22 34.696C121.22 34.856 121.076 35.16 120.788 35.608C119.412 37.72 117.812 39.576 115.988 41.176C114.548 42.424 113.428 43.16 112.628 43.384C112.308 43.48 111.972 43.528 111.62 43.528ZM102.5 42.472C103.268 42.792 104.9 41.368 107.396 38.2C108.356 36.984 109.188 35.896 109.892 34.936C110.596 33.944 111.172 33.064 111.62 32.296C111.748 32.04 111.94 31.688 112.196 31.24C112.484 30.76 112.836 30.2 113.252 29.56C113.156 29.528 113.044 29.512 112.916 29.512C112.82 29.512 112.724 29.512 112.628 29.512C111.316 29.512 109.908 30.008 108.404 31C106.9 31.96 105.492 33.288 104.18 34.984C103.252 36.168 102.58 37.256 102.164 38.248C101.78 39.24 101.588 40.104 101.588 40.84C101.588 41.704 101.892 42.248 102.5 42.472ZM129.424 43.528C128.784 43.528 128.192 43.32 127.648 42.904C127.136 42.488 126.832 42.088 126.736 41.704C126.64 41.256 127.232 39.656 128.512 36.904L127.408 38.488C126.928 39.192 126.448 39.816 125.968 40.36C125.488 40.904 125.04 41.384 124.624 41.8C123.408 42.952 122.384 43.432 121.552 43.24C119.632 42.792 118.672 41.704 118.672 39.976C118.672 38.6 119.328 36.84 120.64 34.696C121.056 34.056 121.584 33.416 122.224 32.776C122.864 32.136 123.6 31.512 124.432 30.904C126.576 29.336 128.64 28.552 130.624 28.552C131.84 28.552 132.992 28.872 134.08 29.512C134.432 29.768 134.608 30.04 134.608 30.328C134.608 30.552 134.544 30.664 134.416 30.664C134.384 30.664 134.352 30.648 134.32 30.616C133.648 29.88 132.752 29.512 131.632 29.512C130.32 29.512 128.896 30.008 127.36 31C125.824 31.992 124.448 33.32 123.232 34.984C121.504 37.384 120.64 39.336 120.64 40.84C120.64 41.704 120.944 42.248 121.552 42.472C122.32 42.792 123.952 41.368 126.448 38.2C127.472 36.952 128.32 35.832 128.992 34.84C129.696 33.848 130.256 33 130.672 32.296C130.864 31.944 131.216 31.768 131.728 31.768C132.688 31.768 133.168 32.056 133.168 32.632C133.168 32.728 133.152 32.792 133.12 32.824C130.336 37.24 128.944 40.232 128.944 41.8C128.944 42.184 129.056 42.392 129.28 42.424C129.952 42.616 131.072 42.12 132.64 40.936C134.528 39.528 136.304 37.656 137.968 35.32C138.32 34.84 138.64 34.6 138.928 34.6C139.024 34.6 139.072 34.632 139.072 34.696C139.072 34.856 138.928 35.16 138.64 35.608C137.968 36.664 137.216 37.656 136.384 38.584C135.584 39.512 134.688 40.376 133.696 41.176C132.288 42.36 131.136 43.096 130.24 43.384C130.016 43.48 129.744 43.528 129.424 43.528ZM138.945 43.576C138.753 43.64 137.969 43.224 136.593 42.328C136.433 42.168 136.353 41.864 136.353 41.416C136.353 39.304 137.265 35.784 139.089 30.856C139.537 29.608 140.145 28.984 140.913 28.984C141.297 28.984 141.633 29.16 141.921 29.512C142.241 29.832 142.353 30.088 142.257 30.28C141.905 31.016 141.521 31.864 141.105 32.824C140.721 33.752 140.305 34.792 139.857 35.944C138.769 38.728 138.225 40.648 138.225 41.704C138.225 42.152 138.369 42.376 138.657 42.376C138.785 42.376 138.913 42.328 139.041 42.232C139.553 41.912 140.305 41.24 141.297 40.216C142.289 39.192 143.521 37.832 144.993 36.136C148.193 32.456 150.257 29.704 151.185 27.88C151.633 27.048 152.097 26.632 152.577 26.632C152.993 26.632 153.201 26.888 153.201 27.4C153.201 27.88 152.945 28.424 152.433 29.032C151.249 30.44 149.969 31.928 148.593 33.496C147.249 35.032 145.825 36.648 144.321 38.344C140.961 41.96 139.169 43.704 138.945 43.576ZM160.567 26.152C160.055 26.216 159.495 26.152 158.887 25.96C158.311 25.768 158.023 25.528 158.023 25.24C158.023 25.048 158.087 24.856 158.215 24.664C158.343 24.44 158.503 24.216 158.695 23.992C159.239 23.32 159.559 22.904 159.655 22.744C159.751 22.552 159.927 22.456 160.183 22.456C160.919 22.456 161.495 22.808 161.911 23.512C161.943 23.544 161.959 23.608 161.959 23.704C161.959 23.992 161.799 24.408 161.479 24.952C161.063 25.72 160.759 26.12 160.567 26.152ZM153.319 43.48C151.463 43.064 150.535 42.328 150.535 41.272C150.535 40.76 151.159 38.952 152.407 35.848C152.759 35.24 153.223 34.36 153.799 33.208C154.407 32.024 155.159 30.584 156.055 28.888C156.215 28.632 156.567 28.504 157.111 28.504C157.591 28.504 158.055 28.584 158.503 28.744C158.983 28.872 159.175 29 159.079 29.128C154.855 35.112 152.743 39.256 152.743 41.56C152.743 42.232 152.967 42.568 153.415 42.568C154.279 42.568 155.639 41.96 157.495 40.744C159.703 39.24 161.559 37.432 163.063 35.32C163.383 34.808 163.703 34.552 164.023 34.552C164.119 34.552 164.167 34.6 164.167 34.696C164.167 34.856 164.023 35.16 163.735 35.608C162.327 37.816 160.375 39.768 157.879 41.464C155.639 43 154.119 43.672 153.319 43.48Z" fill="#CC0000"/>
</svg>
