<svg width="84" height="84" viewBox="0 0 84 84" fill="none" xmlns="http://www.w3.org/2000/svg">
<rect width="84" height="84" rx="4" fill="#CC0000"/>
<path d="M34.375 40.8281H37.0469V43.5H37.9375V35.4844V34.5938H34.375V35.4844H37.0469V39.9375H34.375V35.4844H33.4844V43.5H34.375V40.8281Z" fill="white"/>
<path d="M40.6094 40.8281H44.1719V35.4844H43.2812V39.9375H40.6094V35.4844H43.2812V34.5938H39.7188V43.5H40.6094V40.8281Z" fill="white"/>
<path d="M48.625 42.6094H47.7344V35.4844H48.625V34.5938H45.9531V35.4844H46.8438V42.6094H45.9531V43.5H48.625V42.6094Z" fill="white"/>
<path d="M29.9219 22.5071V25.9012L34.375 29.4637V31.9219H30.8125V34.5938H26.5705L24.1916 31.6805C24.4303 31.3777 24.5781 31.001 24.5781 30.5859C24.5781 29.6027 23.7801 28.8047 22.7969 28.8047C21.8136 28.8047 21.0156 29.6027 21.0156 30.5859C21.0156 31.5692 21.8136 32.3672 22.7969 32.3672C23.0418 32.3672 23.276 32.3173 23.488 32.2274L26.1483 35.4844H30.8125V37.2656H25.2844L23.6964 38.8536C23.431 38.6969 23.1264 38.6016 22.7969 38.6016C21.8136 38.6016 21.0156 39.3996 21.0156 40.3828C21.0156 41.3661 21.8136 42.1641 22.7969 42.1641C23.7801 42.1641 24.5781 41.3661 24.5781 40.3828C24.5781 40.0533 24.4828 39.7487 24.3261 39.4833L25.6531 38.1562H30.8125V42.6094H25.2844L23.6964 44.1974C23.431 44.0406 23.1264 43.9453 22.7969 43.9453C21.8136 43.9453 21.0156 44.7433 21.0156 45.7266C21.0156 46.7098 21.8136 47.5078 22.7969 47.5078C23.7801 47.5078 24.5781 46.7098 24.5781 45.7266C24.5781 45.397 24.4828 45.0924 24.3261 44.827L25.6531 43.5H30.8125V46.1719H34.375V47.0625C33.6082 47.2611 33.0391 47.9522 33.0391 48.7805C33.0391 49.7638 33.8371 50.5618 34.8203 50.5618C35.8036 50.5618 36.6016 49.7638 36.6016 48.7805C36.6016 47.9522 36.0325 47.2611 35.2656 47.0625V46.1719H38.8281V47.0625C38.0613 47.2611 37.4922 47.9522 37.4922 48.7805C37.4922 49.7638 38.2902 50.5618 39.2734 50.5618C40.2567 50.5618 41.0547 49.7638 41.0547 48.7805C41.0547 47.9522 40.4856 47.2611 39.7188 47.0625V46.1719H43.2812V47.0625C42.5144 47.2611 41.9453 47.9522 41.9453 48.7805C41.9453 49.7638 42.7433 50.5618 43.7266 50.5618C44.7098 50.5618 45.5078 49.7638 45.5078 48.7805C45.5078 47.9522 44.9387 47.2611 44.1719 47.0625V46.1719H47.7344V47.0625C46.9675 47.2611 46.3984 47.9522 46.3984 48.7805C46.3984 49.7638 47.1964 50.5618 48.1797 50.5618C49.1629 50.5618 49.9609 49.7638 49.9609 48.7805C49.9609 47.9522 49.3918 47.2611 48.625 47.0625V46.1719H52.1875V43.5H57.3469L58.6739 44.827C58.5172 45.0924 58.4219 45.397 58.4219 45.7266C58.4219 46.7098 59.2199 47.5078 60.2031 47.5078C61.1864 47.5078 61.9844 46.7098 61.9844 45.7266C61.9844 44.7433 61.1864 43.9453 60.2031 43.9453C59.8736 43.9453 59.569 44.0406 59.3036 44.1974L57.7156 42.6094H52.1875V40.8281H57.712L59.0631 39.5136C59.3722 39.7745 59.7667 39.9375 60.2031 39.9375C61.1864 39.9375 61.9844 39.1395 61.9844 38.1562C61.9844 37.173 61.1864 36.375 60.2031 36.375C59.2199 36.375 58.4219 37.173 58.4219 38.1562C58.4219 38.3762 58.4673 38.5846 58.5403 38.7797L57.3505 39.9375H52.1875V35.4844H56.8517L59.5111 32.2274C59.724 32.3173 59.9582 32.3672 60.2031 32.3672C61.1864 32.3672 61.9844 31.5692 61.9844 30.5859C61.9844 29.6027 61.1864 28.8047 60.2031 28.8047C59.2199 28.8047 58.4219 29.6027 58.4219 30.5859C58.4219 31.001 58.5697 31.3777 58.8084 31.6805L56.4295 34.5938H52.1875V31.9219H48.625V29.4637L53.0781 25.9012V22.5071C53.845 22.3085 54.4141 21.6173 54.4141 20.7891C54.4141 19.8058 53.6161 19.0078 52.6328 19.0078C51.6496 19.0078 50.8516 19.8058 50.8516 20.7891C50.8516 21.6173 51.4207 22.3085 52.1875 22.5071V25.4738L47.7344 29.0363V31.9219H44.1719V27.6861L48.625 24.1975V22.5071C49.3918 22.3085 49.9609 21.6173 49.9609 20.7891C49.9609 19.8058 49.1629 19.0078 48.1797 19.0078C47.1964 19.0078 46.3984 19.8058 46.3984 20.7891C46.3984 21.6173 46.9675 22.3085 47.7344 22.5071V23.7638L43.2812 27.2523V31.9219H39.7188V27.2514L35.2656 23.7638V22.5071C36.0325 22.3085 36.6016 21.6173 36.6016 20.7891C36.6016 19.8058 35.8036 19.0078 34.8203 19.0078C33.8371 19.0078 33.0391 19.8058 33.0391 20.7891C33.0391 21.6173 33.6082 22.3085 34.375 22.5071V24.1975L38.8281 27.6861V31.9219H35.2656V29.0363L30.8125 25.4738V22.5071C31.5793 22.3085 32.1484 21.6173 32.1484 20.7891C32.1484 19.8058 31.3504 19.0078 30.3672 19.0078C29.3839 19.0078 28.5859 19.8058 28.5859 20.7891C28.5859 21.6173 29.155 22.3085 29.9219 22.5071ZM22.7969 31.4766C22.3053 31.4766 21.9062 31.0776 21.9062 30.5859C21.9062 30.0943 22.3053 29.6953 22.7969 29.6953C23.2885 29.6953 23.6875 30.0943 23.6875 30.5859C23.6875 31.0776 23.2885 31.4766 22.7969 31.4766ZM22.7969 41.2734C22.3053 41.2734 21.9062 40.8744 21.9062 40.3828C21.9062 39.8912 22.3053 39.4922 22.7969 39.4922C23.2885 39.4922 23.6875 39.8912 23.6875 40.3828C23.6875 40.8744 23.2885 41.2734 22.7969 41.2734ZM22.7969 46.6172C22.3053 46.6172 21.9062 46.2182 21.9062 45.7266C21.9062 45.2349 22.3053 44.8359 22.7969 44.8359C23.2885 44.8359 23.6875 45.2349 23.6875 45.7266C23.6875 46.2182 23.2885 46.6172 22.7969 46.6172ZM60.2031 44.8359C60.6947 44.8359 61.0938 45.2349 61.0938 45.7266C61.0938 46.2182 60.6947 46.6172 60.2031 46.6172C59.7115 46.6172 59.3125 46.2182 59.3125 45.7266C59.3125 45.2349 59.7115 44.8359 60.2031 44.8359ZM60.2031 37.2656C60.6947 37.2656 61.0938 37.6646 61.0938 38.1562C61.0938 38.6479 60.6947 39.0469 60.2031 39.0469C59.7115 39.0469 59.3125 38.6479 59.3125 38.1562C59.3125 37.6646 59.7115 37.2656 60.2031 37.2656ZM60.2031 29.6953C60.6947 29.6953 61.0938 30.0943 61.0938 30.5859C61.0938 31.0776 60.6947 31.4766 60.2031 31.4766C59.7115 31.4766 59.3125 31.0776 59.3125 30.5859C59.3125 30.0943 59.7115 29.6953 60.2031 29.6953ZM51.7422 20.7891C51.7422 20.2974 52.1412 19.8984 52.6328 19.8984C53.1244 19.8984 53.5234 20.2974 53.5234 20.7891C53.5234 21.2807 53.1244 21.6797 52.6328 21.6797C52.1412 21.6797 51.7422 21.2807 51.7422 20.7891ZM47.2891 20.7891C47.2891 20.2974 47.6881 19.8984 48.1797 19.8984C48.6713 19.8984 49.0703 20.2974 49.0703 20.7891C49.0703 21.2807 48.6713 21.6797 48.1797 21.6797C47.6881 21.6797 47.2891 21.2807 47.2891 20.7891ZM33.9297 20.7891C33.9297 20.2974 34.3287 19.8984 34.8203 19.8984C35.3119 19.8984 35.7109 20.2974 35.7109 20.7891C35.7109 21.2807 35.3119 21.6797 34.8203 21.6797C34.3287 21.6797 33.9297 21.2807 33.9297 20.7891ZM35.7109 48.7805C35.7109 49.2721 35.3119 49.6711 34.8203 49.6711C34.3287 49.6711 33.9297 49.2721 33.9297 48.7805C33.9297 48.2889 34.3287 47.8899 34.8203 47.8899C35.3119 47.8899 35.7109 48.2889 35.7109 48.7805ZM40.1641 48.7805C40.1641 49.2721 39.7651 49.6711 39.2734 49.6711C38.7818 49.6711 38.3828 49.2721 38.3828 48.7805C38.3828 48.2889 38.7818 47.8899 39.2734 47.8899C39.7651 47.8899 40.1641 48.2889 40.1641 48.7805ZM44.6172 48.7805C44.6172 49.2721 44.2182 49.6711 43.7266 49.6711C43.2349 49.6711 42.8359 49.2721 42.8359 48.7805C42.8359 48.2889 43.2349 47.8899 43.7266 47.8899C44.2182 47.8899 44.6172 48.2889 44.6172 48.7805ZM49.0703 48.7805C49.0703 49.2721 48.6713 49.6711 48.1797 49.6711C47.6881 49.6711 47.2891 49.2721 47.2891 48.7805C47.2891 48.2889 47.6881 47.8899 48.1797 47.8899C48.6713 47.8899 49.0703 48.2889 49.0703 48.7805ZM51.2969 32.8125V34.5938V35.4844V39.9375V40.8281V42.6094V43.5V45.2812H31.7031V43.5V42.6094V38.1562V37.2656V35.4844V34.5938V32.8125H51.2969ZM30.3672 19.8984C30.8588 19.8984 31.2578 20.2974 31.2578 20.7891C31.2578 21.2807 30.8588 21.6797 30.3672 21.6797C29.8756 21.6797 29.4766 21.2807 29.4766 20.7891C29.4766 20.2974 29.8756 19.8984 30.3672 19.8984Z" fill="white"/>
<path d="M63.7656 23.9062H53.9688V24.7969H63.7656C64.2564 24.7969 64.6562 25.1968 64.6562 25.6875V54.1875H18.3438V25.6875C18.3438 25.1968 18.7436 24.7969 19.2344 24.7969H29.0312V23.9062H19.2344C18.2547 23.9062 17.4531 24.7078 17.4531 25.6875V54.1875V54.444V56.8594C17.4531 57.8391 18.2547 58.6406 19.2344 58.6406H35.9015L34.6288 63.0938H31.7031C30.7199 63.0938 29.9219 63.8918 29.9219 64.875V65.7656H53.0781V64.875C53.0781 63.8918 52.2801 63.0938 51.2969 63.0938H48.3703L47.0976 58.6406H63.7656C64.7453 58.6406 65.5469 57.8391 65.5469 56.8594V54.9223V54.1875V25.6875C65.5469 24.7078 64.7453 23.9062 63.7656 23.9062ZM48.625 63.9844H51.2969C51.7876 63.9844 52.1875 64.3843 52.1875 64.875H30.8125C30.8125 64.3843 31.2124 63.9844 31.7031 63.9844H34.375H48.625ZM47.444 63.0938H35.556L36.8287 58.6406H46.1722L47.444 63.0938ZM64.6562 56.8594C64.6562 57.3501 64.2564 57.75 63.7656 57.75H46.8438H36.1562H19.2344C18.7436 57.75 18.3438 57.3501 18.3438 56.8594V55.0781H64.6562V56.8594Z" fill="white"/>
<path d="M31.7031 23.9062V24.7969H33.6955L33.4844 24.6312V23.9062H31.7031Z" fill="white"/>
<path d="M44.9709 24.7969L46.1083 23.9062H36.8921L38.0294 24.7969H44.9709Z" fill="white"/>
<path d="M51.297 23.9062H49.5158V24.6312L49.3047 24.7969H51.297V23.9062Z" fill="white"/>
<path d="M42.6969 26.5781L43.8342 25.6875H39.1655L40.3029 26.5781H42.6969Z" fill="white"/>
<path d="M19.2344 25.6875V52.4062H63.7656V25.6875H53.9688V26.3296L53.6579 26.5781H62.875V51.5156H20.125V26.5781H29.3421L29.0312 26.3296V25.6875H19.2344Z" fill="white"/>
<path d="M35.9699 26.5781L34.8326 25.6875H32.5054L33.6187 26.5781H35.9699Z" fill="white"/>
<path d="M47.0298 26.5781H49.381L50.4943 25.6875H48.1671L47.0298 26.5781Z" fill="white"/>
</svg>
