<svg width="24" height="24" viewBox="0 0 24 24" fill="none" xmlns="http://www.w3.org/2000/svg">
<path d="M12.9 2.59945L15.2 7.59945C15.3 7.89945 15.6 8.09945 15.9 8.19945L21.1 8.99945C22 8.99945 22.3 9.99945 21.7 10.5995L17.9 14.4995C17.7 14.6995 17.6 15.0995 17.6 15.3995L18.5 20.7995C18.6 21.5995 17.8 22.2995 17.1 21.8995L12.4 19.2995C12.1 19.0995 11.8 19.0995 11.5 19.2995L6.80001 21.8995C6.10001 22.2995 5.20001 21.6995 5.40001 20.7995L6.30001 15.3995C6.40001 15.0995 6.20001 14.6995 6.00001 14.4995L2.20001 10.5995C1.70001 9.99945 2.00001 8.99945 2.80001 8.89945L8.00001 8.09945C8.30001 8.09945 8.60001 7.79945 8.70001 7.49945L11 2.49945C11.5 1.79945 12.5 1.79945 12.9 2.59945Z" fill="#E1CB00"/>
</svg>
