<svg width="84" height="84" viewBox="0 0 84 84" fill="none" xmlns="http://www.w3.org/2000/svg">
<rect width="84" height="84" rx="4" fill="#CC0000"/>
<path d="M26.3965 57.869C26.4584 57.9137 26.5188 57.9604 26.5775 58.0092C27.7349 58.9679 29.1697 61.3243 29.5982 67.1046L29.5982 67.1048C29.6098 67.2656 29.5574 67.4244 29.4524 67.5467C29.3475 67.669 29.1984 67.7449 29.0377 67.7578L29.0297 67.7584V67.7581H28.991H28.9907C28.8378 67.7576 28.6906 67.6997 28.5783 67.5959C28.4659 67.4921 28.3966 67.35 28.384 67.1976L28.3839 67.1967C28.0927 63.2623 27.3513 61.1137 26.6267 59.942C25.9256 58.8084 25.241 58.5901 24.9889 58.5471C24.0528 58.8252 23.0561 58.8253 22.12 58.5473C21.8719 58.5925 21.1854 58.8069 20.4809 59.9342C19.7514 61.1016 19.0027 63.2484 18.7103 67.1944L18.7103 67.195C18.6979 67.3476 18.6287 67.49 18.5162 67.5939C18.4038 67.6978 18.2564 67.7555 18.1033 67.7558H18.1032H18.0645H18.0569L18.0569 67.7555C17.9772 67.7494 17.8994 67.7277 17.828 67.6916C17.7567 67.6555 17.6931 67.6057 17.641 67.545C17.5889 67.4843 17.5493 67.4139 17.5244 67.3379C17.4996 67.262 17.4899 67.1818 17.496 67.1021M26.3965 57.869L20.7868 57.9281C20.7568 57.9086 20.727 57.8889 20.6975 57.8688M26.3965 57.869C27.263 57.2817 27.9279 56.44 28.2983 55.4583C28.6864 54.4297 28.7302 53.3029 28.4231 52.2473C28.1161 51.1917 27.4747 50.2642 26.5955 49.6042C25.7162 48.9443 24.6465 48.5875 23.5471 48.5875C22.4477 48.5875 21.378 48.9443 20.4987 49.6042C19.6195 50.2642 18.9781 51.1917 18.6711 52.2473C18.364 53.3029 18.4078 54.4297 18.7959 55.4583C19.1663 56.4399 19.8311 57.2815 20.6975 57.8688M26.3965 57.869L20.6975 57.8688M17.496 67.1021C17.496 67.1021 17.496 67.102 17.496 67.102L17.5954 67.1096L17.496 67.1023C17.496 67.1022 17.496 67.1022 17.496 67.1021ZM17.496 67.1021C17.9233 61.3241 19.3582 58.9727 20.5153 58.0094L20.5156 58.0092C20.5746 57.9603 20.6353 57.9135 20.6975 57.8688M22.328 57.3215L22.3282 57.3206H22.3149H22.2684C21.4125 57.0216 20.689 56.4304 20.2253 55.6508C19.7588 54.8665 19.5855 53.9421 19.7362 53.042C19.8869 52.1419 20.3518 51.3244 21.0484 50.7348C21.745 50.1452 22.628 49.8216 23.5407 49.8216C24.4533 49.8216 25.3363 50.1452 26.0329 50.7348C26.7295 51.3244 27.1944 52.1419 27.3451 53.042C27.4958 53.9421 27.3225 54.8665 26.856 55.6508C26.3923 56.4304 25.6688 57.0216 24.8129 57.3206H24.7653V57.3197L24.7522 57.3215C24.6672 57.3327 24.5856 57.3621 24.5132 57.4078C24.1951 57.4921 23.8677 57.5356 23.5386 57.5374C23.208 57.5337 22.8793 57.4868 22.5609 57.3981L22.5473 57.3943C22.4795 57.3565 22.4052 57.3317 22.328 57.3215Z" fill="white" stroke="white" stroke-width="0.2"/>
<path d="M59.5633 58.0084L59.5636 58.0086C60.7197 58.9673 62.1557 61.3235 62.583 67.1037L59.5633 58.0084ZM59.5633 58.0084C59.5042 57.9597 59.4435 57.913 59.3813 57.8684M59.5633 58.0084L59.3813 57.8684M59.3813 57.8684C60.2475 57.2811 60.9121 56.4396 61.2822 55.4582C61.6701 54.4298 61.7138 53.3034 61.4068 52.248C61.0997 51.1927 60.4585 50.2656 59.5795 49.6058C58.7004 48.9461 57.631 48.5895 56.532 48.5895C55.4329 48.5895 54.3635 48.9461 53.4845 49.6058C52.6054 50.2656 51.9642 51.1927 51.6572 52.248C51.3501 53.3034 51.3938 54.4298 51.7817 55.4582C52.1519 56.4396 52.8165 57.2811 53.6826 57.8684C53.6207 57.9131 53.5602 57.9599 53.5015 58.0087L53.5014 58.0088C52.3442 58.972 50.9094 61.3234 50.4809 67.1015C50.4809 67.1016 50.4809 67.1016 50.4809 67.1017L59.3813 57.8684ZM55.1047 58.5467C56.0408 58.8247 57.0376 58.8247 57.9738 58.5465C58.2253 58.5896 58.9099 58.809 59.6111 59.9432C60.3359 61.1154 61.0775 63.2641 61.3688 67.1961L61.3688 67.197C61.3815 67.3496 61.451 67.492 61.5636 67.5958C61.6763 67.6996 61.8238 67.7573 61.977 67.7575H61.9771H62.0146V67.7578L62.0221 67.7572C62.1019 67.7512 62.1797 67.7295 62.251 67.6934C62.3224 67.6573 62.3859 67.6074 62.438 67.5467C62.4901 67.486 62.5297 67.4157 62.5546 67.3397C62.5795 67.2637 62.5891 67.1837 62.5831 67.104L55.1047 58.5467ZM55.5349 57.3945C55.4672 57.3562 55.3926 57.3312 55.3153 57.3209L55.3154 57.32H55.3021H55.2545C54.3985 57.0209 53.675 56.4298 53.2113 55.6502C52.7448 54.8659 52.5715 53.9415 52.7222 53.0414C52.8729 52.1413 53.3379 51.3238 54.0344 50.7342C54.731 50.1445 55.6141 49.821 56.5267 49.821C57.4393 49.821 58.3224 50.1445 59.0189 50.7342C59.7155 51.3238 60.1804 52.1413 60.3312 53.0414C60.4819 53.9415 60.3086 54.8659 59.842 55.6502C59.3784 56.4298 58.6549 57.0209 57.7989 57.32H57.7513V57.3191L57.7379 57.3209C57.6534 57.3323 57.5724 57.3618 57.5004 57.4072C57.1823 57.4915 56.8549 57.535 56.5258 57.5368C56.1945 57.5332 55.865 57.4863 55.5457 57.3975L55.5349 57.3945Z" fill="white" stroke="white" stroke-width="0.2"/>
<path d="M43.0702 58.0086L43.0702 58.0086C43.0111 57.9597 42.9504 57.9129 42.8882 57.8682C43.7542 57.2809 44.4188 56.4395 44.7889 55.4582C45.1768 54.4298 45.2205 53.3034 44.9134 52.248C44.6064 51.1927 43.9652 50.2656 43.0861 49.6058C42.2071 48.9461 41.1377 48.5895 40.0386 48.5895C38.9396 48.5895 37.8702 48.9461 36.9911 49.6058C36.1121 50.2656 35.4709 51.1927 35.1638 52.248C34.8568 53.3034 34.9005 54.4298 35.2884 55.4582C35.6585 56.4396 36.3231 57.2811 37.1893 57.8684C37.1273 57.9131 37.0669 57.9599 37.0081 58.0087L37.0081 58.0088C35.8509 58.972 34.416 61.3235 33.9875 67.1017L33.9875 67.1018C33.9759 67.2626 34.0283 67.4215 34.1333 67.5438C34.2383 67.6661 34.3873 67.7419 34.548 67.7548L34.548 67.7551H34.556H34.5947H34.5948C34.7479 67.7549 34.8953 67.6972 35.0078 67.5933C35.1202 67.4894 35.1895 67.347 35.2018 67.1944L35.2018 67.1938C35.4942 63.2442 36.2412 61.0972 36.9698 59.9304C37.6737 58.8032 38.3604 58.5905 38.6113 58.5455C39.0755 58.6836 39.5572 58.7538 40.0415 58.754H40.0417C40.5288 58.7533 41.0133 58.6827 41.4803 58.5442C41.7316 58.5878 42.4164 58.8081 43.1178 59.9422C43.8428 61.1145 44.5848 63.2629 44.8754 67.1938L44.8755 67.1946C44.8881 67.3473 44.9577 67.4896 45.0703 67.5934C45.1829 67.6973 45.3305 67.755 45.4836 67.7551H45.4838H45.5212V67.7554L45.5288 67.7549C45.6085 67.7488 45.6863 67.7271 45.7577 67.691C45.8291 67.6549 45.8926 67.6051 45.9447 67.5444C45.9968 67.4837 46.0364 67.4133 46.0613 67.3373C46.0861 67.2614 46.0958 67.1813 46.0897 67.1017C45.6624 61.3237 44.2276 58.9673 43.0702 58.0086ZM38.821 57.3209L38.8211 57.32H38.8076H38.76C37.904 57.0209 37.1805 56.4298 36.7168 55.6502C36.2503 54.8659 36.077 53.9415 36.2277 53.0414C36.3784 52.1413 36.8434 51.3238 37.5399 50.7342C38.2365 50.1445 39.1196 49.821 40.0322 49.821C40.9448 49.821 41.8279 50.1445 42.5244 50.7342C43.221 51.3238 43.6859 52.1413 43.8367 53.0414C43.9874 53.9415 43.814 54.8659 43.3475 55.6502C42.8839 56.4298 42.1604 57.0209 41.3044 57.32H41.2568V57.3191L41.2434 57.3209C41.1589 57.3323 41.0779 57.3618 41.0059 57.4072C40.6878 57.4915 40.3604 57.535 40.0313 57.5368C39.7007 57.5331 39.372 57.4862 39.0536 57.3975L39.0396 57.3936C38.972 57.356 38.8979 57.3313 38.821 57.3209Z" fill="white" stroke="white" stroke-width="0.2"/>
<path d="M60.6345 46.687C61.1656 46.6464 61.659 46.3971 62.0069 45.9937C62.3552 45.5896 62.5291 45.0639 62.4904 44.5318L62.4903 44.5316C62.4545 44.0532 62.4107 43.5928 62.3598 43.1449H68.4375H68.4377C68.5995 43.1446 68.7546 43.08 68.8688 42.9655C68.9831 42.851 69.0473 42.6958 69.0473 42.534V16.8547C69.0473 16.6929 68.9831 16.5377 68.8688 16.4232C68.7546 16.3087 68.5995 16.2441 68.4377 16.2437H68.4375L15.5625 16.2437L15.5623 16.2438C15.4005 16.2441 15.2454 16.3087 15.1312 16.4232C15.0169 16.5377 14.9527 16.6929 14.9527 16.8547V42.534C14.9527 42.6958 15.0169 42.851 15.1312 42.9655C15.2454 43.08 15.4005 43.1446 15.5623 43.1449H15.5625H49.5603C49.4514 44.1214 49.3956 45.1031 49.393 46.0857V46.0859C49.393 46.2477 49.4572 46.4028 49.5716 46.5171C49.6859 46.6315 49.841 46.6957 50.0027 46.6957C50.1645 46.6957 50.3195 46.6315 50.4339 46.5171C50.5483 46.4028 50.6125 46.2477 50.6125 46.0859C50.6125 42.6029 51.4183 39.2064 51.9571 38.0166L51.9577 38.0169L51.9613 38.0059C51.9701 37.9783 51.9768 37.9501 51.9812 37.9216C51.9929 37.8862 52.0012 37.8498 52.0062 37.8128L52.0069 37.8129L52.007 37.8003C52.0073 37.7633 52.0043 37.7263 51.9981 37.6898C51.9951 37.653 51.9886 37.6166 51.9789 37.581L51.9793 37.5809L51.9761 37.5723C51.9629 37.5371 51.9462 37.5033 51.9262 37.4714C51.9098 37.439 51.8906 37.408 51.8688 37.3788L51.8692 37.3785L51.8619 37.3706C51.8358 37.3425 51.807 37.3172 51.7758 37.295C51.7554 37.275 51.7337 37.2565 51.7107 37.2396L51.7111 37.239L51.7005 37.2331L44.5298 33.2066L44.5298 33.2065L44.5273 33.2052C44.4095 33.1433 44.3052 33.0585 44.2207 32.9556C44.1362 32.8527 44.0732 32.734 44.0354 32.6063C43.9976 32.4787 43.9857 32.3448 44.0006 32.2125C44.0154 32.0802 44.0567 31.9522 44.1218 31.8362C44.187 31.7201 44.2748 31.6183 44.38 31.5367C44.4852 31.4551 44.6056 31.3955 44.7343 31.3613C44.8629 31.3271 44.9972 31.319 45.129 31.3376C45.2608 31.3562 45.3875 31.401 45.5017 31.4694L45.5017 31.4694L45.5042 31.4708L53.1413 35.7587L53.1416 35.7588C53.2061 35.7948 53.2766 35.8187 53.3496 35.8295C54.1389 36.1909 55.0083 36.3423 55.8735 36.2689C56.7186 36.1973 57.5316 35.9136 58.2373 35.4447C59.0564 36.1441 59.7248 37.2493 60.233 38.7616C60.751 40.3029 61.1 42.2597 61.2749 44.6236C61.2901 44.8338 61.2212 45.0415 61.0834 45.2009C60.9464 45.3595 60.7523 45.4575 60.5435 45.4738L60.4821 45.4738C60.482 45.4738 60.4819 45.4738 60.4818 45.4738C60.2816 45.4728 60.0892 45.3965 59.9427 45.2602C59.7961 45.1238 59.7061 44.9373 59.6907 44.7376C59.5603 42.9758 59.3252 41.4379 58.9928 40.1719C58.9517 40.0154 58.8502 39.8816 58.7105 39.8C58.5708 39.7184 58.4044 39.6956 58.2479 39.7367C58.0914 39.7778 57.9576 39.8793 57.876 40.019C57.7943 40.1587 57.7716 40.3251 57.8127 40.4816L57.8127 40.4817C58.1259 41.6729 58.349 43.1348 58.4741 44.8277L58.4741 44.8281C58.5134 45.3342 58.7417 45.807 59.1135 46.1525C59.4854 46.4981 59.9736 46.6912 60.4812 46.6934H60.4816C60.5278 46.6934 60.5812 46.6935 60.6345 46.687ZM60.6345 46.687C60.6337 46.6871 60.6329 46.6872 60.6321 46.6872L60.6246 46.5875L60.637 46.6867C60.6362 46.6868 60.6353 46.6869 60.6345 46.687ZM43.9315 34.2704L43.9315 34.2704L50.639 38.0362C50.3178 38.929 49.9658 40.3064 49.7198 41.9242H16.1723V17.4645H67.8277V41.9242H62.2037C61.6825 38.4711 60.6705 36.0225 59.1692 34.6472C59.7691 33.9977 60.1893 33.2022 60.3875 32.3393C60.5934 31.4428 60.5517 30.5072 60.2671 29.6325C59.9824 28.7578 59.4654 27.9769 58.7713 27.3733C58.0772 26.7697 57.2321 26.366 56.3263 26.2055C55.4206 26.0449 54.4883 26.1335 53.629 26.4618C52.7697 26.7901 52.0158 27.3457 51.4478 28.0693C50.8798 28.7928 50.5192 29.6572 50.4044 30.5698C50.3016 31.3867 50.3993 32.2149 50.687 32.9833L46.1013 30.4081C45.5892 30.1204 44.9837 30.0479 44.418 30.2066C43.8524 30.3653 43.373 30.7422 43.0853 31.2543C42.7975 31.7665 42.725 32.372 42.8837 32.9376C43.0424 33.5032 43.4193 33.9826 43.9315 34.2704ZM51.584 31.21C51.5838 30.4471 51.8098 29.7012 52.2335 29.0667C52.6572 28.4322 53.2596 27.9377 53.9644 27.6455C54.6693 27.3534 55.4449 27.2768 56.1933 27.4255C56.9416 27.5743 57.629 27.9415 58.1686 28.481C58.7082 29.0204 59.0757 29.7077 59.2246 30.456C59.3736 31.2043 59.2972 31.98 59.0053 32.6849C58.7134 33.3898 58.219 33.9923 57.5846 34.4162C56.9502 34.8401 56.2044 35.0664 55.4415 35.0664C54.4189 35.0655 53.4384 34.6589 52.7152 33.936C51.992 33.213 51.5852 32.2326 51.584 31.21Z" fill="white" stroke="white" stroke-width="0.2"/>
<path d="M31.8271 26.8785L35.108 30.1594L35.108 30.1594C35.2223 30.2737 35.3774 30.3379 35.539 30.3379C35.7007 30.3379 35.8557 30.2737 35.9701 30.1594L35.9701 30.1594L44.3283 21.8012V24.8691C44.3283 25.0309 44.3925 25.186 44.5069 25.3003C44.6213 25.4147 44.7763 25.4789 44.9381 25.4789C45.0998 25.4789 45.2549 25.4147 45.3692 25.3003C45.4836 25.186 45.5478 25.0309 45.5478 24.8691L45.5478 20.3293L45.5478 20.3288C45.5471 20.1674 45.4827 20.0128 45.3687 19.8985C45.2547 19.7842 45.1002 19.7195 44.9388 19.7184V19.7184H44.9381H40.3971V19.7182L40.3923 19.7185C40.2355 19.726 40.0876 19.7936 39.9793 19.9072C39.871 20.0208 39.8106 20.1717 39.8106 20.3287C39.8106 20.4857 39.871 20.6366 39.9793 20.7502C40.0876 20.8639 40.2355 20.9314 40.3923 20.9389L40.3923 20.9391H40.3971H43.4662L35.5396 28.8656L32.2576 25.5847L32.2576 25.5847C32.1432 25.4705 31.9882 25.4063 31.8265 25.4063C31.6649 25.4063 31.5098 25.4705 31.3955 25.5847L31.3955 25.5848L23.906 33.0742L23.9059 33.0743C23.8209 33.1597 23.763 33.2683 23.7397 33.3865C23.7163 33.5047 23.7285 33.6272 23.7747 33.7385C23.8209 33.8497 23.899 33.9448 23.9992 34.0117C24.0994 34.0786 24.2171 34.1144 24.3375 34.1145C24.3375 34.1145 24.3376 34.1145 24.3376 34.1145L24.3377 34.0145L31.8271 26.8785Z" fill="white" stroke="white" stroke-width="0.2"/>
</svg>
