<svg width="84" height="84" viewBox="0 0 84 84" fill="none" xmlns="http://www.w3.org/2000/svg">
<rect width="84" height="84" rx="4" fill="#CC0000"/>
<path d="M24.2953 44.1658C24.5813 44.1658 24.8672 44.0466 25.1055 43.8322C27.5598 41.4017 30.7766 40.2818 35.1848 40.2818C35.2086 40.2818 35.2563 40.2818 35.2801 40.2818C36.1379 40.2818 37.0434 40.3295 37.9489 40.3533C41.9996 40.5201 46.5746 40.6869 50.125 37.9943L51.65 39.4478C51.8645 39.6623 52.1504 39.7576 52.4364 39.7576C52.5555 39.7576 52.6508 39.7338 52.7699 39.7099C53.1512 39.5908 53.461 39.281 53.5563 38.8759L55.1051 32.2756C55.2004 31.8705 55.0813 31.4654 54.7715 31.1795C54.4617 30.8935 54.0567 30.7982 53.6516 30.9174L47.1703 32.8713C46.7891 32.9904 46.4793 33.3002 46.384 33.7052C46.2887 34.1103 46.4078 34.5154 46.7176 34.8013L48.4094 36.3978C45.55 38.3517 41.7375 38.2088 38.0442 38.0658C37.1149 38.0181 36.1856 37.9943 35.3039 37.9943C35.2801 37.9943 35.2324 37.9943 35.2086 37.9943C30.1571 37.9943 26.4399 39.3287 23.5328 42.2119C23.0801 42.6646 23.0801 43.3795 23.509 43.8322C23.6996 44.0466 24.0094 44.1658 24.2953 44.1658ZM52.4125 33.6814L51.7692 36.4216L49.7199 34.4916L52.4125 33.6814Z" fill="white"/>
<path d="M34.4223 32.2272C34.5653 32.2272 34.6844 32.2034 34.8274 32.1557L36.0426 31.703L36.4954 32.9182C36.6621 33.3709 37.1149 33.6569 37.5676 33.6569C37.7106 33.6569 37.8297 33.633 37.9727 33.5854C38.5684 33.3709 38.8782 32.7037 38.6399 32.108L38.1871 30.8928L39.4024 30.4401C39.9981 30.2256 40.3079 29.5584 40.0696 28.9627C39.8551 28.367 39.1879 28.0811 38.5922 28.2955L37.377 28.7483L36.9243 27.533C36.7098 26.9373 36.0426 26.6514 35.4469 26.8659C34.8512 27.0803 34.5414 27.7475 34.7797 28.3432L35.2325 29.5584L34.0172 30.0112C33.4215 30.2256 33.1118 30.8928 33.35 31.4885C33.5168 31.9412 33.9457 32.2272 34.4223 32.2272Z" fill="white"/>
<path d="M38.3539 44.2852C36.5191 43.4512 34.3269 44.2614 33.493 46.0962C33.0879 46.9778 33.0641 47.9786 33.3977 48.9079C33.7312 49.8372 34.4223 50.552 35.3039 50.9571C35.7805 51.1715 36.3047 51.2907 36.8289 51.2907C37.2578 51.2907 37.7105 51.2192 38.1156 51.0524C39.0449 50.7188 39.7598 50.0278 40.1648 49.1462C40.5699 48.2645 40.5937 47.2637 40.2602 46.3344C39.9266 45.429 39.2594 44.6903 38.3539 44.2852ZM38.0918 48.193C37.9488 48.5266 37.6629 48.7887 37.3293 48.9079C36.9957 49.027 36.6144 49.027 36.2809 48.8602C35.9473 48.7172 35.6852 48.4313 35.566 48.0977C35.4469 47.7641 35.4469 47.3829 35.6137 47.0493C35.8519 46.5489 36.3523 46.2391 36.8766 46.2391C37.0672 46.2391 37.2578 46.2868 37.4484 46.3583C37.782 46.5012 38.0441 46.7872 38.1633 47.1208C38.2586 47.502 38.2348 47.8594 38.0918 48.193Z" fill="white"/>
<path d="M53.3418 28.7735C53.5801 29.0594 53.8899 29.2024 54.2473 29.2024C54.4856 29.2024 54.7477 29.1309 54.9622 28.9641L60.9907 24.1746C61.4911 23.7696 61.5625 23.0547 61.1813 22.5543C60.8 22.0539 60.0614 21.9824 59.561 22.3637L54.4141 26.4621L52.6985 24.3414C52.2934 23.841 51.5786 23.7696 51.0782 24.1746C50.5778 24.5797 50.5063 25.2946 50.9114 25.7949L53.3418 28.7735Z" fill="white"/>
<path d="M70.5696 17.8359H14.4305C13.7871 17.8359 13.2867 18.3602 13.2867 18.9797C13.2867 19.5992 13.811 20.1234 14.4305 20.1234H17.1707V54.9602C17.1707 55.6035 17.6949 56.1039 18.3145 56.1039H31.0387L26.2016 71.6637C26.011 72.2594 26.3446 72.9027 26.9641 73.0934C27.0832 73.141 27.2024 73.141 27.2977 73.141C27.7981 73.141 28.2508 72.8313 28.3938 72.3309L33.4453 56.1277H51.5547L56.6063 72.3547C56.7492 72.8551 57.202 73.1648 57.7024 73.1648C57.8215 73.1648 57.9407 73.141 58.036 73.1172C58.6317 72.9266 58.9891 72.2832 58.7985 71.6875L53.9614 56.1277H66.6856C67.3289 56.1277 67.8293 55.6035 67.8293 54.984V20.1473H70.5696C71.2129 20.1473 71.7133 19.623 71.7133 19.0035C71.7133 18.384 71.1891 17.8359 70.5696 17.8359ZM65.5418 53.8164H19.4582V20.1473H65.5418V53.8164Z" fill="white"/>
</svg>
