<svg width="84" height="84" viewBox="0 0 84 84" fill="none" xmlns="http://www.w3.org/2000/svg">
<rect width="84" height="84" rx="4" fill="#CC0000"/>
<path d="M63.1289 58.8848H20.8711C18.855 58.8848 17.2148 57.2446 17.2148 55.2285V52.0293C17.2148 51.738 17.451 51.502 17.7422 51.502H66.2578C66.5491 51.502 66.7852 51.738 66.7852 52.0293V55.2285C66.7852 57.2446 65.1449 58.8848 63.1289 58.8848ZM18.2695 52.5566V55.2285C18.2695 56.6631 19.4365 57.8301 20.8711 57.8301H63.129C64.5636 57.8301 65.7306 56.6631 65.7306 55.2285V52.5566H18.2695Z" fill="white"/>
<path d="M66.2578 52.5566H17.7422C17.451 52.5566 17.2148 52.3206 17.2148 52.0293V28.457C17.2148 26.0436 19.1784 24.0801 21.5918 24.0801H39.9436C40.2348 24.0801 40.4709 24.3162 40.4709 24.6074C40.4709 24.8986 40.2348 25.1348 39.9436 25.1348H21.5918C19.7599 25.1348 18.2695 26.6251 18.2695 28.457V51.502H65.7305V28.457C65.7305 26.6251 64.2401 25.1348 62.4082 25.1348H50.3845C50.0931 25.1348 49.8571 24.8986 49.8571 24.6074C49.8571 24.3162 50.0931 24.0801 50.3845 24.0801H62.4082C64.8216 24.0801 66.7852 26.0436 66.7852 28.457V52.0293C66.7852 52.3206 66.5491 52.5566 66.2578 52.5566Z" fill="white"/>
<path d="M33.7217 36.5766C33.5839 36.5766 33.4492 36.5225 33.3488 36.4222C33.2116 36.285 33.1608 36.0837 33.2166 35.8978L35.4539 28.4401C35.479 28.3565 35.5244 28.2805 35.5861 28.2188L47.8914 15.9134C48.6883 15.1166 49.7477 14.6777 50.8744 14.6777C52.0014 14.6777 53.0607 15.1166 53.8575 15.9134C54.6544 16.7102 55.0933 17.7697 55.0933 18.8965C55.0933 20.0234 54.6544 21.0827 53.8575 21.8797L41.5524 34.1849C41.4907 34.2466 41.4146 34.2921 41.331 34.3171L33.8733 36.5544C33.8234 36.5695 33.7723 36.5766 33.7217 36.5766ZM36.4258 28.8705L34.5082 35.2628L40.9006 33.3451L53.1118 21.1338C53.7094 20.5361 54.0386 19.7416 54.0386 18.8965C54.0386 18.0514 53.7094 17.2568 53.1118 16.6592C52.5142 16.0615 51.7196 15.7324 50.8744 15.7324C50.0293 15.7324 49.2347 16.0616 48.6371 16.6592L36.4258 28.8705Z" fill="white"/>
<path d="M37.8231 31.7102C37.2153 31.7102 36.6077 31.4789 36.1451 31.0163C35.2199 30.091 35.2199 28.5855 36.1451 27.6603C36.3509 27.4544 36.6848 27.4544 36.8908 27.6603C37.0968 27.8662 37.0968 28.2001 36.8908 28.406C36.3768 28.9201 36.3768 29.7565 36.8908 30.2705C37.4049 30.7846 38.2412 30.7846 38.7553 30.2705C38.9614 30.0646 39.2952 30.0647 39.5011 30.2705C39.707 30.4765 39.707 30.8104 39.5011 31.0163C39.0385 31.4789 38.4308 31.7102 37.8231 31.7102Z" fill="white"/>
<path d="M40.4336 34.3212C39.7997 34.3212 39.2038 34.0743 38.7556 33.6262C38.3073 33.178 38.0605 32.582 38.0605 31.9482C38.0605 31.3143 38.3074 30.7183 38.7556 30.2701L45.3187 23.7071C45.5245 23.5013 45.8586 23.5013 46.0644 23.7071C46.2703 23.9131 46.2703 24.247 46.0644 24.4529L39.5014 31.0159C39.2523 31.2649 39.1151 31.596 39.1151 31.9482C39.1151 32.3002 39.2522 32.6314 39.5014 32.8803C39.7504 33.1293 40.0814 33.2665 40.4335 33.2665C40.7856 33.2665 41.1167 33.1294 41.3657 32.8803C41.5716 32.6744 41.9056 32.6744 42.1115 32.8803C42.3175 33.0863 42.3175 33.4201 42.1116 33.6261C41.6635 34.0743 41.0675 34.3212 40.4336 34.3212Z" fill="white"/>
<path d="M51.9929 23.5251C51.858 23.5251 51.7229 23.4736 51.6201 23.3707L46.3996 18.1502C46.1936 17.9442 46.1936 17.6103 46.3996 17.4044C46.6054 17.1985 46.9395 17.1985 47.1453 17.4044L52.3658 22.6249C52.5717 22.8309 52.5717 23.1648 52.3658 23.3707C52.2629 23.4736 52.1278 23.5251 51.9929 23.5251Z" fill="white"/>
<path d="M53.6017 47.2821H45.1642C43.4195 47.2821 42.0001 45.8627 42.0001 44.118C42.0001 42.3734 43.4195 40.954 45.1642 40.954H56.7658C57.9289 40.954 58.8751 40.0077 58.8751 38.8446V38.6855C58.8751 37.5224 57.9289 36.5762 56.7658 36.5762H33.7217C33.4305 36.5762 33.1943 36.34 33.1943 36.0488C33.1943 35.7576 33.4305 35.5215 33.7217 35.5215H56.7658C58.5104 35.5215 59.9298 36.9409 59.9298 38.6855V38.8446C59.9298 40.5893 58.5104 42.0087 56.7658 42.0087H45.1642C44.0011 42.0087 43.0548 42.9549 43.0548 44.118C43.0548 45.2811 44.0011 46.2274 45.1642 46.2274H53.6017C53.893 46.2274 54.129 46.4634 54.129 46.7548C54.129 47.0461 53.893 47.2821 53.6017 47.2821Z" fill="white"/>
<path d="M33.5625 47.8105H17.7422C17.451 47.8105 17.2148 47.5745 17.2148 47.2832C17.2148 46.9919 17.451 46.7559 17.7422 46.7559H33.5625C33.8537 46.7559 34.0898 46.9919 34.0898 47.2832C34.0898 47.5745 33.8537 47.8105 33.5625 47.8105Z" fill="white"/>
<path d="M33.5625 44.6465H17.7422C17.451 44.6465 17.2148 44.4104 17.2148 44.1191C17.2148 43.8278 17.451 43.5918 17.7422 43.5918H33.5625C33.8537 43.5918 34.0898 43.8278 34.0898 44.1191C34.0898 44.4104 33.8537 44.6465 33.5625 44.6465Z" fill="white"/>
<path d="M33.5625 41.4824H17.7422C17.451 41.4824 17.2148 41.2464 17.2148 40.9551C17.2148 40.6639 17.451 40.4277 17.7422 40.4277H33.5625C33.8537 40.4277 34.0898 40.6639 34.0898 40.9551C34.0898 41.2464 33.8537 41.4824 33.5625 41.4824Z" fill="white"/>
<path d="M47.8008 65.2129H36.1992C35.908 65.2129 35.6719 64.9769 35.6719 64.6855V58.3574C35.6719 58.0661 35.908 57.8301 36.1992 57.8301H47.8008C48.0921 57.8301 48.3281 58.0661 48.3281 58.3574V64.6855C48.3281 64.9769 48.0921 65.2129 47.8008 65.2129ZM36.7266 64.1582H47.2734V58.8848H36.7266V64.1582Z" fill="white"/>
<path d="M45.1641 65.2129H38.8359C38.5447 65.2129 38.3086 64.9769 38.3086 64.6855V58.3574C38.3086 58.0661 38.5447 57.8301 38.8359 57.8301H45.1641C45.4554 57.8301 45.6914 58.0661 45.6914 58.3574V64.6855C45.6914 64.9769 45.4554 65.2129 45.1641 65.2129ZM39.3633 64.1582H44.6367V58.8848H39.3633V64.1582Z" fill="white"/>
<path d="M49.3828 67.3223H34.6172C33.7449 67.3223 33.0352 66.6126 33.0352 65.7402C33.0352 64.8679 33.7449 64.1582 34.6172 64.1582H49.3828C50.2551 64.1582 50.9648 64.8679 50.9648 65.7402C50.9648 66.6126 50.2551 67.3223 49.3828 67.3223ZM34.6172 65.2129C34.3264 65.2129 34.0898 65.4495 34.0898 65.7402C34.0898 66.031 34.3264 66.2676 34.6172 66.2676H49.3828C49.6736 66.2676 49.9102 66.031 49.9102 65.7402C49.9102 65.4495 49.6736 65.2129 49.3828 65.2129H34.6172Z" fill="white"/>
</svg>
