<svg width="84" height="84" viewBox="0 0 84 84" fill="none" xmlns="http://www.w3.org/2000/svg">
<rect width="84" height="84" rx="4" fill="#CC0000"/>
<path d="M25.8474 55.5254H18.8165C17.3446 55.5254 16.1514 56.7186 16.1514 58.1906V65.2215C16.1514 66.6935 17.3446 67.8868 18.8165 67.8868H25.8474C27.3194 67.8868 28.5127 66.6935 28.5127 65.2215V58.1906C28.5127 56.7186 27.3194 55.5254 25.8474 55.5254ZM20.6938 62.6186H20.14C19.6361 62.6186 19.2275 62.2101 19.2275 61.7061C19.2275 61.2021 19.6361 60.7936 20.14 60.7936H20.6938C21.1977 60.7936 21.6063 61.2021 21.6063 61.7061C21.6063 62.21 21.1978 62.6186 20.6938 62.6186ZM24.524 62.6186H23.9702C23.4663 62.6186 23.0577 62.2101 23.0577 61.7061C23.0577 61.2021 23.4663 60.7936 23.9702 60.7936H24.524C25.0279 60.7936 25.4365 61.2021 25.4365 61.7061C25.4365 62.21 25.0279 62.6186 24.524 62.6186Z" fill="white"/>
<path d="M45.0154 55.5254H37.9844C36.5126 55.5254 35.3193 56.7186 35.3193 58.1906V65.2215C35.3193 66.6935 36.5126 67.8868 37.9844 67.8868H45.0154C46.4874 67.8868 47.6806 66.6935 47.6806 65.2215V58.1906C47.6806 56.7186 46.4874 55.5254 45.0154 55.5254ZM39.8618 62.6186H39.3081C38.8042 62.6186 38.3956 62.2101 38.3956 61.7061C38.3956 61.2021 38.8042 60.7936 39.3081 60.7936H39.8618C40.3658 60.7936 40.7743 61.2021 40.7743 61.7061C40.7743 62.21 40.3658 62.6186 39.8618 62.6186ZM43.692 62.6186H43.1382C42.6342 62.6186 42.2257 62.2101 42.2257 61.7061C42.2257 61.2021 42.6342 60.7936 43.1382 60.7936H43.692C44.1958 60.7936 44.6045 61.2021 44.6045 61.7061C44.6045 62.21 44.1959 62.6186 43.692 62.6186Z" fill="white"/>
<path d="M64.1834 55.5254H57.1525C55.6806 55.5254 54.4873 56.7186 54.4873 58.1906V65.2215C54.4873 66.6935 55.6806 67.8868 57.1525 67.8868H64.1834C65.6554 67.8868 66.8486 66.6935 66.8486 65.2215V58.1906C66.8486 56.7186 65.6554 55.5254 64.1834 55.5254ZM59.0298 62.6186H58.476C57.9721 62.6186 57.5635 62.2101 57.5635 61.7061C57.5635 61.2021 57.9721 60.7936 58.476 60.7936H59.0298C59.5337 60.7936 59.9423 61.2021 59.9423 61.7061C59.9423 62.21 59.5337 62.6186 59.0298 62.6186ZM62.86 62.6186H62.3062C61.8023 62.6186 61.3937 62.2101 61.3937 61.7061C61.3937 61.2021 61.8023 60.7936 62.3062 60.7936H62.86C63.3639 60.7936 63.7725 61.2021 63.7725 61.7061C63.7725 62.21 63.3639 62.6186 62.86 62.6186Z" fill="white"/>
<path d="M41.5 22.4883C39.4669 22.4883 37.8135 24.1417 37.8135 26.1748C37.8135 28.2078 39.4669 29.8613 41.5 29.8613C43.533 29.8613 45.1865 28.2078 45.1865 26.1748C45.1865 24.1417 43.533 22.4883 41.5 22.4883ZM41.5 27.4158C40.8145 27.4158 40.259 26.8603 40.259 26.1748C40.259 25.4893 40.8145 24.9338 41.5 24.9338C42.1854 24.9338 42.741 25.4893 42.741 26.1748C42.741 26.8603 42.1854 27.4158 41.5 27.4158Z" fill="white"/>
<path d="M58.4783 45.9146C59.182 45.9146 59.7558 46.4876 59.7558 47.1921V53.7015H61.5808V47.1921C61.5808 45.4809 60.1887 44.0896 58.4783 44.0896H55.4123C54.7079 44.0896 54.1348 43.5165 54.1348 42.8121V31.0791C55.5154 29.9193 56.588 28.5671 57.2621 27.0865H62.6743C62.9262 27.0865 63.1547 26.9843 63.3197 26.8194C63.4847 26.6544 63.5868 26.4259 63.5868 26.174C63.5868 25.6703 63.178 25.2615 62.6743 25.2615H57.2621C55.194 20.7188 49.3752 17.3827 42.4125 17.1133V18.1762C42.4125 18.6799 42.0037 19.0887 41.5 19.0887C40.9963 19.0887 40.5875 18.6799 40.5875 18.1762V17.1133C33.6247 17.3827 27.8059 20.7188 25.7378 25.2615H20.3256C20.0737 25.2615 19.8452 25.3637 19.6802 25.5287C19.5152 25.6937 19.4131 25.9222 19.4131 26.174C19.4131 26.6777 19.8219 27.0865 20.3256 27.0865H25.7378C26.4118 28.5671 27.4846 29.9193 28.8651 31.0791V42.8121C28.8651 43.5165 28.2921 44.0896 27.5876 44.0896H24.5216C22.8112 44.0896 21.4191 45.4809 21.4191 47.1921V53.7015H23.2441V47.1921C23.2441 46.4876 23.8179 45.9146 24.5216 45.9146H27.5876C29.298 45.9146 30.6901 44.5224 30.6901 42.8121V32.3902C32.4708 33.4848 34.5813 34.3137 36.901 34.7907V53.8343C37.2477 53.7475 37.6105 53.7015 37.9843 53.7015H38.726V35.0872C39.3358 35.1605 39.9569 35.2104 40.5875 35.2348V34.1719C40.5875 33.6682 40.9963 33.2594 41.5 33.2594C42.0037 33.2594 42.4125 33.6682 42.4125 34.1719V35.2348C43.043 35.2104 43.6641 35.1605 44.274 35.0872V53.7015H45.0156C45.3894 53.7015 45.7522 53.7475 46.099 53.8343V34.7907C48.4186 34.3136 50.5292 33.4848 52.3098 32.3902V42.8121C52.3098 44.5224 53.7019 45.9146 55.4123 45.9146H58.4783ZM32.2246 27.415C31.8982 27.415 31.6019 27.2895 31.3807 27.0836C31.1362 26.8573 30.9836 26.5332 30.9836 26.174C30.9836 25.8149 31.1362 25.4908 31.3807 25.2645C31.6019 25.0586 31.8983 24.933 32.2246 24.933C32.9093 24.933 33.4656 25.4886 33.4656 26.174C33.4656 26.8595 32.9093 27.415 32.2246 27.415ZM41.5 31.6855C38.461 31.6855 35.9885 29.213 35.9885 26.174C35.9885 23.1351 38.461 20.6625 41.5 20.6625C44.539 20.6625 47.0115 23.1351 47.0115 26.174C47.0115 29.213 44.539 31.6855 41.5 31.6855ZM50.7753 27.415C50.0906 27.415 49.5343 26.8595 49.5343 26.174C49.5343 25.4886 50.0906 24.933 50.7753 24.933C51.1017 24.933 51.398 25.0586 51.6193 25.2645C51.8638 25.4908 52.0163 25.8149 52.0163 26.174C52.0163 26.5332 51.8638 26.8573 51.6193 27.0836C51.398 27.2895 51.1017 27.415 50.7753 27.415Z" fill="white"/>
</svg>
