<svg width="84" height="84" viewBox="0 0 84 84" fill="none" xmlns="http://www.w3.org/2000/svg">
<rect width="84" height="84" rx="4" fill="#CC0000"/>
<g clip-path="url(#clip0_584_8)">
<path d="M31.8191 41.7859C38.6163 41.7601 46.8777 40.3792 53.0189 43.8551C52.943 43.2661 52.8671 42.6771 52.7912 42.0882C49.7113 45.2212 44.1218 44.5201 40.0883 44.5515C38.2305 44.5661 36.3471 44.6426 34.49 44.5921C33.1484 44.7136 31.8267 44.5956 30.525 44.2383C29.9753 42.844 30.4281 42.1061 31.8834 42.0244C33.3305 42.012 33.334 39.7619 31.8834 39.7744C27.605 39.8113 26.4636 45.9261 30.6082 46.8491C32.8617 47.351 35.9216 46.8318 38.2222 46.8151C40.7377 46.7968 43.2703 46.8515 45.7812 46.6843C48.9661 46.4722 52.0715 46.0297 54.3822 43.6792C54.8836 43.1691 54.7908 42.2724 54.1545 41.9123C47.4561 38.121 39.2043 39.5078 31.8191 39.5359C30.3716 39.5414 30.3687 41.7914 31.8191 41.7859Z" fill="white"/>
<path d="M35.7041 45.6913C35.614 43.6614 35.3274 41.5279 35.4601 39.4975C35.5654 37.8869 36.4418 37.6956 37.8988 37.6024C39.0131 37.5311 40.1597 37.6044 41.2773 37.6053C42.7251 37.6066 42.7274 35.3566 41.2773 35.3553C38.937 35.3533 35.3866 34.5725 33.9005 36.9413C33.305 37.8905 33.2113 38.9869 33.209 40.0773C33.2052 41.944 33.3713 43.8263 33.4541 45.6913C33.5181 47.1334 35.7685 47.1413 35.7041 45.6913Z" fill="white"/>
<path d="M29.9443 52.1044C35.1595 52.1043 40.3747 52.1041 45.5899 52.1039C46.5934 52.1039 50.5925 51.6293 51.457 52.1037C53.4153 53.1784 53.3659 56.4241 51.5555 57.6305C50.3676 58.4221 45.7004 57.6553 44.2182 57.6559C42.3839 57.6568 40.5496 57.6538 38.7154 57.6411C37.2802 57.6312 32.5005 58.3503 31.3794 57.5407C29.5068 56.1886 30.4065 53.2236 30.5623 51.1835C30.6726 49.7394 28.4221 49.7465 28.3123 51.1835C28.1721 53.0191 27.1607 57.5376 28.3573 59.1259C29.3366 60.4257 31.8046 59.8017 33.2132 59.8265C37.4925 59.9021 41.7726 59.9122 46.0525 59.903C47.9574 59.8989 52.9722 60.9056 54.4883 59.4924C55.7425 58.3234 55.6431 51.0381 54.0162 49.9902C52.1971 48.8186 46.7895 49.8539 44.612 49.8539C39.7228 49.8541 34.8335 49.8543 29.9443 49.8544C28.4965 49.8545 28.4941 52.1045 29.9443 52.1044Z" fill="white"/>
<path d="M33.2664 56.1855C33.3154 56.7968 33.3439 57.4084 33.352 58.0215C33.3713 59.4682 35.6214 59.4723 35.602 58.0215C35.5939 57.4084 35.5654 56.7968 35.5164 56.1855C35.468 55.5799 35.0341 55.0605 34.3914 55.0605C33.8203 55.0605 33.2177 55.5765 33.2664 56.1855Z" fill="white"/>
<path d="M40.5233 55.6038C40.5425 56.4787 40.5617 57.3535 40.5809 58.2284C40.6126 59.6741 42.8627 59.6793 42.8309 58.2284C42.8117 57.3535 42.7925 56.4787 42.7733 55.6038C42.7416 54.1581 40.4914 54.1529 40.5233 55.6038Z" fill="white"/>
<path d="M47.9438 56.1453C47.9438 56.7286 47.9438 57.312 47.9438 57.8953C47.9438 59.3431 50.1938 59.3455 50.1938 57.8953C50.1938 57.312 50.1938 56.7286 50.1938 56.1453C50.1938 54.6976 47.9438 54.6952 47.9438 56.1453Z" fill="white"/>
<path d="M23.026 18.8245C30.2505 18.806 37.4749 18.7993 44.6993 18.8081C47.9831 18.8121 51.267 18.8191 54.5508 18.8291C56.1109 18.8338 58.9626 18.4344 60.4616 18.8502C61.9613 19.6888 63.461 20.5274 64.9607 21.366C65.1106 22.4954 65.1784 23.6285 65.164 24.7652C65.3869 31.7076 65.281 38.6774 65.3394 45.6233C65.37 49.2652 65.4006 52.9071 65.4312 56.549C65.442 57.833 65.8262 59.5508 65.4313 60.7902C64.03 65.1886 61.0193 64.552 57.8554 64.6443C50.966 64.8453 44.0738 64.9486 37.1815 64.9577C33.5712 64.9625 29.9609 64.9413 26.351 64.894C21.9041 64.8358 19.023 65.4577 18.458 60.1189C17.7125 53.0753 18.554 45.4865 18.6005 38.3971C18.6221 35.106 18.6437 31.8148 18.6653 28.5236C18.6947 24.0422 17.5642 19.0421 23.7787 19.0672C25.2267 19.073 25.2286 16.823 23.7787 16.8172C21.3268 16.8073 19.0018 16.2247 17.4968 18.4903C15.7619 21.1018 16.4342 25.6473 16.4153 28.5236C16.3462 39.0528 16.151 49.5898 16.208 60.1189C16.2195 62.2446 15.8258 65.0976 17.9163 66.4868C20.4189 68.1499 25.5142 67.1378 28.3201 67.1674C38.8125 67.2782 49.338 67.2735 59.8237 66.8344C62.243 66.7331 64.8622 66.9555 66.5015 64.8455C68.3837 62.4228 67.6961 58.3177 67.6729 55.5558C67.5842 45.0025 67.9985 34.3072 67.4057 23.772C66.9515 15.7007 61.3141 16.5996 54.5508 16.5791C44.0425 16.5472 33.5343 16.5475 23.026 16.5745C21.5784 16.5782 21.5757 18.8282 23.026 18.8245Z" fill="white"/>
<path d="M17.9022 30.8125C33.8188 30.8125 49.7355 30.8125 65.6522 30.8125C67.0999 30.8125 67.1023 28.5625 65.6522 28.5625C49.7355 28.5625 33.8188 28.5625 17.9022 28.5625C16.4544 28.5625 16.452 30.8125 17.9022 30.8125Z" fill="white"/>
<path d="M58.7772 24.9375C60.2249 24.9375 60.2273 22.6875 58.7772 22.6875C57.3294 22.6875 57.327 24.9375 58.7772 24.9375Z" fill="white"/>
<path d="M53.6522 24.8125C55.0999 24.8125 55.1023 22.5625 53.6522 22.5625C52.2044 22.5625 52.202 24.8125 53.6522 24.8125Z" fill="white"/>
<path d="M49.1522 24.8125C50.5999 24.8125 50.6023 22.5625 49.1522 22.5625C47.7044 22.5625 47.702 24.8125 49.1522 24.8125Z" fill="white"/>
</g>
<defs>
<clipPath id="clip0_584_8">
<rect width="52" height="52" fill="white" transform="translate(16 16)"/>
</clipPath>
</defs>
</svg>
