<svg width="65" height="65" viewBox="0 0 65 65" fill="none" xmlns="http://www.w3.org/2000/svg">
<path fill-rule="evenodd" clip-rule="evenodd" d="M64.3513 45.7529C64.3513 45.7529 62.8911 50.7971 60.9409 52.8125C58.4699 55.4587 55.5089 56.0201 54.2372 56.1747C53.8205 56.2065 53.39 56.2333 52.9595 56.26L52.9575 56.2421C52.39 56.2877 51.8069 56.1172 51.3742 55.6828C50.5856 54.8972 50.5856 53.6188 51.3742 52.8333C51.7314 52.4753 52.1946 52.3047 52.6609 52.2709L52.6589 52.2481C52.7273 52.2431 52.7997 52.2392 52.8662 52.2342C53.9186 52.1063 56.2121 52.0953 58.2606 49.9086C59.8755 48.2443 60.3992 44.4634 60.3992 44.4634C60.3992 44.4634 60.9369 40.025 60.9369 35.5867V29.3913C60.9369 24.953 60.3992 20.5117 60.3992 20.5117C60.3992 20.5117 59.8755 16.7314 58.2606 15.0667C56.2121 12.8822 53.9186 12.8708 52.8662 12.7433C45.3332 12.1879 32.4981 12.1899 32.4981 12.1899C32.4981 12.1899 19.6649 12.1879 12.1319 12.7433C11.0793 12.8708 8.78605 12.8822 6.73854 15.0667C5.12561 16.7314 4.59977 20.5117 4.59977 20.5117C4.59875 20.5117 4.06212 24.953 4.06212 29.3913V35.5867C4.06212 40.025 4.59977 44.4634 4.59977 44.4634C4.59875 44.4634 5.12561 48.2442 6.73854 49.9086C8.78592 52.0955 11.4762 52.027 12.6745 52.2551C16.9816 52.6756 32.498 52.8125 32.498 52.8125C33.6209 52.8125 34.5295 53.723 34.5295 54.8438C34.5295 55.9665 33.6209 56.875 32.498 56.875C32.4642 56.875 32.4316 56.869 32.3978 56.8671C31.1152 56.8533 16.3874 56.6886 11.4146 56.1996C9.96836 55.9209 6.5311 55.4587 4.05717 52.8125C2.10691 50.7971 0.649746 45.7529 0.649746 45.7529C0.649746 45.7529 0 41.3957 0 36.0212V28.952C0 23.5774 0.649746 19.2184 0.649746 19.2184C0.649746 19.2184 2.10691 14.2034 4.05717 12.1899C6.5311 9.54383 9.49013 8.95172 10.7609 8.79696C19.8583 8.125 32.4862 8.125 32.4862 8.125H32.514C32.514 8.125 45.1419 8.125 54.2372 8.79696C55.5089 8.95172 58.4699 9.54383 60.9409 12.1899C62.8911 14.2033 64.3513 19.2184 64.3513 19.2184C64.3513 19.2184 65 23.5774 65 28.952V36.0212C65 41.3957 64.3513 45.7529 64.3513 45.7529ZM40.6253 52.8125C41.7482 52.8125 42.6568 53.723 42.6568 54.8438C42.6568 55.9665 41.7482 56.875 40.6253 56.875C39.5024 56.875 38.5938 55.9665 38.5938 54.8438C38.5938 53.723 39.5024 52.8125 40.6253 52.8125ZM31.5438 42.4204L31.525 42.4303C31.2244 42.6128 30.8763 42.7219 30.5002 42.7219C29.3961 42.7219 28.5005 41.8262 28.5005 40.7224C28.5005 39.9528 28.9399 39.2921 29.5778 38.9571L29.5758 38.9551L39.9369 33.4297C39.9309 33.4247 39.9141 33.4208 39.924 33.4158C40.2633 33.2522 40.4974 32.9036 40.4974 32.5004C40.4974 32.1315 40.2931 31.8081 39.9984 31.6325L27.8695 25.1511C27.7286 25.0806 27.5829 25.0439 27.4211 25.0439C26.8785 25.0439 26.446 25.4698 26.4162 26.0005L26.4182 38.5742H26.4023C26.4023 38.5812 26.4052 38.588 26.4052 38.595C26.4052 39.7177 25.4936 40.6261 24.3727 40.6261C23.2498 40.6261 22.3412 39.7177 22.3412 38.595C22.3412 38.5921 22.3412 38.5921 22.3412 38.5901V24.4472C22.3412 22.1651 24.1932 20.3139 26.4757 20.3139C27.2563 20.3139 27.9855 20.5301 28.6075 20.906C28.6322 20.9193 28.6413 20.9149 28.6621 20.9239L42.6747 28.9977C42.9712 29.1708 43.2449 29.3756 43.498 29.6284C45.0851 31.2159 45.0851 33.7877 43.498 35.3746C43.2647 35.6067 43.0079 35.801 42.739 35.9667L31.6259 42.3707C31.5983 42.3886 31.5706 42.4025 31.5438 42.4204Z" fill="#E62D27"/>
</svg>
