<svg width="28" height="29" viewBox="0 0 28 29" fill="none" xmlns="http://www.w3.org/2000/svg">
<path d="M14 7.31641C14.0503 7.31641 19.0138 7.31641 22.2906 7.56109L22.435 7.57469C22.8725 7.61547 23.345 7.66305 23.8088 8.15922C24.0275 8.38578 24.2769 9.18781 24.3622 9.76102C24.5005 11.018 24.5735 12.2818 24.5809 13.5469V15.4138C24.5732 16.6796 24.5002 17.9441 24.3622 19.2019C24.2812 19.7615 24.0253 20.5748 23.8109 20.7878C23.3494 21.2817 22.8659 21.3293 22.4394 21.3723L22.2906 21.3882C19.0706 21.6148 14.2209 21.6374 14.0022 21.6374C13.7506 21.6374 7.87719 21.5763 6.0025 21.4109C5.89094 21.3927 5.78375 21.3769 5.65688 21.3633C5.15813 21.3021 4.59156 21.2319 4.18469 20.7946C3.96594 20.568 3.71656 19.7683 3.63344 19.1973C3.49515 17.9404 3.42213 16.6766 3.41469 15.4115V13.5627C3.42246 12.2976 3.49548 11.0339 3.63344 9.77688C3.71875 9.19914 3.9725 8.39711 4.18687 8.17508C4.65062 7.67891 5.13406 7.63359 5.56063 7.59055L5.705 7.57695C8.98625 7.33453 13.9453 7.33227 13.9934 7.33227H14M14 5.85961C14 5.85961 8.94906 5.85961 5.5825 6.10883C5.11219 6.16547 4.08844 6.17 3.17625 7.14875C2.45656 7.89641 2.22031 9.59336 2.22031 9.59336C2.06735 10.9108 1.98337 12.2359 1.96875 13.5627V15.4296C1.97916 16.7616 2.05949 18.0919 2.20938 19.4148C2.20938 19.4148 2.44344 21.1118 3.16531 21.8572C4.08188 22.8359 5.28281 22.8065 5.81875 22.9107C7.74375 23.0988 14 23.1577 14 23.1577C14 23.1577 19.0553 23.1577 22.4241 22.9016C22.8944 22.845 23.9203 22.8382 24.8303 21.8595C25.55 21.1141 25.7862 19.4171 25.7862 19.4171C25.9376 18.0943 26.0194 16.7639 26.0312 15.4319V13.565C26.0208 12.2331 25.9405 10.9027 25.7906 9.57977C25.7906 9.57977 25.5566 7.88281 24.8347 7.13516C23.9203 6.15641 22.8944 6.14961 22.4284 6.09523C19.0553 5.84375 14 5.84375 14 5.84375V5.85961Z" fill="white"/>
<path d="M11.8409 10.7871V18.2138L17.9637 14.5005L11.8409 10.7871Z" fill="white"/>
</svg>
